<?xml version="1.0" standalone="no"?>
<!DOCTYPE svg PUBLIC "-//W3C//DTD SVG 1.1//EN" "http://www.w3.org/Graphics/SVG/1.1/DTD/svg11.dtd" >
<svg>
<metadata>
Created by FontForge 20090622 at Fri Jan 15 15:27:37 2016
 By deploy user
Copyright (c) 2002, 2005 Parachute&#194;&#168;, www.parachute.gr.  All rights reserved.
</metadata>
<defs>
<font id="PFDinTextCompPro-Thin" horiz-adv-x="1818" >
  <font-face 
    font-family="PF Din Text Comp Pro Thin"
    font-weight="200"
    font-stretch="normal"
    units-per-em="1000"
    panose-1="2 0 0 0 0 0 0 0 0 0"
    ascent="750"
    descent="-250"
    x-height="488"
    cap-height="696"
    bbox="-117 -212 1760 913"
    underline-thickness="50"
    underline-position="-50"
    unicode-range="U+0020-U+FB05"
  />
<missing-glyph horiz-adv-x="432" 
d="M0 700h432v-700h-432v700zM376 669h-320l160 -291zM402 49v604l-166 -303zM376 31l-160 291l-160 -291h320zM30 51l166 299l-166 300v-599z" />
    <glyph glyph-name="fj" unicode="fj" horiz-adv-x="347" 
d="M291 488v-583q0 -53 -24 -80t-76 -27h-13v40h8q40 0 51 19t11 56v541h-139v-454h-43v454h-55v34h55v118q0 54 29 87.5t85 33.5q30 0 58 -8.5t51 -29.5l-26 -31q-20 19 -42.5 24t-39.5 5q-38 0 -55 -19.5t-17 -51.5v-128h182z" />
    <glyph glyph-name="ffj" unicode="ffj" horiz-adv-x="529" 
d="M473 489v-584q0 -107 -101 -107h-12v40h7q40 0 51.5 20t11.5 61v535h-139v-454h-44v454h-138v-454h-43v454h-55v35h55v117q0 51 32 83.5t83 32.5q20 0 43.5 -4.5t46.5 -18.5q17 21 40.5 30.5t51.5 9.5q31 0 57.5 -8t49.5 -31q-6 -8 -12.5 -15l-13.5 -15q-21 19 -42.5 24
t-37.5 5q-34 0 -53.5 -19.5t-19.5 -51.5v-139h182zM247 489v139q0 8 1 17.5t5 18.5q-19 11 -40 14.5t-31 3.5q-37 0 -55 -21.5t-18 -53.5v-118h138z" />
    <glyph glyph-name="ff" unicode="ff" horiz-adv-x="378" 
d="M182 725q19 0 41 -4t44 -16q14 20 36 29t50 9h24v-39h-19q-38 0 -53 -20t-15 -51v-144h83v-35h-83v-454h-43v454h-137v-454h-44v454h-54v35h54v125q0 54 33.5 82.5t82.5 28.5zM247 489v137q0 8 1 18.5t4 23.5q-19 11 -39 14t-30 3q-38 0 -55.5 -19.5t-17.5 -51.5v-125
h137z" />
    <glyph glyph-name="fi" unicode="fi" horiz-adv-x="347" 
d="M249 0v454h-139v-454h-44v454h-54v35h54v127q0 54 31.5 83t82.5 29q31 0 58.5 -8.5t50.5 -30.5l-25 -30q-20 19 -43 23.5t-40 4.5q-37 0 -54 -19.5t-17 -50.5v-128h182v-489h-43z" />
    <glyph glyph-name="fl" unicode="fl" horiz-adv-x="370" 
d="M250 684q-22 5 -38.5 7t-30.5 2q-41 0 -56 -22.5t-15 -64.5v-117h91v-35h-91v-454h-44v454h-56v35h56v123q0 61 30 92t84 31q18 0 46.5 -3t66.5 -14v-603q0 -38 12 -60.5t50 -22.5h12v-39h-14q-51 0 -77 24t-26 88v579z" />
    <glyph glyph-name="ffi" unicode="ffi" horiz-adv-x="529" 
d="M182 723q20 0 43.5 -4.5t46.5 -18.5q34 40 91 40q32 0 59.5 -8.5t50.5 -30.5l-26 -30q-20 18 -43 23t-40 6q-34 0 -53.5 -20t-19.5 -51v-140h182v-489h-43v454h-139v-454h-43v454h-138v-454h-44v454h-54v35h54v118q0 54 32 85t84 31zM248 489v139q0 8 1 17.5t4 17.5
q-19 12 -39.5 15.5t-30.5 3.5q-40 0 -56.5 -21.5t-16.5 -53.5v-118h138z" />
    <glyph glyph-name="ffl" unicode="ffl" horiz-adv-x="553" 
d="M182 720q17 0 42.5 -4.5t48.5 -18.5q17 23 39.5 32t49.5 9q18 0 49.5 -4t64.5 -16v-603q0 -38 12 -60.5t50 -22.5h12v-39h-15q-50 0 -76.5 24t-26.5 88v583q-22 6 -38.5 8t-30.5 2q-38 0 -55 -23.5t-17 -65.5v-120h96v-35h-96v-454h-43v454h-138v-454h-44v454h-54v35h54
v119q0 54 33.5 83t82.5 29zM248 615q0 13 1 24t5 22q-20 12 -41 15t-30 3q-38 0 -55.5 -19.5t-17.5 -50.5v-120h138v126z" />
    <glyph glyph-name="ft" unicode="ft" horiz-adv-x="393" 
d="M292 489h74v-35h-74v-339q0 -36 16 -56t53 -20h10v-39h-16q-51 0 -78.5 28t-27.5 82v344h-139v-454h-44v454h-54v35h54v126q0 60 30 85.5t76 25.5h25v-39h-20q-37 0 -52 -20t-15 -52v-126h139v137h43v-137z" />
    <glyph glyph-name=".notdef" horiz-adv-x="432" 
d="M0 700h432v-700h-432v700zM376 669h-320l160 -291zM402 49v604l-166 -303zM376 31l-160 291l-160 -291h320zM30 51l166 299l-166 300v-599z" />
    <glyph glyph-name="exclam" unicode="!" horiz-adv-x="199" 
d="M81 160l-5 536h46l-5 -536h-36zM75 0v49h49v-49h-49z" />
    <glyph glyph-name="quotedbl" unicode="&#x22;" horiz-adv-x="190" 
d="M116 526v170h35v-170h-35zM39 526v170h36v-170h-36z" />
    <glyph glyph-name="numbersign" unicode="#" horiz-adv-x="353" 
d="M210 223h-117l-41 -223h-33l42 223h-58v30h64l36 194h-54v31h60l43 224h33l-43 -224h116l42 224h33l-43 -224h59v-31h-65l-36 -194h53v-30h-59l-42 -223h-32zM99 253h116l37 194h-116z" />
    <glyph glyph-name="dollar" unicode="$" horiz-adv-x="353" 
d="M331 182q0 -41 -7 -74.5t-23.5 -58.5t-43.5 -39.5t-67 -16.5v-97h-28v97q-77 4 -110 45.5t-34 103.5l44 9q0 -22 5 -42.5t17 -36t31 -26t47 -12.5v315q-46 21 -73.5 41.5t-42 41.5t-19 44.5t-4.5 51.5q0 36 8 66.5t25 53.5t43.5 36.5t62.5 16.5v90h28v-89q41 -2 68 -15.5
t43.5 -34t23 -45.5t6.5 -49l-43 -11q0 45 -22 77.5t-76 36.5v-277l12 -5q45 -19 71 -38.5t39 -42t16 -51t3 -65.5zM287 181q0 33 -3 55.5t-12.5 39.5t-29 31t-52.5 30v-303q32 3 51 15.5t29.5 32.5t13.5 45.5t3 53.5zM67 529q0 -23 4 -40.5t14 -32.5t28.5 -29.5t48.5 -29.5
v263q-30 -3 -48.5 -16t-29 -31.5t-14 -40.5t-3.5 -43z" />
    <glyph glyph-name="ampersand" unicode="&#x26;" horiz-adv-x="454" 
d="M214 701q45 0 72.5 -12.5t45.5 -42.5l-38 -22q-12 21 -33 29t-45 8q-21 0 -36.5 -9t-25.5 -23.5t-15 -32.5t-5 -35q0 -28 8.5 -58.5t29.5 -67.5l167 -287q14 33 21 65.5t9 64.5h40q-2 -40 -14 -86t-30 -84l64 -108h-51l-42 71q-20 -25 -38.5 -40t-37 -23.5t-36.5 -11.5
t-36 -3q-30 0 -56 10.5t-45.5 31.5t-31 52.5t-11.5 74.5q0 120 111 216q-6 11 -14 24t-13 24q-20 35 -28.5 69.5t-8.5 66.5q0 29 8.5 54.5t24.5 44t39 29.5t51 11zM176 343q-51 -48 -70.5 -93t-19.5 -87q0 -56 28 -93.5t84 -37.5q27 0 59 16.5t58 54.5z" />
    <glyph glyph-name="quoteright" unicode="&#x2019;" horiz-adv-x="162" 
d="M77 553h-26q5 23 9.5 46t9.5 46h-13v56h53v-56z" />
    <glyph glyph-name="parenleft" unicode="(" horiz-adv-x="216" 
d="M176 -115q-26 39 -48 86t-38.5 100t-26 110.5t-9.5 117.5q0 57 8.5 114t24.5 110.5t38 101.5t49 89l20 -9q-47 -88 -74 -193t-27 -208q0 -112 28 -218t73 -191l-18 -10v0z" />
    <glyph glyph-name="parenright" unicode=")" horiz-adv-x="216" 
d="M54 -104q45 85 72.5 190t27.5 217q0 103 -27 208.5t-73 193.5l20 9q27 -41 49 -89.5t37.5 -102t24.5 -110.5t9 -114q0 -59 -9.5 -116.5t-26 -110.5t-39 -100t-47.5 -86z" />
    <glyph glyph-name="asterisk" unicode="*" horiz-adv-x="329" 
d="M262 445l-34 -22l-65 107l-64 -108l-33 23l75 99l-115 35l13 39l110 -48l-7 124h41l-8 -124l112 48l13 -39l-116 -35z" />
    <glyph glyph-name="plus" unicode="+" horiz-adv-x="353" 
d="M193 275v-158h-35v158h-142v36h142v157h35v-157h143v-36h-143z" />
    <glyph glyph-name="comma" unicode="," horiz-adv-x="135" 
d="M62 -94h-26l19 92h-13v55h53v-54z" />
    <glyph glyph-name="hyphen" unicode="-" horiz-adv-x="321" 
d="M49 266v41h234v-41h-234z" />
    <glyph glyph-name="period" unicode="." horiz-adv-x="135" 
d="M41 0v55h53v-55h-53z" />
    <glyph glyph-name="slash" unicode="/" horiz-adv-x="231" 
d="M41 -42h-35l186 767h35z" />
    <glyph glyph-name="zero" unicode="0" horiz-adv-x="353" 
d="M306 114q0 -31 -10.5 -53.5t-28 -37.5t-41 -22.5t-49.5 -7.5t-49.5 7.5t-41 22.5t-28 37.5t-10.5 53.5v467q0 30 10.5 52.5t28 38t41 23t49.5 7.5q27 0 50.5 -7.5t41 -23t27.5 -38t10 -52.5v-467zM263 582q0 37 -24 58.5t-62 21.5t-62.5 -21.5t-24.5 -58.5v-469
q0 -37 24.5 -58.5t62.5 -21.5t62 21.5t24 58.5v469z" />
    <glyph glyph-name="one" unicode="1" horiz-adv-x="353" 
d="M195 1v648l-107 -76v48l105 75h45v-695h-43z" />
    <glyph glyph-name="two" unicode="2" horiz-adv-x="353" 
d="M178 662q-35 0 -61.5 -26t-26.5 -88l-42 7q2 74 36.5 110.5t95.5 36.5q70 0 100.5 -40.5t30.5 -106.5q0 -48 -9 -83t-28 -72l-179 -360h210v-40h-257v40l192 386q16 32 21 63t5 66q0 20 -3.5 39.5t-13 34.5t-26.5 24t-45 9z" />
    <glyph glyph-name="three" unicode="3" horiz-adv-x="353" 
d="M180 702q36 0 60 -9.5t38.5 -27t20.5 -42t6 -53.5v-92q-1 -18 -3.5 -35t-9.5 -32.5t-19 -27.5t-32 -19v-1q22 -8 35 -21t19.5 -30.5t8 -38.5t1.5 -43v-103q0 -63 -33 -98.5t-98 -35.5q-56 0 -91.5 32.5t-35.5 104.5l43 12q0 -50 18.5 -79.5t66.5 -29.5q38 0 63 21t25 72
v116q0 56 -23.5 78t-59.5 22h-27v41h29q35 0 58 20.5t23 73.5v99q0 37 -20 61t-66 24t-66.5 -30t-20.5 -76q-11 2 -21.5 3.5t-21.5 3.5q1 63 34 101.5t99 38.5z" />
    <glyph glyph-name="four" unicode="4" horiz-adv-x="353" 
d="M274 121v-120h-43v120h-205v39l145 536h43l-147 -536h164v195h43v-195h57v-39h-57z" />
    <glyph glyph-name="five" unicode="5" horiz-adv-x="353" 
d="M178 -7q-58 0 -93 34t-36 108l43 7q0 -49 18.5 -79t68.5 -30q38 0 62 21.5t24 72.5l1 192q0 46 -24 66t-62 20q-26 0 -48.5 -11t-31.5 -31h-40v333h246v-38h-207v-248h3q32 32 91 32q55 0 85.5 -30.5t30.5 -81.5l-1 -202q-1 -64 -33 -99.5t-97 -35.5z" />
    <glyph glyph-name="six" unicode="6" horiz-adv-x="353" 
d="M263 274q0 37 -24 58t-62 21q-21 0 -37.5 -8.5t-27.5 -22t-16.5 -31t-5.5 -35.5v-144q0 -37 24.5 -58t62.5 -21t62 21t24 58v162zM122 367q11 11 29.5 18.5t36.5 7.5q54 0 86 -31.5t32 -88.5v-158q0 -31 -10.5 -53.5t-28 -37.5t-41 -22.5t-49.5 -7.5t-49.5 7.5t-41 22.5
t-28 37.5t-10.5 53.5v129q0 33 4.5 56.5t12.5 43.5l135 352h43q-7 -17 -18.5 -47.5l-25 -66.5l-27.5 -73l-25.5 -67.5l-19 -51t-8.5 -22.5z" />
    <glyph glyph-name="seven" unicode="7" horiz-adv-x="353" 
d="M123 0h-42l187 658h-187v-86h-38v124h268v-36z" />
    <glyph glyph-name="eight" unicode="8" horiz-adv-x="353" 
d="M306 467q0 -40 -17 -66t-43 -40q26 -14 43 -40t17 -65v-142q0 -31 -10.5 -53.5t-28 -37.5t-41 -22.5t-49.5 -7.5t-49.5 7.5t-41 22.5t-28 37.5t-10.5 53.5v142q0 39 16.5 65t43.5 40q-27 14 -43.5 40t-16.5 66v114q0 30 10.5 52.5t28 38t41 23t49.5 7.5t49.5 -7.5t41 -23
t28 -38t10.5 -52.5v-114zM263 262q0 36 -24 58t-62 23q-38 0 -62.5 -22t-24.5 -59v-150q0 -37 24.5 -58t62.5 -21t62 21t24 58v150zM263 583q0 37 -24 58t-62 21t-62.5 -21t-24.5 -58v-122q0 -37 24.5 -58.5t62.5 -21.5t62 21.5t24 58.5v122z" />
    <glyph glyph-name="nine" unicode="9" horiz-adv-x="353" 
d="M90 422q0 -37 24 -58t62 -21q21 0 37.5 8.5t27.5 22t16.5 31t5.5 35.5v144q0 37 -24 58t-62 21t-62.5 -21t-24.5 -58v-162zM231 329q-11 -11 -29.5 -18.5t-36.5 -7.5q-54 0 -85.5 31.5t-31.5 88.5v158q0 31 10.5 53.5t28 37.5t41 22.5t49.5 7.5q55 0 92 -29.5t37 -91.5
v-129q0 -33 -5 -56.5t-12 -43.5l-135 -352h-44q7 17 18.5 47.5l25 66.5l27.5 73l25.5 67.5l19 51t8.5 22.5z" />
    <glyph glyph-name="colon" unicode=":" horiz-adv-x="135" 
d="M42 306v56h53v-56h-53zM42 0v55h53v-55h-53z" />
    <glyph glyph-name="semicolon" unicode=";" horiz-adv-x="135" 
d="M62 -94h-26l19 92h-13v55h53v-54zM41 306v55h53v-55h-53z" />
    <glyph glyph-name="less" unicode="&#x3c;" horiz-adv-x="353" 
d="M16 277v33l319 177v-38l-284 -156l284 -154v-39z" />
    <glyph glyph-name="equal" unicode="=" horiz-adv-x="353" 
d="M16 344v36h320v-36h-320zM16 199v37h320v-37h-320z" />
    <glyph glyph-name="greater" unicode="&#x3e;" horiz-adv-x="353" 
d="M17 100v39l284 154l-284 156v38l319 -177v-33z" />
    <glyph glyph-name="question" unicode="?" horiz-adv-x="343" 
d="M172 702q42 0 71 -12t46 -33.5t24.5 -50.5t7.5 -63q0 -25 -2 -43t-5 -32t-8 -25t-11 -22q-6 -13 -15.5 -28.5l-19 -31l-18 -28.5t-12.5 -21q-9 -15 -15.5 -36.5t-6.5 -42.5v-73h-42v81q0 17 6 41.5t17 41.5l37 61t31 53q14 24 17 49t3 53q0 57 -24 89t-82 32
q-38 0 -68 -27t-32 -84q-11 2 -21.5 3.5t-21.5 3.5q2 69 42.5 107t101.5 38zM163 0v49h49v-49h-49z" />
    <glyph glyph-name="at" unicode="@" horiz-adv-x="739" 
d="M467 261q0 -38 20.5 -57.5t46.5 -19.5q20 0 40 7.5t36.5 29t27 60.5t10.5 102q0 67 -20 120t-55 90t-83 56t-105 19q-75 0 -130 -26t-91 -71t-53.5 -105.5t-17.5 -130.5q0 -77 18.5 -139t55.5 -106t92 -68t128 -24q42 0 86 8t83 31q3 -8 6.5 -16.5t7.5 -16.5
q-41 -17 -86.5 -29t-91.5 -12q-79 0 -141.5 23.5t-106 70t-66.5 116t-23 162.5q0 82 21.5 150t63 116.5t102.5 75t140 26.5q74 0 130.5 -24t95 -66.5t58 -101.5t19.5 -128q0 -70 -13.5 -115t-35.5 -71.5t-48.5 -37t-53.5 -10.5q-7 0 -19.5 2.5t-26.5 9.5t-26.5 19t-18.5 32
h-1q-9 -17 -22 -27.5t-27 -16.5t-27.5 -8t-24.5 -2q-26 0 -44 9t-29 24t-16 34.5t-5 40.5t5.5 43t18.5 39.5t34.5 28.5t52.5 11h70v52q0 30 -14.5 49.5t-55.5 19.5q-25 0 -42.5 -11.5t-23.5 -31.5q-9 2 -18 5.5t-18 6.5q11 28 37.5 47t66.5 19q22 0 42 -5t34 -17t22.5 -31.5
t8.5 -48.5v-181zM363 355q-34 0 -56.5 -20.5t-22.5 -69.5q0 -13 4.5 -26t13 -23.5t22 -17t31.5 -6.5q32 0 52.5 20.5t20.5 53.5v89h-65z" />
    <glyph glyph-name="A" unicode="A" horiz-adv-x="376" 
d="M325 0l-40 182h-194l-40 -182h-41l153 696h49l156 -696h-43zM187 634l-37 -174l-52 -238h179l-52 240l-36 172h-2z" />
    <glyph glyph-name="B" unicode="B" horiz-adv-x="410" 
d="M286 366q48 -16 65.5 -60t17.5 -104q0 -55 -12 -93.5t-34.5 -62.5t-54 -35t-71.5 -11h-145v696h146q45 0 76.5 -11.5t50.5 -34t27.5 -54.5t8.5 -73q0 -54 -15 -94t-60 -61v-2zM327 205q0 69 -27.5 106.5t-87.5 37.5h-117v-309h103q39 0 64.5 13.5t39.5 36t19.5 52.5
t5.5 63zM319 523q0 65 -29 99.5t-100 34.5h-95v-271h112q63 0 87.5 35.5t24.5 101.5z" />
    <glyph glyph-name="C" unicode="C" horiz-adv-x="383" 
d="M199 702q32 0 60 -9t48.5 -27.5t32 -46.5t11.5 -66l-43 -9q0 62 -30.5 90t-78.5 28q-55 0 -82.5 -34.5t-27.5 -87.5v-392q0 -51 27.5 -83t82.5 -32q22 0 41.5 6.5t34.5 20.5t24 36.5t9 54.5l43 -8q0 -39 -12.5 -67.5t-33 -47t-48 -27t-58.5 -8.5q-72 0 -112.5 38.5
t-40.5 115.5v390q0 75 37.5 120t115.5 45z" />
    <glyph glyph-name="D" unicode="D" horiz-adv-x="404" 
d="M202 696q63 0 99 -22t50 -73q11 -38 10.5 -101.5t-0.5 -150.5v-151.5t-11 -101.5q-9 -30 -25 -48.5t-36.5 -29t-44.5 -14.5t-51 -4h-141v696h150zM317 518q0 30 -5 55.5t-18.5 44t-36.5 29t-58 10.5h-104v-617h105q61 0 89 32t28 103v343z" />
    <glyph glyph-name="E" unicode="E" horiz-adv-x="355" 
d="M52 0v696h284v-40h-241v-279h212v-39h-212v-298h241v-40h-284z" />
    <glyph glyph-name="F" unicode="F" horiz-adv-x="353" 
d="M53 0v696h283v-40h-240v-279h212v-39h-212v-338h-43z" />
    <glyph glyph-name="G" unicode="G" horiz-adv-x="395" 
d="M200 -7q-72 0 -112.5 38t-40.5 115v351v29.5t1 29.5q3 69 41.5 107.5t110.5 38.5q65 0 107.5 -35.5t43.5 -112.5l-43 -10v3q0 60 -30.5 87.5t-78.5 27.5q-55 0 -82 -35t-27 -87v-393q0 -51 27.5 -82.5t82.5 -31.5q23 0 43.5 7.5t36.5 21.5t25 34t9 45v180h-86v39h129
v-216q0 -37 -12.5 -65t-34.5 -47t-50.5 -29t-59.5 -10z" />
    <glyph glyph-name="H" unicode="H" horiz-adv-x="412" 
d="M317 0v337h-222v-337h-43v696h43v-320h222v320h43v-696h-43z" />
    <glyph glyph-name="I" unicode="I" horiz-adv-x="174" 
d="M65 0v696h44v-696h-44z" />
    <glyph glyph-name="J" unicode="J" horiz-adv-x="321" 
d="M252 696v-546q0 -75 -40 -116t-118 -41q-26 0 -54.5 7t-45.5 26l25 33q15 -12 36 -19t41 -7q19 0 39 5.5t36.5 18.5t27 35.5t10.5 56.5v547h43z" />
    <glyph glyph-name="K" unicode="K" horiz-adv-x="397" 
d="M345 0l-154 374l-97 -179v-195h-42v696h42v-418h2l221 418h45l-144 -274l174 -422h-47z" />
    <glyph glyph-name="L" unicode="L" horiz-adv-x="333" 
d="M53 0v696h43v-656h228v-40h-271z" />
    <glyph glyph-name="M" unicode="M" horiz-adv-x="532" 
d="M435 575l-37 -100.5l-38 -100.5l-81 -212h-30l-39.5 105l-39.5 104l-73 199h-4v-570h-43v696h44l44.5 -118.5l43.5 -118.5l81 -223h3l83 224q3 7 10 25.5l15.5 42l18.5 50.5l19 50.5t15.5 42t9.5 25.5h43v-696h-42v575h-3z" />
    <glyph glyph-name="N" unicode="N" horiz-adv-x="431" 
d="M92 577v-577h-42v696h40l76 -178.5l76 -178.5l93 -222h4v579h42v-696h-41l-75.5 177.5l-75.5 177.5l-47.5 111l-46.5 111h-3z" />
    <glyph glyph-name="O" unicode="O" horiz-adv-x="403" 
d="M358 156q0 -81 -42.5 -122t-114.5 -41t-113.5 39t-41.5 115v391q0 75 39.5 119.5t116.5 44.5t116.5 -41t39.5 -119v-386zM315 546q0 52 -29.5 84.5t-83.5 32.5q-29 0 -50 -10.5t-35.5 -28t-21.5 -40.5t-7 -48v-390q0 -51 29.5 -82.5t83.5 -31.5q58 0 86 33t28 88v393z
" />
    <glyph glyph-name="P" unicode="P" horiz-adv-x="386" 
d="M188 696q52 0 86.5 -14.5t54 -40t27.5 -62t8 -79.5q0 -45 -8.5 -82.5t-29 -64t-55 -41.5t-86.5 -15h-90v-296h-43v695h136zM95 336h87q79 0 109.5 41.5t30.5 121.5q0 34 -6 63t-21.5 50t-42.5 33t-68 12h-89v-321z" />
    <glyph glyph-name="Q" unicode="Q" horiz-adv-x="402" 
d="M358 156q0 -57 -23 -97l62 -46l-23 -29l-62 46q-40 -37 -110 -37q-72 0 -114 39t-42 115v391q0 75 39.5 119.5t116.5 44.5t116.5 -41t39.5 -119v-386zM315 546q0 52 -29.5 84.5t-83.5 32.5q-29 0 -50 -10.5t-35.5 -28t-21.5 -40.5t-7 -48v-390q0 -51 29.5 -82.5
t83.5 -31.5q50 0 77 24l-67 52l23 29l66 -51q15 27 15 67v393z" />
    <glyph glyph-name="R" unicode="R" horiz-adv-x="397" 
d="M187 696q49 0 83 -12.5t54 -36.5t29 -58.5t9 -78.5q0 -21 -3 -37q-5 -54 -29.5 -91t-75.5 -53l26.5 -80l28.5 -85l28.5 -84.5t26.5 -79.5h-46l-105 320q-9 -1 -19 -1h-20h-79v-319h-43v696h135zM95 657v-300h86q74 0 106 36t32 117q0 34 -7 61.5t-23 46.5t-42.5 29
t-66.5 10h-85z" />
    <glyph glyph-name="S" unicode="S" horiz-adv-x="378" 
d="M347 182q0 -43 -8 -78t-26 -59.5t-48 -38t-75 -13.5q-42 0 -71.5 11.5t-48.5 31.5t-27.5 47t-9.5 59l44 9q0 -23 6 -44.5t19.5 -37.5t35 -25.5t52.5 -9.5q37 0 59.5 12t34.5 32t15.5 47t3.5 56q0 35 -3.5 58.5t-15 41t-34 32t-61.5 31.5q-50 22 -80 43t-45.5 42.5
t-20 45.5t-4.5 53q0 38 9 70t28 55t48 36t70 13q45 0 74.5 -13t47 -34t24.5 -46.5t7 -50.5l-44 -11q0 24 -5.5 44.5t-18.5 36t-34.5 24.5t-52.5 9q-34 0 -55.5 -12.5t-33.5 -32t-16 -42.5t-4 -45q0 -26 5 -45.5t19 -36.5t40 -33t70 -35q45 -19 71 -38.5t39 -42t16.5 -51
t3.5 -65.5z" />
    <glyph glyph-name="T" unicode="T" horiz-adv-x="319" 
d="M181 657v-657h-44v657h-132v39h308v-39h-132z" />
    <glyph glyph-name="U" unicode="U" horiz-adv-x="393" 
d="M352 695v-539q0 -81 -42 -122t-114 -41t-114 39t-42 115v548h43v-549q0 -51 29.5 -82.5t83.5 -31.5q57 0 85 33t28 88v542h43z" />
    <glyph glyph-name="V" unicode="V" horiz-adv-x="378" 
d="M213 0h-53l-148 696h43l91 -442l39 -201h2l40 200l92 443h44z" />
    <glyph glyph-name="W" unicode="W" horiz-adv-x="582" 
d="M452 0h-51l-76 407l-33 191h-3l-33 -193l-76 -405h-50l-117 696h43l65 -398l34 -233h3l39 231l74 400h41l73 -404l40 -227h2l33 227l66 404h43z" />
    <glyph glyph-name="X" unicode="X" horiz-adv-x="347" 
d="M293 0l-120 304l-121 -304h-46l144 354l-140 341h47l116 -294l116 294h47l-142 -341l146 -354h-47z" />
    <glyph glyph-name="Y" unicode="Y" horiz-adv-x="350" 
d="M174 353l48 141l35 101l35 101h45l-143 -403v-293h-42v293l-143 403h44l70 -203l48 -140h3z" />
    <glyph glyph-name="Z" unicode="Z" horiz-adv-x="304" 
d="M289 657l-234 -617h223v-40h-266v39l234 618h-215v39h258v-39z" />
    <glyph glyph-name="bracketleft" unicode="[" horiz-adv-x="197" 
d="M62 -108v804h117v-32h-76v-740h76v-32h-117z" />
    <glyph glyph-name="backslash" unicode="\" horiz-adv-x="216" 
d="M174 -30l-166 747h36l165 -747h-35z" />
    <glyph glyph-name="bracketright" unicode="]" horiz-adv-x="197" 
d="M46 -108v32h76v740h-76v32h116v-804h-116z" />
    <glyph glyph-name="asciicircum" unicode="^" horiz-adv-x="353" 
d="M161 694h34l153 -318h-38l-133 280l-131 -280h-38z" />
    <glyph glyph-name="underscore" unicode="_" horiz-adv-x="500" 
d="M0 -120v37h500v-37h-500z" />
    <glyph glyph-name="quoteleft" unicode="&#x2018;" horiz-adv-x="162" 
d="M83 701h27q-5 -23 -9.5 -46t-9.5 -46h13v-57h-53v56z" />
    <glyph glyph-name="a" unicode="a" horiz-adv-x="343" 
d="M171 248q-22 0 -41 -6t-33 -20t-22 -36.5t-8 -54.5q0 -40 20.5 -68.5t71.5 -28.5q43 0 71 23.5t28 69.5v121h-87zM38 414q14 38 47 60t85 22q63 0 97 -28.5t34 -101.5v-366h-43v44h-1q-24 -33 -54.5 -41.5t-59.5 -8.5q-33 0 -55.5 11.5t-36.5 30.5t-20.5 43.5t-6.5 51.5
q0 28 6.5 55.5t22.5 50t42.5 36.5t66.5 14h96v78q0 20 -4 36.5t-14 28.5t-27.5 19t-44.5 7q-29 0 -55 -14t-34 -42z" />
    <glyph glyph-name="b" unicode="b" horiz-adv-x="347" 
d="M180 34q29 0 51 13.5t33 48.5q5 17 6.5 53.5t1.5 83.5q0 25 -0.5 50.5t-1.5 48.5t-3 41t-6 29q-9 27 -29 40t-49 13q-25 0 -44 -10.5t-31.5 -27.5t-19 -38.5t-6.5 -43.5v-196q0 -47 27 -76t71 -29zM191 -6q-41 0 -65.5 13.5t-41.5 38.5h-2v-46h-42v726h42v-294h2
q17 30 47.5 47t62.5 17q47 0 71.5 -19t36.5 -47q8 -24 11 -60t3 -76v-70q0 -27 -1 -55.5t-4 -59.5q-3 -35 -16 -57.5t-30 -35.5t-37 -17.5t-37 -4.5z" />
    <glyph glyph-name="c" unicode="c" horiz-adv-x="329" 
d="M175 496q63 0 96 -33t33 -96q-11 -2 -22 -3.5t-22 -3.5q1 46 -22 71.5t-66 25.5q-27 0 -48.5 -12t-34.5 -41q-8 -19 -10 -65t-2 -106v-13q0 -18 0.5 -37t1.5 -37t2.5 -33t4.5 -24q9 -27 30 -42t54 -15q41 0 65.5 22.5t24.5 72.5l44 -8q-2 -63 -37 -94.5t-97 -31.5
q-30 0 -52.5 7.5t-37.5 19.5t-24 27.5t-13 32.5q-3 12 -5 31t-2.5 41l-1 44.5t-0.5 42.5q0 27 0.5 54t2 51t4.5 43.5t7 31.5q13 35 43 56t84 21z" />
    <glyph glyph-name="d" unicode="d" horiz-adv-x="348" 
d="M167 34q45 0 71.5 29t26.5 76v202q0 22 -6 42.5t-18 36t-30 25t-42 9.5q-30 0 -52.5 -16t-30.5 -47q-3 -11 -5 -28t-2.5 -38.5l-1 -45t-0.5 -46.5q0 -47 1.5 -83.5t6.5 -53.5q10 -35 30.5 -48.5t51.5 -13.5zM157 -6q-19 0 -38.5 4.5t-37 17.5t-29.5 35.5t-16 57.5
q-3 32 -3 62v57v14q0 57 1.5 103.5t12.5 75.5q11 31 37.5 53t78.5 22q40 0 66 -19t34 -37h2v286h43v-726h-43v46h-2q-17 -25 -41.5 -38.5t-64.5 -13.5z" />
    <glyph glyph-name="e" unicode="e" horiz-adv-x="342" 
d="M174 496q60 0 93.5 -30.5t36.5 -87.5q1 -11 1 -21.5v-21.5v-97h-228v-32q0 -32 1.5 -66.5t7.5 -51.5q9 -26 29 -41t54 -15q45 0 66.5 26t24.5 64l43 -8q-5 -59 -41 -90t-93 -31q-30 0 -52.5 7.5t-37.5 19.5t-24 27.5t-13 32.5q-3 12 -5 31t-2.5 40.5l-1 44.5t-0.5 43
q0 27 0.5 54t2 51t4.5 44t7 32q13 35 43 55.5t84 20.5zM88 404q-7 -17 -8.5 -50.5t-2.5 -79.5h185v61q0 23 -2.5 45t-12 39t-27.5 27t-48 10q-25 0 -48 -11t-36 -41z" />
    <glyph glyph-name="f" unicode="f" horiz-adv-x="197" 
d="M110 452v-452h-44v452h-54v37h54v126q0 60 30 85.5t76 25.5h25v-39h-20q-37 0 -52 -20t-15 -52v-126h83v-37h-83z" />
    <glyph glyph-name="g" unicode="g" horiz-adv-x="356" 
d="M160 496q41 0 65.5 -14t41.5 -39h2v46h42v-561q0 -62 -37 -95.5t-100 -33.5q-56 0 -91.5 30.5t-37.5 90.5l44 8q0 -42 22 -66t66 -24t68 28.5t24 70.5v120h-2q-17 -30 -47.5 -46.5t-62.5 -16.5q-48 0 -72.5 19.5t-35.5 47.5q-10 26 -12 65t-2 79v54q0 29 0.5 58.5
t3.5 62.5q3 35 16 57.5t30.5 35.5t37.5 18t37 5zM170 455q-28 0 -50 -13.5t-33 -48.5q-5 -17 -6.5 -53.5t-1.5 -83.5q0 -25 0.5 -50.5t1.5 -48.5t3 -41.5t6 -28.5q9 -27 29 -40t49 -13q25 0 44 10.5t31.5 27.5t19 38.5t6.5 43.5v196q0 47 -27 76t-72 29z" />
    <glyph glyph-name="h" unicode="h" horiz-adv-x="358" 
d="M86 435h1q17 29 46 45t63 16t57 -10t37 -28t20 -42t6 -52v-364h-44v351q0 21 -4 40t-14.5 32.5t-27.5 21.5t-43 8q-24 0 -42 -9t-30.5 -24.5t-19 -35.5t-6.5 -41v-343h-42v727h43v-292z" />
    <glyph glyph-name="i" unicode="i" horiz-adv-x="155" 
d="M54 608v48h45v-48h-45zM55 0v489h43v-489h-43z" />
    <glyph glyph-name="j" unicode="j" horiz-adv-x="149" 
d="M55 489h42v-562q0 -29 -4 -52.5t-15 -40.5t-30 -26.5t-50 -9.5h-13v38h7q40 0 51.5 21.5t11.5 62.5v569zM54 656h45v-48h-45v48z" />
    <glyph glyph-name="k" unicode="k" horiz-adv-x="346" 
d="M84 200h1l181 288h48l-114 -180l141 -308h-48l-120 268l-89 -141v-127h-42v726h42v-526z" />
    <glyph glyph-name="l" unicode="l" horiz-adv-x="168" 
d="M49 726h42v-611q0 -38 12.5 -60.5t50.5 -22.5h12v-39h-15q-50 0 -76 24t-26 88v621z" />
    <glyph glyph-name="m" unicode="m" horiz-adv-x="577" 
d="M193 496q46 0 71 -19.5t36 -50.5q16 32 47 51t67 19q33 0 55.5 -10.5t36 -28.5t19.5 -42t6 -51v-364h-43v350q0 19 -4 38t-13.5 33t-26.5 23t-43 9q-23 0 -40 -8.5t-28.5 -23.5t-17.5 -35t-6 -42v-344h-42v350q0 19 -3.5 38t-12.5 33t-25.5 23t-41.5 9t-43 -9t-30 -24.5
t-17.5 -35.5t-5.5 -42v-342h-43v489h43v-55h3q17 29 42 45.5t60 16.5z" />
    <glyph glyph-name="n" unicode="n" horiz-adv-x="357" 
d="M85 435h2q17 29 45.5 45t62.5 16t57 -10t37 -28t20 -42t6 -52v-364h-44v351q0 21 -4 40t-14 32.5t-27 21.5t-42 8q-24 0 -42.5 -9.5t-31.5 -25t-19.5 -35.5t-6.5 -41v-342h-42v489h43v-54z" />
    <glyph glyph-name="o" unicode="o" horiz-adv-x="349" 
d="M176 496q55 0 84 -21t40 -53q5 -13 7.5 -34.5t4 -47t1.5 -52v-49.5v-15q0 -26 -0.5 -53t-3.5 -59q-3 -35 -16.5 -58t-33 -36.5t-42.5 -19t-45 -5.5q-60 0 -89.5 24.5t-40.5 62.5q-3 12 -5 30.5t-3 40.5t-1 45v43q0 27 0.5 53.5t2 50.5t4.5 43.5t7 31.5q13 35 44 56.5
t85 21.5zM175 457q-26 0 -50 -10.5t-36 -40.5q-8 -20 -10 -62.5t-2 -98.5v-25q0 -48 1.5 -81t7.5 -51q9 -27 30.5 -41.5t58.5 -14.5q33 0 57 18t32 50q4 17 5.5 54t1.5 79q0 22 -0.5 47l-1 48t-2.5 41.5t-5 28.5q-9 30 -32.5 44.5t-54.5 14.5z" />
    <glyph glyph-name="p" unicode="p" horiz-adv-x="349" 
d="M178 454q-45 0 -72 -29t-27 -76v-202q0 -22 6 -42.5t18 -36t30 -25t42 -9.5q30 0 53 16t31 47q3 10 4.5 27.5t2.5 39t1 45v46.5q0 47 -1.5 83.5t-6.5 53.5q-10 35 -30 48.5t-51 13.5zM188 495q18 0 38 -5t37 -18t29.5 -35.5t15.5 -57.5q3 -32 3.5 -61.5t0.5 -57.5v-14
q0 -57 -2 -102t-13 -77q-11 -31 -37.5 -52.5t-78.5 -21.5q-40 0 -66 18.5t-34 36.5h-2v-242h-42v682h42v-46h2q17 25 41.5 39t65.5 14z" />
    <glyph glyph-name="q" unicode="q" horiz-adv-x="355" 
d="M170 455q-28 0 -50 -13.5t-33 -48.5q-5 -17 -6.5 -53.5t-1.5 -83.5q0 -25 0.5 -50.5t1.5 -48.5t3 -41.5t6 -28.5q9 -27 29 -40t49 -13q25 0 44 10.5t31.5 27.5t19 38.5t6.5 43.5v196q0 47 -27 76t-72 29zM160 496q41 0 65.5 -14t41.5 -39h2v46h42v-685h-42v253h-2
q-17 -30 -47.5 -46.5t-62.5 -16.5q-49 1 -74 21t-36 51q-8 25 -10 62.5t-2 76.5v68q0 25 0.5 51t3.5 56q3 35 16 57.5t30.5 35.5t37.5 18t37 5z" />
    <glyph glyph-name="r" unicode="r" horiz-adv-x="234" 
d="M228 446q-6 1 -12.5 1.5t-12.5 0.5q-50 0 -77.5 -34t-27.5 -97v-317h-43v489h43v-67h2q16 39 43 56.5t65 17.5h10t10 -1v-49z" />
    <glyph glyph-name="s" unicode="s" horiz-adv-x="322" 
d="M69 125q0 -42 23.5 -67t65.5 -25q53 0 73 25t20 70q0 22 -3.5 37.5t-13.5 28t-28 23t-48 21.5q-39 15 -64 30t-38.5 31.5t-18.5 34.5t-5 38q0 55 32 90t101 35q63 0 97.5 -32.5t34.5 -93.5l-45 -7q0 45 -23.5 69t-65.5 24q-26 0 -43 -7.5t-26.5 -19.5t-13.5 -27t-4 -31
t4 -29t15.5 -24.5t32.5 -22.5t54 -23q38 -14 60 -29t33.5 -32.5t15 -38t3.5 -44.5q0 -30 -7 -55t-23 -43t-41.5 -28t-62.5 -10q-64 0 -98.5 31t-36.5 94z" />
    <glyph glyph-name="t" unicode="t" horiz-adv-x="219" 
d="M18 489h56v134h43v-134h74v-35h-74v-339q0 -37 15.5 -56.5t52.5 -19.5h11v-39h-19q-103 0 -103 110v344h-56v35z" />
    <glyph glyph-name="u" unicode="u" horiz-adv-x="358" 
d="M273 55h-3q-17 -29 -45 -45.5t-63 -16.5q-34 0 -57 10.5t-36.5 28.5t-19.5 42t-6 51v365h44v-351q0 -23 4 -42t13.5 -32.5t26.5 -21.5t43 -8q23 0 41.5 9.5t31 25t19.5 35.5t7 41v344h43v-490h-43v55z" />
    <glyph glyph-name="v" unicode="v" horiz-adv-x="310" 
d="M130 0l-63 244.5l-62 244.5h45l27 -107l26 -107l24.5 -105l25.5 -105h3l24.5 105.5t25.5 105.5q14 54 26 106.5l25 106.5h46l-126 -489h-47z" />
    <glyph glyph-name="w" unicode="w" horiz-adv-x="525" 
d="M262 410l-92 -410h-45l-57.5 244.5l-57.5 244.5h45q2 -10 9.5 -42.5l17 -76l20.5 -92l20.5 -92l16.5 -76t9 -42.5h2q3 16 10.5 50l17 76.5l20 89.5l19.5 88.5l15.5 73t9.5 43.5h45l34 -155l28.5 -133.5l29.5 -133.5h2l23.5 108.5l22.5 108.5l46 205h45l-115 -489h-45
l-34 147l-30 131l-29 132h-3z" />
    <glyph glyph-name="x" unicode="x" horiz-adv-x="295" 
d="M242 0l-94 212l-95 -212h-47l116 251l-109 238h48l87 -201l88 201h49l-111 -238l116 -251h-48z" />
    <glyph glyph-name="y" unicode="y" horiz-adv-x="315" 
d="M158 68q14 51 27 105.5l26 106.5l55 209h44l-147 -549q-8 -32 -18 -59q-11 -34 -35.5 -56.5t-65.5 -22.5h-15v38h12q32 0 49 23t27 64l9.5 37.5l9.5 37.5l-65.5 243l-64.5 244h46l52 -210l52 -211h2z" />
    <glyph glyph-name="z" unicode="z" horiz-adv-x="281" 
d="M267 451l-206 -412h201v-39h-248v39l206 412h-186v37h233v-37z" />
    <glyph glyph-name="braceleft" unicode="{" horiz-adv-x="213" 
d="M93 133q0 65 -10.5 101.5t-52.5 47.5v25q20 5 32.5 18t19 31t9 40t2.5 44v135q0 8 0.5 15.5t1.5 15.5q3 44 25 67t58 23h18v-28h-14q-18 0 -28.5 -9t-16 -23.5t-7 -31t-1.5 -31.5v-134q0 -62 -18 -98.5t-41 -44.5v-2q26 -8 42.5 -43t16.5 -93v-145q0 -14 1.5 -30.5
t7 -30.5t16 -23t28.5 -9h14v-29h-18q-39 0 -62 27t-23 76v139v0z" />
    <glyph glyph-name="bar" unicode="|" horiz-adv-x="176" 
d="M74 -162v878h33v-878h-33z" />
    <glyph glyph-name="braceright" unicode="}" horiz-adv-x="213" 
d="M134 -6q0 -49 -23.5 -76t-62.5 -27h-18v29h14q18 0 28.5 9t16 23t7.5 30.5t2 30.5v145q0 58 16 93t42 43v2q-23 8 -40.5 44.5t-17.5 98.5v134q0 15 -2 31.5t-7.5 31t-16 23.5t-28.5 9h-14v28h25q23 0 38 -10.5t24 -27.5t12.5 -38.5t3.5 -44.5v-135q0 -22 2.5 -44t9.5 -40
t19.5 -31t31.5 -18v-25q-42 -11 -52 -47.5t-10 -101.5v-139z" />
    <glyph glyph-name="asciitilde" unicode="~" horiz-adv-x="353" 
d="M100 282q23 0 43.5 -7t40 -16t37 -16t34.5 -7q18 0 31.5 6.5t31.5 29.5l25 -17q-15 -26 -37 -41.5t-51 -15.5q-19 0 -38 7t-38.5 16t-39.5 16t-40 7q-17 0 -31 -7t-30 -26l-23 19q14 23 35.5 37.5t49.5 14.5z" />
    <glyph glyph-name="sterling" unicode="&#xa3;" horiz-adv-x="353" 
d="M181 703q30 0 57 -8.5t47 -26.5t31 -46t11 -67l-43 -10q1 61 -27 89.5t-76 28.5q-47 0 -72.5 -28t-25.5 -73q0 -24 5 -47t12 -47l14 -50.5t12 -57.5h107v-37h-103q1 -8 1.5 -18t0.5 -18q0 -77 -15.5 -134t-42.5 -113h242v-40h-290v40q30 56 46.5 117t16.5 131q0 17 -3 35
h-62v37h59q-5 29 -13 56.5l-15 52t-12 47t-5 42.5q0 66 37.5 105.5t105.5 39.5z" />
    <glyph glyph-name="yen" unicode="&#xa5;" horiz-adv-x="353" 
d="M204 315h114v-30h-121v-73h121v-31h-121v-181h-40v181h-115v31h115v73h-115v30h107l-126 381h42l110 -346h3l110 346h43z" />
    <glyph glyph-name="section" unicode="&#xa7;" horiz-adv-x="411" 
d="M366 290q0 -35 -21.5 -67t-56.5 -55q29 -29 41 -55.5t12 -53.5q0 -4 -0.5 -7t-1.5 -7q-4 -57 -47 -89t-109 -32q-32 0 -66 12t-61 32q10 15 23 29q26 -19 50.5 -28t53.5 -9q55 0 85.5 26.5t30.5 67.5q0 38 -29.5 71.5t-98.5 73.5q-61 35 -91 68t-30 79q0 41 22 71t57 50
q-31 25 -43 49.5t-12 53.5q0 28 9.5 52t27.5 42t43 28t57 10q39 0 70 -11t60 -34q-7 -8 -14.5 -15t-14.5 -15q-25 20 -48 29t-53 9q-23 0 -40.5 -8t-29.5 -21t-18 -29.5t-6 -33.5q0 -21 8 -36.5t22 -28.5t33.5 -25.5t43.5 -26.5q30 -17 55.5 -34.5t45 -37.5t30.5 -43t11 -51
zM325 287q0 45 -40 79.5t-120 75.5q-29 -11 -51.5 -34.5t-22.5 -59.5q0 -20 10.5 -37.5t26.5 -32t36 -27.5t40 -24l53 -32q28 13 48 39.5t20 52.5z" />
    <glyph glyph-name="quotesingle" unicode="'" horiz-adv-x="139" 
d="M52 526v170h36v-170h-36z" />
    <glyph glyph-name="quotedblleft" unicode="&#x201c;" horiz-adv-x="231" 
d="M70 701h27l-20 -92h13v-57h-53v56zM161 701h27l-20 -92h13v-57h-53v56z" />
    <glyph glyph-name="guillemotleft" unicode="&#xab;" horiz-adv-x="338" 
d="M267 46l-107 186l107 186h44l-105 -186l105 -186h-44zM144 46l-107 186l107 186h44l-106 -186l106 -186h-44z" />
    <glyph glyph-name="endash" unicode="&#x2013;" horiz-adv-x="500" 
d="M20 241v42h460v-42h-460z" />
    <glyph glyph-name="dagger" unicode="&#x2020;" horiz-adv-x="333" 
d="M186 415v-600h-43v600h-138v41h138v233h43v-233h139v-41h-139z" />
    <glyph glyph-name="periodcentered" unicode="&#xb7;" horiz-adv-x="135" 
d="M42 234v56h53v-56h-53z" />
    <glyph glyph-name="bullet" unicode="&#x2022;" horiz-adv-x="354" 
d="M180 354q19 0 35.5 -7.5t29 -20t19.5 -29.5t7 -36t-7 -36t-19.5 -29.5t-29 -19.5t-35.5 -7t-36 7t-29.5 19.5t-19.5 29.5t-7 36t7 36t19.5 29.5t29.5 20t36 7.5z" />
    <glyph glyph-name="quotedblright" unicode="&#x201d;" horiz-adv-x="231" 
d="M78 553h-27l20 92h-13v56h53v-56zM189 645l-16 -46l-16 -46h-27q5 23 9.5 46t9.5 46h-13v56h53v-56z" />
    <glyph glyph-name="guillemotright" unicode="&#xbb;" horiz-adv-x="338" 
d="M38 46l105 186l-105 186h43l107 -186l-107 -186h-43zM161 46l106 186l-106 186h44l107 -186l-107 -186h-44z" />
    <glyph glyph-name="ellipsis" unicode="&#x2026;" horiz-adv-x="544" 
d="M41 0v55h53v-55h-53zM239 0v55h52v-55h-52zM442 0v55h53v-55h-53z" />
    <glyph glyph-name="grave" unicode="`" horiz-adv-x="342" 
d="M213 556l-88 144l45 17l67 -151z" />
    <glyph glyph-name="dieresis" unicode="&#xa8;" horiz-adv-x="343" 
d="M222 585v48h42v-48h-42zM76 585v48h42v-48h-42z" />
    <glyph glyph-name="oe" unicode="&#x153;" horiz-adv-x="581" 
d="M417 496q60 0 93.5 -30.5t36.5 -87.5q1 -11 1 -21.5v-21.5v-97h-229q0 -8 0.5 -16t0.5 -16q0 -32 2 -66.5t7 -51.5q8 -23 28 -39.5t55 -16.5q46 0 67 26.5t25 61.5q11 -3 21 -5t21 -5q-6 -54 -41 -85.5t-93 -31.5q-53 0 -80 20.5t-38 47.5q-18 -38 -52.5 -53t-69.5 -15
q-60 0 -89.5 24.5t-40.5 62.5q-3 12 -4.5 30.5t-2.5 40.5t-1 45v43q0 27 0.5 54t2 52t4 44.5t6.5 31.5q13 35 44 55t85 20q50 0 77.5 -19t41.5 -46h2q14 29 43 47t77 18zM175 457q-26 0 -50 -10.5t-36 -40.5q-8 -20 -10 -62.5t-2 -98.5v-25q0 -48 1.5 -81t7.5 -51
q9 -27 30.5 -41.5t58.5 -14.5q33 0 57 18t32 50q4 17 5.5 54t1.5 79q0 22 -0.5 47l-1 48t-2.5 41.5t-5 28.5q-9 30 -32.5 44.5t-54.5 14.5zM331 404q-8 -17 -9 -50.5t-2 -79.5h184v93q0 38 -21.5 63.5t-67.5 25.5q-25 0 -48 -11t-36 -41z" />
    <glyph glyph-name="germandbls" unicode="&#xdf;" horiz-adv-x="356" 
d="M241 430q25 -6 40 -18.5t22.5 -29t9.5 -36.5t2 -41v-165q0 -30 -6.5 -56.5t-20.5 -46.5t-36.5 -32t-55.5 -12h-32v35h16q53 0 72 28t19 80v175q0 20 -5.5 38.5t-17 32.5t-28 21t-37.5 5v40q35 2 57 26.5t22 59.5v60q0 18 -4.5 34t-15.5 29t-28.5 20.5t-43.5 7.5
q-42 0 -66.5 -26.5t-24.5 -64.5v-594h-43v594q0 62 39 97t97 35q27 0 51.5 -8.5t43 -24.5t29 -40.5t10.5 -55.5v-60q0 -33 -14.5 -62.5t-50.5 -41.5v-3z" />
    <glyph glyph-name="mu" unicode="&#xb5;" horiz-adv-x="364" 
d="M276 54h-2q-16 -29 -44 -44.5t-60 -15.5q-29 0 -48.5 8t-32.5 22v-221h-43v686h44v-350q0 -22 4 -40.5t14.5 -32.5t27.5 -22t43 -8q24 0 42 9t30.5 24.5t19 35.5t6.5 41v343h42v-489h-43v54z" />
    <glyph glyph-name="mu" unicode="&#x3bc;" horiz-adv-x="364" 
d="M276 54h-2q-16 -29 -44 -44.5t-60 -15.5q-29 0 -48.5 8t-32.5 22v-221h-43v686h44v-350q0 -22 4 -40.5t14.5 -32.5t27.5 -22t43 -8q24 0 42 9t30.5 24.5t19 35.5t6.5 41v343h42v-489h-43v54z" />
    <glyph glyph-name="trademark" unicode="&#x2122;" horiz-adv-x="606" 
d="M518 596l-94 -221h-28l-95 226h-3v-288h-34v382h34l113 -270l112 270h33v-382h-35v283h-3zM146 661v-347h-36v347h-84v35h204v-35h-84z" />
    <glyph glyph-name="plusminus" unicode="&#xb1;" horiz-adv-x="353" 
d="M16 41v35h320v-35h-320zM193 275v-158h-35v158h-142v36h142v157h35v-157h143v-36h-143z" />
    <glyph glyph-name="divide" unicode="&#xf7;" horiz-adv-x="353" 
d="M212 440q0 -15 -10.5 -25.5t-24.5 -10.5t-24.5 10.5t-10.5 25.5q0 14 10.5 24.5t24.5 10.5t24.5 -10.5t10.5 -24.5zM16 275v37h319v-37h-319zM177 176q14 0 24.5 -10.5t10.5 -24.5q0 -15 -10.5 -26t-24.5 -11t-24.5 11t-10.5 26q0 14 10.5 24.5t24.5 10.5z" />
    <glyph glyph-name="degree" unicode="&#xb0;" horiz-adv-x="281" 
d="M237 603q0 -39 -26.5 -66t-65.5 -27q-19 0 -35.5 7t-29 20t-19.5 29.5t-7 36.5q0 19 7 36t19.5 29.5t29 19.5t35.5 7t36 -7t29.5 -19.5t19.5 -29.5t7 -36zM145 666q-26 0 -44 -18.5t-18 -44.5q0 -27 18 -45t44 -18t44 18t18 45q0 26 -18 44.5t-44 18.5z" />
    <glyph glyph-name="registered" unicode="&#xae;" horiz-adv-x="486" 
d="M246 274q-46 0 -81.5 16.5t-59.5 46t-36.5 69t-12.5 85.5q0 48 12 88t36 69t59.5 45.5t82.5 16.5q45 0 80 -16.5t59 -45.5t36.5 -69t12.5 -88q0 -46 -12.5 -85.5t-36.5 -69t-59 -46t-80 -16.5zM246 685q-40 0 -70 -15t-50.5 -41t-30.5 -61t-10 -75q0 -42 11 -76.5
t31.5 -60t50.5 -39.5t68 -14q40 0 70 15t49.5 40.5t29 60.5t9.5 74q0 40 -10.5 75t-30.5 61t-49.5 41t-67.5 15zM287 360l-39 111h-36v-111h-30v260h61q35 0 54 -18.5t19 -58.5q0 -20 -8 -39t-31 -30l22 -57l21 -57h-33zM285 543q0 23 -10.5 36t-34.5 13h-28v-96h31
q24 0 33 13t9 34z" />
    <glyph glyph-name="copyright" unicode="&#xa9;" horiz-adv-x="703" 
d="M358 -8q-74 0 -130 26.5t-94 73.5t-57.5 110.5t-19.5 138.5t19.5 139t57.5 111.5t94 74t130 26.5q73 0 129 -26.5t94.5 -74t58.5 -111.5t20 -139t-20 -138.5t-58.5 -110.5t-94.5 -73.5t-129 -26.5zM358 660q-66 0 -116 -25t-83.5 -68.5t-50 -101.5t-16.5 -124
q0 -68 18 -126t52 -100.5t83.5 -66.5t112.5 -24q64 0 114 24t83.5 67t51 100.5t17.5 125.5t-17.5 126.5t-51.5 101t-83.5 67t-113.5 24.5zM359 538q22 0 41.5 -6.5t34 -19.5t23 -33t8.5 -46l-34 -7q0 38 -20 58.5t-54 20.5q-32 0 -52 -20.5t-20 -49.5v-202q0 -30 20 -49.5
t52 -19.5q33 0 52.5 20t20.5 57l35 -6q0 -51 -31.5 -77.5t-75.5 -26.5q-22 0 -41.5 6.5t-34.5 19.5t-24 33t-9 47v193q0 53 32 80.5t77 27.5z" />
    <glyph glyph-name="Adieresis" unicode="&#xc4;" horiz-adv-x="376" 
d="M325 0l-40 182h-194l-40 -182h-41l153 696h49l156 -696h-43zM187 634l-37 -174l-52 -238h179l-52 240l-36 172h-2zM239 745v47h41v-47h-41zM93 745v47h42v-47h-42z" />
    <glyph glyph-name="Eacute" unicode="&#xc9;" horiz-adv-x="355" 
d="M52 0v696h284v-40h-241v-279h212v-39h-212v-298h241v-40h-284zM134 748l128 105l32 -36l-143 -89z" />
    <glyph glyph-name="Odieresis" unicode="&#xd6;" horiz-adv-x="403" 
d="M358 156q0 -81 -42.5 -122t-114.5 -41t-113.5 39t-41.5 115v391q0 75 39.5 119.5t116.5 44.5t116.5 -41t39.5 -119v-386zM315 546q0 52 -29.5 84.5t-83.5 32.5q-29 0 -50 -10.5t-35.5 -28t-21.5 -40.5t-7 -48v-390q0 -51 29.5 -82.5t83.5 -31.5q58 0 86 33t28 88v393z
M253 745v47h41v-47h-41zM107 745v47h42v-47h-42z" />
    <glyph glyph-name="Udieresis" unicode="&#xdc;" horiz-adv-x="393" 
d="M352 695v-539q0 -81 -42 -122t-114 -41t-114 39t-42 115v548h43v-549q0 -51 29.5 -82.5t83.5 -31.5q57 0 85 33t28 88v542h43zM251 745v47h41v-47h-41zM105 745v47h42v-47h-42z" />
    <glyph glyph-name="acircumflex" unicode="&#xe2;" horiz-adv-x="343" 
d="M171 248q-22 0 -41 -6t-33 -20t-22 -36.5t-8 -54.5q0 -40 20.5 -68.5t71.5 -28.5q43 0 71 23.5t28 69.5v121h-87zM38 414q14 38 47 60t85 22q63 0 97 -28.5t34 -101.5v-366h-43v44h-1q-24 -33 -54.5 -41.5t-59.5 -8.5q-33 0 -55.5 11.5t-36.5 30.5t-20.5 43.5t-6.5 51.5
q0 28 6.5 55.5t22.5 50t42.5 36.5t66.5 14h96v78q0 20 -4 36.5t-14 28.5t-27.5 19t-44.5 7q-29 0 -55 -14t-34 -42zM173 648l-110 -97l-19 16l115 123h31l111 -121l-20 -17z" />
    <glyph glyph-name="adieresis" unicode="&#xe4;" horiz-adv-x="343" 
d="M171 248q-22 0 -41 -6t-33 -20t-22 -36.5t-8 -54.5q0 -40 20.5 -68.5t71.5 -28.5q43 0 71 23.5t28 69.5v121h-87zM38 414q14 38 47 60t85 22q63 0 97 -28.5t34 -101.5v-366h-43v44h-1q-24 -33 -54.5 -41.5t-59.5 -8.5q-33 0 -55.5 11.5t-36.5 30.5t-20.5 43.5t-6.5 51.5
q0 28 6.5 55.5t22.5 50t42.5 36.5t66.5 14h96v78q0 20 -4 36.5t-14 28.5t-27.5 19t-44.5 7q-29 0 -55 -14t-34 -42zM224 585v48h42v-48h-42zM78 585v48h42v-48h-42z" />
    <glyph glyph-name="agrave" unicode="&#xe0;" horiz-adv-x="343" 
d="M171 248q-22 0 -41 -6t-33 -20t-22 -36.5t-8 -54.5q0 -40 20.5 -68.5t71.5 -28.5q43 0 71 23.5t28 69.5v121h-87zM38 414q14 38 47 60t85 22q63 0 97 -28.5t34 -101.5v-366h-43v44h-1q-24 -33 -54.5 -41.5t-59.5 -8.5q-33 0 -55.5 11.5t-36.5 30.5t-20.5 43.5t-6.5 51.5
q0 28 6.5 55.5t22.5 50t42.5 36.5t66.5 14h96v78q0 20 -4 36.5t-14 28.5t-27.5 19t-44.5 7q-29 0 -55 -14t-34 -42zM177 556l-88 144l45 17l67 -151z" />
    <glyph glyph-name="ccedilla" unicode="&#xe7;" horiz-adv-x="329" 
d="M175 496q63 0 96 -33t33 -96q-11 -2 -22 -3.5t-22 -3.5q1 46 -22 71.5t-66 25.5q-27 0 -48.5 -12t-34.5 -41q-8 -19 -10 -65t-2 -106v-13q0 -18 0.5 -37t1.5 -37t2.5 -33t4.5 -24q9 -27 30 -42t54 -15q41 0 65.5 22.5t24.5 72.5l44 -8q-2 -60 -33 -90.5t-86 -34.5
l-14 -57q23 -2 38.5 -9.5t24.5 -18t12.5 -22.5t3.5 -22q0 -26 -18 -48.5t-58 -22.5q-15 0 -35 2.5t-40 13.5l10 24q17 -8 31.5 -10t26.5 -2q21 0 35 10.5t14 31.5q0 20 -15 33.5t-47 13.5l-16 12l19 71q-54 3 -80.5 28.5t-33.5 57.5q-3 12 -5 31t-2.5 41l-1 44.5t-0.5 42.5
q0 27 0.5 54t2 51t4.5 43.5t7 31.5q13 35 43 56t84 21z" />
    <glyph glyph-name="eacute" unicode="&#xe9;" horiz-adv-x="342" 
d="M174 496q60 0 93.5 -30.5t36.5 -87.5q1 -11 1 -21.5v-21.5v-97h-228v-32q0 -32 1.5 -66.5t7.5 -51.5q9 -26 29 -41t54 -15q45 0 66.5 26t24.5 64l43 -8q-5 -59 -41 -90t-93 -31q-30 0 -52.5 7.5t-37.5 19.5t-24 27.5t-13 32.5q-3 12 -5 31t-2.5 40.5l-1 44.5t-0.5 43
q0 27 0.5 54t2 51t4.5 44t7 32q13 35 43 55.5t84 20.5zM88 404q-7 -17 -8.5 -50.5t-2.5 -79.5h185v61q0 23 -2.5 45t-12 39t-27.5 27t-48 10q-25 0 -48 -11t-36 -41zM149 566l67 151l45 -17l-88 -144z" />
    <glyph glyph-name="ecircumflex" unicode="&#xea;" horiz-adv-x="342" 
d="M174 496q60 0 93.5 -30.5t36.5 -87.5q1 -11 1 -21.5v-21.5v-97h-228v-32q0 -32 1.5 -66.5t7.5 -51.5q9 -26 29 -41t54 -15q45 0 66.5 26t24.5 64l43 -8q-5 -59 -41 -90t-93 -31q-30 0 -52.5 7.5t-37.5 19.5t-24 27.5t-13 32.5q-3 12 -5 31t-2.5 40.5l-1 44.5t-0.5 43
q0 27 0.5 54t2 51t4.5 44t7 32q13 35 43 55.5t84 20.5zM88 404q-7 -17 -8.5 -50.5t-2.5 -79.5h185v61q0 23 -2.5 45t-12 39t-27.5 27t-48 10q-25 0 -48 -11t-36 -41zM171 648l-110 -97l-19 16l115 123h31l111 -121l-20 -17z" />
    <glyph glyph-name="edieresis" unicode="&#xeb;" horiz-adv-x="342" 
d="M174 496q60 0 93.5 -30.5t36.5 -87.5q1 -11 1 -21.5v-21.5v-97h-228v-32q0 -32 1.5 -66.5t7.5 -51.5q9 -26 29 -41t54 -15q45 0 66.5 26t24.5 64l43 -8q-5 -59 -41 -90t-93 -31q-30 0 -52.5 7.5t-37.5 19.5t-24 27.5t-13 32.5q-3 12 -5 31t-2.5 40.5l-1 44.5t-0.5 43
q0 27 0.5 54t2 51t4.5 44t7 32q13 35 43 55.5t84 20.5zM88 404q-7 -17 -8.5 -50.5t-2.5 -79.5h185v61q0 23 -2.5 45t-12 39t-27.5 27t-48 10q-25 0 -48 -11t-36 -41zM221 585v48h42v-48h-42zM75 585v48h42v-48h-42z" />
    <glyph glyph-name="egrave" unicode="&#xe8;" horiz-adv-x="342" 
d="M174 496q60 0 93.5 -30.5t36.5 -87.5q1 -11 1 -21.5v-21.5v-97h-228v-32q0 -32 1.5 -66.5t7.5 -51.5q9 -26 29 -41t54 -15q45 0 66.5 26t24.5 64l43 -8q-5 -59 -41 -90t-93 -31q-30 0 -52.5 7.5t-37.5 19.5t-24 27.5t-13 32.5q-3 12 -5 31t-2.5 40.5l-1 44.5t-0.5 43
q0 27 0.5 54t2 51t4.5 44t7 32q13 35 43 55.5t84 20.5zM88 404q-7 -17 -8.5 -50.5t-2.5 -79.5h185v61q0 23 -2.5 45t-12 39t-27.5 27t-48 10q-25 0 -48 -11t-36 -41zM181 556l-88 144l45 17l67 -151z" />
    <glyph glyph-name="icircumflex" unicode="&#xee;" horiz-adv-x="217" 
d="M85 0v489h43v-489h-43zM109 648l-110 -97l-19 16l115 123h31l111 -121l-20 -17z" />
    <glyph glyph-name="idieresis" unicode="&#xef;" horiz-adv-x="168" 
d="M63 0v489h43v-489h-43zM136 585v48h42v-48h-42zM-10 585v48h42v-48h-42z" />
    <glyph glyph-name="ocircumflex" unicode="&#xf4;" horiz-adv-x="349" 
d="M176 496q55 0 84 -21t40 -53q5 -13 7.5 -34.5t4 -47t1.5 -52v-49.5v-15q0 -26 -0.5 -53t-3.5 -59q-3 -35 -16.5 -58t-33 -36.5t-42.5 -19t-45 -5.5q-60 0 -89.5 24.5t-40.5 62.5q-3 12 -5 30.5t-3 40.5t-1 45v43q0 27 0.5 53.5t2 50.5t4.5 43.5t7 31.5q13 35 44 56.5
t85 21.5zM175 457q-26 0 -50 -10.5t-36 -40.5q-8 -20 -10 -62.5t-2 -98.5v-25q0 -48 1.5 -81t7.5 -51q9 -27 30.5 -41.5t58.5 -14.5q33 0 57 18t32 50q4 17 5.5 54t1.5 79q0 22 -0.5 47l-1 48t-2.5 41.5t-5 28.5q-9 30 -32.5 44.5t-54.5 14.5zM177 648l-110 -97l-19 16
l115 123h31l111 -121l-20 -17z" />
    <glyph glyph-name="odieresis" unicode="&#xf6;" horiz-adv-x="349" 
d="M176 496q55 0 84 -21t40 -53q5 -13 7.5 -34.5t4 -47t1.5 -52v-49.5v-15q0 -26 -0.5 -53t-3.5 -59q-3 -35 -16.5 -58t-33 -36.5t-42.5 -19t-45 -5.5q-60 0 -89.5 24.5t-40.5 62.5q-3 12 -5 30.5t-3 40.5t-1 45v43q0 27 0.5 53.5t2 50.5t4.5 43.5t7 31.5q13 35 44 56.5
t85 21.5zM175 457q-26 0 -50 -10.5t-36 -40.5q-8 -20 -10 -62.5t-2 -98.5v-25q0 -48 1.5 -81t7.5 -51q9 -27 30.5 -41.5t58.5 -14.5q33 0 57 18t32 50q4 17 5.5 54t1.5 79q0 22 -0.5 47l-1 48t-2.5 41.5t-5 28.5q-9 30 -32.5 44.5t-54.5 14.5zM226 585v48h42v-48h-42z
M80 585v48h42v-48h-42z" />
    <glyph glyph-name="ucircumflex" unicode="&#xfb;" horiz-adv-x="358" 
d="M273 55h-3q-17 -29 -45 -45.5t-63 -16.5q-34 0 -57 10.5t-36.5 28.5t-19.5 42t-6 51v365h44v-351q0 -23 4 -42t13.5 -32.5t26.5 -21.5t43 -8q23 0 41.5 9.5t31 25t19.5 35.5t7 41v344h43v-490h-43v55zM180 648l-110 -97l-19 16l115 123h31l111 -121l-20 -17z" />
    <glyph glyph-name="udieresis" unicode="&#xfc;" horiz-adv-x="358" 
d="M273 55h-3q-17 -29 -45 -45.5t-63 -16.5q-34 0 -57 10.5t-36.5 28.5t-19.5 42t-6 51v365h44v-351q0 -23 4 -42t13.5 -32.5t26.5 -21.5t43 -8q23 0 41.5 9.5t31 25t19.5 35.5t7 41v344h43v-490h-43v55zM225 585v48h42v-48h-42zM79 585v48h42v-48h-42z" />
    <glyph glyph-name="ugrave" unicode="&#xf9;" horiz-adv-x="358" 
d="M273 55h-3q-17 -29 -45 -45.5t-63 -16.5q-34 0 -57 10.5t-36.5 28.5t-19.5 42t-6 51v365h44v-351q0 -23 4 -42t13.5 -32.5t26.5 -21.5t43 -8q23 0 41.5 9.5t31 25t19.5 35.5t7 41v344h43v-490h-43v55zM185 556l-88 144l45 17l67 -151z" />
    <glyph glyph-name="pi" unicode="&#x3c0;" horiz-adv-x="364" 
d="M276 0v452h-186v-452h-44v489h273v-489h-43z" />
    <glyph glyph-name="dieresistonos" unicode="&#x385;" horiz-adv-x="343" 
d="M234 585v48h41v-48h-41zM65 585v48h42v-48h-42zM129 566l67 151l46 -17l-88 -144z" />
    <glyph glyph-name="tonos" unicode="&#x384;" horiz-adv-x="342" 
d="M146 566l67 151l45 -17l-88 -144z" />
    <glyph glyph-name="sfthyphen" unicode="&#xad;" horiz-adv-x="321" 
d="M49 266v41h234v-41h-234z" />
    <glyph glyph-name="Gamma" unicode="&#x393;" horiz-adv-x="350" 
d="M96 656v-656h-43v696h278v-40h-235z" />
    <glyph glyph-name="Delta" unicode="&#x394;" horiz-adv-x="376" 
d="M9 0l154 696h49l155 -696h-358zM185 629l-19.5 -90l-21.5 -103l-86 -397h257l-42.5 198l-43.5 197l-20 98l-21 97h-3z" />
    <glyph glyph-name="Delta" unicode="&#x2206;" horiz-adv-x="376" 
d="M9 0l154 696h49l155 -696h-358zM185 629l-19.5 -90l-21.5 -103l-86 -397h257l-42.5 198l-43.5 197l-20 98l-21 97h-3z" />
    <glyph glyph-name="Theta" unicode="&#x398;" horiz-adv-x="403" 
d="M111 377h182v-39h-182v39zM358 156q0 -81 -42.5 -122t-114.5 -41t-113.5 39t-41.5 115v391q0 75 39.5 119.5t116.5 44.5t116.5 -41t39.5 -119v-386zM315 546q0 52 -29.5 84.5t-83.5 32.5q-29 0 -50 -10.5t-35.5 -28t-21.5 -40.5t-7 -48v-390q0 -51 29.5 -82.5t83.5 -31.5
q58 0 86 33t28 88v393z" />
    <glyph glyph-name="Lambda" unicode="&#x39b;" horiz-adv-x="376" 
d="M284 183l-63 289q-2 8 -6.5 30.5t-10 47.5l-10.5 47l-7 31h-1q-8 -45 -17.5 -84.5t-17.5 -76.5q-4 -20 -8.5 -38.5l-8.5 -36.5l-25.5 -122l-19.5 -93.5l-18 -83.5l-21 -93h-41l154 696h49l155 -696h-42z" />
    <glyph glyph-name="Xi" unicode="&#x39e;" horiz-adv-x="343" 
d="M25 656v40h295v-40h-295zM53 338v39h239v-39h-239zM25 0v42h295v-42h-295z" />
    <glyph glyph-name="Pi" unicode="&#x3a0;" horiz-adv-x="407" 
d="M313 0v656h-218v-656h-43v696h304v-696h-43z" />
    <glyph glyph-name="Sigma" unicode="&#x3a3;" horiz-adv-x="294" 
d="M18 0v38l116 321l-118 300v37h263v-40h-220l118 -297l-116 -318h225v-41h-268z" />
    <glyph glyph-name="Iotadieresis" unicode="&#x3aa;" horiz-adv-x="174" 
d="M65 0v696h44v-696h-44zM139 745v47h41v-47h-41zM-7 745v47h42v-47h-42z" />
    <glyph glyph-name="Alpha" unicode="&#x391;" horiz-adv-x="376" 
d="M325 0l-40 182h-194l-40 -182h-41l153 696h49l156 -696h-43zM187 634l-37 -174l-52 -238h179l-52 240l-36 172h-2z" />
    <glyph glyph-name="Beta" unicode="&#x392;" horiz-adv-x="410" 
d="M286 366q48 -16 65.5 -60t17.5 -104q0 -55 -12 -93.5t-34.5 -62.5t-54 -35t-71.5 -11h-145v696h146q45 0 76.5 -11.5t50.5 -34t27.5 -54.5t8.5 -73q0 -54 -15 -94t-60 -61v-2zM327 205q0 69 -27.5 106.5t-87.5 37.5h-117v-309h103q39 0 64.5 13.5t39.5 36t19.5 52.5
t5.5 63zM319 523q0 65 -29 99.5t-100 34.5h-95v-271h112q63 0 87.5 35.5t24.5 101.5z" />
    <glyph glyph-name="Epsilon" unicode="&#x395;" horiz-adv-x="355" 
d="M52 0v696h284v-40h-241v-279h212v-39h-212v-298h241v-40h-284z" />
    <glyph glyph-name="Zeta" unicode="&#x396;" horiz-adv-x="304" 
d="M289 657l-234 -617h223v-40h-266v39l234 618h-215v39h258v-39z" />
    <glyph glyph-name="Eta" unicode="&#x397;" horiz-adv-x="412" 
d="M317 0v337h-222v-337h-43v696h43v-320h222v320h43v-696h-43z" />
    <glyph glyph-name="Iota" unicode="&#x399;" horiz-adv-x="174" 
d="M65 0v696h44v-696h-44z" />
    <glyph glyph-name="Kappa" unicode="&#x39a;" horiz-adv-x="397" 
d="M345 0l-154 374l-97 -179v-195h-42v696h42v-418h2l221 418h45l-144 -274l174 -422h-47z" />
    <glyph glyph-name="Mu" unicode="&#x39c;" horiz-adv-x="532" 
d="M435 575l-37 -100.5l-38 -100.5l-81 -212h-30l-39.5 105l-39.5 104l-73 199h-4v-570h-43v696h44l44.5 -118.5l43.5 -118.5l81 -223h3l83 224q3 7 10 25.5l15.5 42l18.5 50.5l19 50.5t15.5 42t9.5 25.5h43v-696h-42v575h-3z" />
    <glyph glyph-name="Phi" unicode="&#x3a6;" horiz-adv-x="481" 
d="M218 612q-27 -2 -51 -10.5t-42 -24t-28.5 -38t-10.5 -51.5v-262q0 -58 37 -92.5t95 -35.5v514zM261 98q59 1 96 35.5t37 92.5v262q0 29 -10.5 51.5t-28.5 38t-42.5 24t-51.5 10.5v-514zM261 0h-43v56q-36 2 -67.5 14t-55 34t-37.5 52.5t-14 69.5v262q0 39 15 69.5
t39.5 52t56 33t63.5 11.5v42h43v-42q33 -1 64.5 -12.5t56.5 -32.5t40 -51.5t15 -69.5v-262q0 -39 -15 -69.5t-39.5 -52.5t-56.5 -34t-65 -14v-56z" />
    <glyph glyph-name="Upsilondieresis" unicode="&#x3ab;" horiz-adv-x="350" 
d="M174 353l48 141l35 101l35 101h45l-143 -403v-293h-42v293l-143 403h44l70 -203l48 -140h3zM82 745v47h42v-47h-42zM228 745v47h41v-47h-41z" />
    <glyph glyph-name="Psi" unicode="&#x3a8;" horiz-adv-x="471" 
d="M431 316q0 -36 -14.5 -63.5t-39 -46.5t-56 -29t-64.5 -10v-167h-43v167q-34 0 -65 10t-55 29t-38 46.5t-14 63.5v379h42v-376q0 -28 10.5 -48.5t28.5 -34t41.5 -20.5t49.5 -8v487h43v-487q25 1 49 8t42 20.5t29 34t11 48.5v376h43v-379v0z" />
    <glyph glyph-name="Omega" unicode="&#x3a9;" horiz-adv-x="402" 
d="M313 41h54v-41h-115v47q62 28 62 101v401q0 52 -32 82.5t-82 30.5q-48 0 -80.5 -31.5t-32.5 -82.5v-402q0 -37 17 -62.5t43 -36.5v-47h-112v41h56v1q-20 13 -33.5 39.5t-13.5 79.5v391q1 35 13 62.5t32.5 47t48.5 30t62 10.5q68 0 111 -35t45 -106v-396q0 -17 -2 -35.5
t-7 -35t-13.5 -30.5t-20.5 -21v-2z" />
    <glyph glyph-name="alphatonos" unicode="&#x3ac;" horiz-adv-x="356" 
d="M171 455q-28 0 -50 -13.5t-33 -48.5q-5 -17 -6.5 -53.5t-1.5 -83.5q0 -25 0.5 -50.5t1.5 -48.5t3 -41.5t6 -28.5q9 -27 29 -40t49 -13q22 0 40.5 9.5t32 25t21 35t7.5 39.5v207q0 47 -27 76t-72 29zM161 496q41 0 65.5 -14t41.5 -39h2v46h42v-489h-42v57h-2
q-17 -30 -47.5 -46.5t-62.5 -16.5q-47 0 -72 19.5t-36 47.5q-9 26 -11.5 66t-2.5 82v60q0 26 0.5 53t3.5 58q3 35 16 57.5t30.5 35.5t37.5 18t37 5zM145 566l67 151l45 -17l-88 -144z" />
    <glyph glyph-name="Nu" unicode="&#x39d;" horiz-adv-x="431" 
d="M92 577v-577h-42v696h40l76 -178.5l76 -178.5l93 -222h4v579h42v-696h-41l-75.5 177.5l-75.5 177.5l-47.5 111l-46.5 111h-3z" />
    <glyph glyph-name="Omicron" unicode="&#x39f;" horiz-adv-x="403" 
d="M358 156q0 -81 -42.5 -122t-114.5 -41t-113.5 39t-41.5 115v391q0 75 39.5 119.5t116.5 44.5t116.5 -41t39.5 -119v-386zM315 546q0 52 -29.5 84.5t-83.5 32.5q-29 0 -50 -10.5t-35.5 -28t-21.5 -40.5t-7 -48v-390q0 -51 29.5 -82.5t83.5 -31.5q58 0 86 33t28 88v393z
" />
    <glyph glyph-name="Rho" unicode="&#x3a1;" horiz-adv-x="386" 
d="M188 696q52 0 86.5 -14.5t54 -40t27.5 -62t8 -79.5q0 -45 -8.5 -82.5t-29 -64t-55 -41.5t-86.5 -15h-90v-296h-43v695h136zM95 336h87q79 0 109.5 41.5t30.5 121.5q0 34 -6 63t-21.5 50t-42.5 33t-68 12h-89v-321z" />
    <glyph glyph-name="Tau" unicode="&#x3a4;" horiz-adv-x="319" 
d="M181 657v-657h-44v657h-132v39h308v-39h-132z" />
    <glyph glyph-name="Upsilon" unicode="&#x3a5;" horiz-adv-x="350" 
d="M174 353l48 141l35 101l35 101h45l-143 -403v-293h-42v293l-143 403h44l70 -203l48 -140h3z" />
    <glyph glyph-name="Chi" unicode="&#x3a7;" horiz-adv-x="347" 
d="M293 0l-120 304l-121 -304h-46l144 354l-140 341h47l116 -294l116 294h47l-142 -341l146 -354h-47z" />
    <glyph glyph-name="Alphatonos" unicode="&#x386;" horiz-adv-x="376" 
d="M325 0l-40 182h-194l-40 -182h-41l153 696h49l156 -696h-43zM187 634l-37 -174l-52 -238h179l-52 240l-36 172h-2zM-38 560l67 151l45 -17l-88 -144z" />
    <glyph glyph-name="Epsilontonos" unicode="&#x388;" horiz-adv-x="355" 
d="M52 0v696h284v-40h-241v-279h212v-39h-212v-298h241v-40h-284zM-95 560l67 151l45 -17l-88 -144z" />
    <glyph glyph-name="afii00208" unicode="&#x2015;" horiz-adv-x="1000" 
d="M20 241v42h961v-42h-961z" />
    <glyph glyph-name="Etatonos" unicode="&#x389;" horiz-adv-x="412" 
d="M317 0v337h-222v-337h-43v696h43v-320h222v320h43v-696h-43zM-94 560l67 151l45 -17l-88 -144z" />
    <glyph glyph-name="Iotatonos" unicode="&#x38a;" horiz-adv-x="174" 
d="M65 0v696h44v-696h-44zM-85 560l67 151l45 -17l-88 -144z" />
    <glyph glyph-name="Omicrontonos" unicode="&#x38c;" horiz-adv-x="403" 
d="M358 156q0 -81 -42.5 -122t-114.5 -41t-113.5 39t-41.5 115v391q0 75 39.5 119.5t116.5 44.5t116.5 -41t39.5 -119v-386zM315 546q0 52 -29.5 84.5t-83.5 32.5q-29 0 -50 -10.5t-35.5 -28t-21.5 -40.5t-7 -48v-390q0 -51 29.5 -82.5t83.5 -31.5q58 0 86 33t28 88v393z
M-78 560l67 151l45 -17l-88 -144z" />
    <glyph glyph-name="Upsilontonos" unicode="&#x38e;" horiz-adv-x="350" 
d="M174 353l48 141l35 101l35 101h45l-143 -403v-293h-42v293l-143 403h44l70 -203l48 -140h3zM-117 560l67 151l45 -17l-88 -144z" />
    <glyph glyph-name="epsilontonos" unicode="&#x3ad;" horiz-adv-x="332" 
d="M175 496q58 0 96.5 -32t38.5 -94q-11 -2 -22 -3.5t-22 -3.5q0 46 -25 69t-69 23q-36 0 -62.5 -22.5t-26.5 -72.5q0 -82 82 -82h57v-41h-59q-32 0 -57 -25t-25 -79q0 -30 8.5 -49.5t22 -31t31 -16t34.5 -4.5q41 0 65 24t24 67l44 -8q0 -30 -10.5 -53t-28.5 -38.5t-42 -23
t-51 -7.5q-72 0 -106.5 33.5t-34.5 105.5q0 41 16 74t54 48q-37 11 -52.5 38t-15.5 69q0 63 36 99t100 36zM146 566l67 151l45 -17l-88 -144z" />
    <glyph glyph-name="etatonos" unicode="&#x3ae;" horiz-adv-x="357" 
d="M85 435h2q17 29 45.5 45t62.5 16t57 -10t37 -28t20 -42t6 -52v-364h-44v351q0 21 -4 40t-14.5 32.5t-27.5 21.5t-43 8q-24 0 -42 -9t-30.5 -24.5t-19 -35.5t-6.5 -41v-343h-42v489h43v-54zM136 566l67 151l45 -17l-88 -144z" />
    <glyph glyph-name="iotatonos" unicode="&#x3af;" horiz-adv-x="164" 
d="M118 -4q-39 0 -51 15.5t-12 53.5v424h43v-420q0 -20 5.5 -24.5t19.5 -5.5l-1 -43h-4zM59 566l67 151l45 -17l-88 -144z" />
    <glyph glyph-name="omicrontonos" unicode="&#x3cc;" horiz-adv-x="349" 
d="M176 496q55 0 84 -21t40 -53q5 -13 7.5 -34.5t4 -47t1.5 -52v-49.5v-15q0 -26 -0.5 -53t-3.5 -59q-3 -35 -16.5 -58t-33 -36.5t-42.5 -19t-45 -5.5q-60 0 -89.5 24.5t-40.5 62.5q-3 12 -5 30.5t-3 40.5t-1 45v43q0 27 0.5 53.5t2 50.5t4.5 43.5t7 31.5q13 35 44 56.5
t85 21.5zM175 457q-26 0 -50 -10.5t-36 -40.5q-8 -20 -10 -62.5t-2 -98.5v-25q0 -48 1.5 -81t7.5 -51q9 -27 30.5 -41.5t58.5 -14.5q33 0 57 18t32 50q4 17 5.5 54t1.5 79q0 22 -0.5 47l-1 48t-2.5 41.5t-5 28.5q-9 30 -32.5 44.5t-54.5 14.5zM149 566l67 151l45 -17
l-88 -144z" />
    <glyph glyph-name="Omegatonos" unicode="&#x38f;" horiz-adv-x="402" 
d="M313 41h54v-41h-115v47q62 28 62 101v401q0 52 -32 82.5t-82 30.5q-48 0 -80.5 -31.5t-32.5 -82.5v-402q0 -37 17 -62.5t43 -36.5v-47h-112v41h56v1q-20 13 -33.5 39.5t-13.5 79.5v391q1 35 13 62.5t32.5 47t48.5 30t62 10.5q68 0 111 -35t45 -106v-396q0 -17 -2 -35.5
t-7 -35t-13.5 -30.5t-20.5 -21v-2zM-84 560l67 151l45 -17l-88 -144z" />
    <glyph glyph-name="upsilontonos" unicode="&#x3cd;" horiz-adv-x="349" 
d="M271 489h42v-265v-29t-0.5 -31.5t-1 -29t-1.5 -22.5q-3 -35 -16.5 -58t-32.5 -36.5t-42 -19t-45 -5.5q-61 0 -90.5 24.5t-40.5 62.5q-3 9 -4 27.5t-2 41.5t-1 46.5v43.5v249h43v-268q0 -48 1 -81t7 -51q9 -27 30.5 -41.5t58.5 -14.5q29 0 53.5 15.5t34.5 47.5q2 7 3.5 21
t2 32.5t1 40t0.5 44.5v256zM146 566l67 151l45 -17l-88 -144z" />
    <glyph glyph-name="alpha" unicode="&#x3b1;" horiz-adv-x="356" 
d="M171 455q-28 0 -50 -13.5t-33 -48.5q-5 -17 -6.5 -53.5t-1.5 -83.5q0 -25 0.5 -50.5t1.5 -48.5t3 -41.5t6 -28.5q9 -27 29 -40t49 -13q22 0 40.5 9.5t32 25t21 35t7.5 39.5v207q0 47 -27 76t-72 29zM161 496q41 0 65.5 -14t41.5 -39h2v46h42v-489h-42v57h-2
q-17 -30 -47.5 -46.5t-62.5 -16.5q-47 0 -72 19.5t-36 47.5q-9 26 -11.5 66t-2.5 82v60q0 26 0.5 53t3.5 58q3 35 16 57.5t30.5 35.5t37.5 18t37 5z" />
    <glyph glyph-name="beta" unicode="&#x3b2;" horiz-adv-x="349" 
d="M79 133q0 -19 4.5 -37t15 -31.5t27 -21.5t40.5 -8q37 0 58.5 15.5t32 42t13 61.5t2.5 74q0 44 -4 75.5t-14 51.5t-27.5 29.5t-44.5 9.5h-38v39h34q25 0 41 9.5t25.5 26t13 39.5t3.5 50q0 66 -23.5 96.5t-68.5 30.5q-43 0 -66.5 -27t-23.5 -65v-460zM37 594
q0 63 37.5 97.5t95.5 34.5q29 0 53.5 -9t42.5 -28.5t28.5 -51.5t10.5 -78q0 -56 -15 -92t-52 -48v-3q20 -7 35 -16t24.5 -28.5t14.5 -53.5t5 -90q0 -46 -4 -88.5t-18.5 -75t-42.5 -52t-76 -19.5q-35 0 -57 13t-38 36l-2 -1v-185h-42v738z" />
    <glyph glyph-name="psi" unicode="&#x3c8;" horiz-adv-x="438" 
d="M400 489v-361q0 -34 -13 -59.5t-35 -42t-51 -25t-61 -8.5v-190h-43v190q-33 0 -61.5 8.5t-50 25t-33.5 41.5t-12 60v361h42v-343q0 -51 26.5 -82t88.5 -32v457h43v-457q22 0 43 6t37.5 18t26.5 29.5t10 40.5v363h43z" />
    <glyph glyph-name="delta" unicode="&#x3b4;" horiz-adv-x="343" 
d="M314 289v-37.5t-1 -37.5q0 -25 -0.5 -49t-3.5 -53q-3 -35 -16.5 -58t-33 -36.5t-42.5 -19t-45 -5.5q-58 0 -87 21t-41 59q-4 13 -6 32t-3 41t-1 45v45q0 48 2.5 87t14.5 67q12 26 36 46.5t53 30.5q-46 30 -63 57.5t-17 64.5q0 30 8.5 54.5t27 42t48.5 27.5t74 10
q10 0 31.5 -1t42.5 -3l-3 -36q-17 2 -34 2.5t-29 0.5q-39 0 -63.5 -8t-37.5 -21.5t-17.5 -31t-4.5 -37.5q0 -29 22.5 -54t71.5 -51q39 -20 62 -38.5t35 -40t16 -49t4 -66.5zM180 442q-31 -7 -56 -25t-36 -46q-7 -20 -9 -48.5t-2 -80.5v-24q0 -51 2 -81.5t8 -50.5
q9 -26 30 -40t58 -14q32 0 56 16t33 51q5 17 6 49t2 73q0 12 0.5 24.5t0.5 24.5q0 26 -2.5 54.5t-10.5 48.5q-10 24 -28 41t-52 28z" />
    <glyph glyph-name="epsilon" unicode="&#x3b5;" horiz-adv-x="332" 
d="M175 496q58 0 96.5 -32t38.5 -94q-11 -2 -22 -3.5t-22 -3.5q0 46 -25 69t-69 23q-36 0 -62.5 -22.5t-26.5 -72.5q0 -82 82 -82h57v-41h-59q-32 0 -57 -25t-25 -79q0 -30 8.5 -49.5t22 -31t31 -16t34.5 -4.5q41 0 65 24t24 67l44 -8q0 -30 -10.5 -53t-28.5 -38.5t-42 -23
t-51 -7.5q-72 0 -106.5 33.5t-34.5 105.5q0 41 16 74t54 48q-37 11 -52.5 38t-15.5 69q0 63 36 99t100 36z" />
    <glyph glyph-name="phi" unicode="&#x3c6;" horiz-adv-x="436" 
d="M402 213q0 -23 -1.5 -48t-3.5 -47q-3 -34 -18 -57.5t-36.5 -38t-48.5 -21.5t-55 -8v-190h-43v190q-69 3 -104 30.5t-46 65.5q-3 12 -5 29.5t-3 38t-1 42v41.5q0 27 0.5 54t2 51.5t4.5 44t7 31.5q8 21 23 37.5t38 25.5l16 -38q-11 -6 -20 -15t-15 -24q-9 -21 -10 -67
t-2 -106v-12q0 -48 1.5 -79t7.5 -49q8 -30 38.5 -44t67.5 -18v463h56q63 0 94.5 -22.5t43.5 -54.5q4 -12 6.5 -33t4 -46t1.5 -51v-49v-26zM239 32q42 3 74 21t40 59q3 17 4.5 48.5t1.5 72.5q0 22 -0.5 46.5l-1 47t-2.5 41t-5 28.5q-10 35 -40 47.5t-71 13.5v-425z" />
    <glyph glyph-name="gamma" unicode="&#x3b3;" horiz-adv-x="319" 
d="M189 -195h-44v203l-52 205.5l-53 205.5q-5 18 -10 25.5t-17 7.5q-4 0 -7 -1l-3 39q13 3 24 3q26 0 37 -15.5t18 -42.5l42 -176t43 -169h4l47 196t52 203h44l-63.5 -237.5t-61.5 -242.5v-204z" />
    <glyph glyph-name="eta" unicode="&#x3b7;" horiz-adv-x="357" 
d="M85 435h2q17 29 45.5 45t62.5 16t57 -10t37 -28t20 -42t6 -52v-364h-44v351q0 21 -4 40t-14.5 32.5t-27.5 21.5t-43 8q-24 0 -42 -9t-30.5 -24.5t-19 -35.5t-6.5 -41v-343h-42v489h43v-54z" />
    <glyph glyph-name="iota" unicode="&#x3b9;" horiz-adv-x="164" 
d="M118 -4q-39 0 -51 15.5t-12 53.5v424h43v-420q0 -20 5.5 -24.5t19.5 -5.5l-1 -43h-4z" />
    <glyph glyph-name="xi" unicode="&#x3be;" horiz-adv-x="291" 
d="M36 545q0 36 5.5 68.5t21 57.5t43 39.5t71.5 14.5q55 0 88.5 -26t40.5 -75l-42 -13q-5 35 -28 55t-61 20q-21 0 -38.5 -7t-30 -23t-19.5 -42.5t-7 -65.5q0 -35 4 -60.5t15 -42t30.5 -24.5t51.5 -8h81v-38h-80q-31 0 -51 -10t-32 -31t-16.5 -54t-4.5 -79q0 -43 5.5 -69.5
t19.5 -43.5t38 -30t62 -29q47 -20 68 -35t21 -43q0 -21 -13 -47.5t-36 -60.5l-33 20q18 29 26 47t8 30q0 20 -28 34.5t-68 31.5q-34 14 -55.5 29.5t-34 37.5t-17.5 53t-5 75q0 38 2.5 69.5t10.5 55.5t22.5 40.5t38.5 25.5v2q-25 6 -39.5 20.5t-22 34.5t-10 45t-2.5 51z" />
    <glyph glyph-name="kappa" unicode="&#x3ba;" horiz-adv-x="345" 
d="M84 200h1l182 288h47l-114 -180l139 -308h-48l-118 268l-89 -141v-127h-42v488h42v-288z" />
    <glyph glyph-name="lambda" unicode="&#x3bb;" horiz-adv-x="325" 
d="M53 721q15 3 25 3q25 0 41.5 -11.5t24.5 -42.5q2 -7 8.5 -34.5l16.5 -68.5l22 -91.5l24 -102.5l24 -102.5l21.5 -91.5l16 -69t8.5 -35q5 -20 11 -29.5t22 -9.5v-37q-5 -1 -7 -1h-6q-25 0 -37.5 13t-20.5 45q-2 10 -8 36.5t-14.5 60.5t-17 72t-17 72t-14.5 60.5t-8 36.5
h-2l-116 -394h-44l142 472l-36 158q-7 29 -16 41t-32 12h-8z" />
    <glyph glyph-name="nu" unicode="&#x3bd;" horiz-adv-x="310" 
d="M130 0l-63 244.5l-62 244.5h45l27 -107l26 -107l24.5 -102l25.5 -102h3l24.5 102.5l25.5 102.5q14 54 26 106.5l25 106.5h46l-126 -489h-47z" />
    <glyph glyph-name="omicron" unicode="&#x3bf;" horiz-adv-x="349" 
d="M176 496q55 0 84 -21t40 -53q5 -13 7.5 -34.5t4 -47t1.5 -52v-49.5v-15q0 -26 -0.5 -53t-3.5 -59q-3 -35 -16.5 -58t-33 -36.5t-42.5 -19t-45 -5.5q-60 0 -89.5 24.5t-40.5 62.5q-3 12 -5 30.5t-3 40.5t-1 45v43q0 27 0.5 53.5t2 50.5t4.5 43.5t7 31.5q13 35 44 56.5
t85 21.5zM175 457q-26 0 -50 -10.5t-36 -40.5q-8 -20 -10 -62.5t-2 -98.5v-25q0 -48 1.5 -81t7.5 -51q9 -27 30.5 -41.5t58.5 -14.5q33 0 57 18t32 50q4 17 5.5 54t1.5 79q0 22 -0.5 47l-1 48t-2.5 41.5t-5 28.5q-9 30 -32.5 44.5t-54.5 14.5z" />
    <glyph glyph-name="omegatonos" unicode="&#x3ce;" horiz-adv-x="537" 
d="M374 -6q-32 0 -62 15t-44 45h-3q-14 -31 -43 -46t-61 -15q-57 0 -83.5 24.5t-37.5 62.5q-5 18 -6 54t-1 71q0 29 0.5 61.5t2 62t4 54t7.5 38.5q11 31 36.5 50.5t69.5 24.5v-41q-20 -3 -37.5 -14.5t-27.5 -34.5q-8 -21 -10 -67t-2 -106v-13q0 -48 1 -81.5t7 -51.5
q9 -26 29 -41t49 -15q39 0 61 26.5t22 64.5v204h43v-204q0 -37 23 -64t65 -27q29 0 49 14.5t27 46.5q4 17 6 55t2 80q0 25 -0.5 51.5t-1.5 50t-3.5 42.5t-5.5 29q-5 23 -23 37t-41 18v41q45 -5 69 -25.5t35 -49.5q5 -14 7.5 -34.5t4 -44.5t2 -49.5t0.5 -49.5v-25
q0 -29 -2 -58.5t-5 -57.5q-7 -57 -38 -82.5t-84 -25.5zM238 566l67 151l45 -17l-88 -144z" />
    <glyph glyph-name="rho" unicode="&#x3c1;" horiz-adv-x="349" 
d="M173 33q30 0 55 15t35 47q2 7 3.5 21t2.5 32.5t1.5 40t0.5 44.5q0 22 -0.5 47l-1 48t-2.5 41.5t-5 28.5q-9 30 -33 44.5t-56 14.5q-47 0 -70.5 -28t-23.5 -70l-1 -147l1 -84q1 -38 23.5 -66.5t70.5 -28.5zM182 -6q-32 0 -58 12t-43 36h-2v-239h-43v427v72.5t2 69.5
q2 57 36 90.5t101 33.5q56 0 85.5 -21t40.5 -53q4 -13 6.5 -34.5t4 -46.5t1.5 -52v-50v-15q0 -26 -0.5 -52.5t-2.5 -55.5q-3 -31 -14 -54t-28 -38t-39 -22.5t-47 -7.5z" />
    <glyph glyph-name="sigma" unicode="&#x3c3;" horiz-adv-x="354" 
d="M272 450q12 -6 18.5 -15.5t10.5 -19.5q4 -12 7 -32.5t4.5 -44.5t2 -50t0.5 -49v-15q0 -26 -1 -53t-4 -59q-3 -35 -16.5 -58t-33 -36.5t-42.5 -19t-45 -5.5q-60 0 -89.5 24.5t-40.5 62.5q-3 12 -5 30.5t-3 40.5t-1 45v43q0 53 3 101t11 71q13 35 44 56.5t85 21.5h168v-37
h-72zM176 450q-26 0 -50 -10.5t-36 -40.5q-8 -20 -10 -59t-2 -95v-25q0 -48 1.5 -81t7.5 -51q9 -27 30.5 -41.5t58.5 -14.5q33 0 57 18t32 50q4 17 5.5 54t1.5 79q0 22 -0.5 46t-1 45.5t-2.5 39t-5 27.5q-9 30 -32.5 44.5t-54.5 14.5z" />
    <glyph glyph-name="tau" unicode="&#x3c4;" horiz-adv-x="231" 
d="M9 452v37h215v-37h-92v-336q0 -37 16.5 -57t53.5 -20h10v-39h-17q-51 0 -78.5 28.5t-27.5 82.5v341h-80z" />
    <glyph glyph-name="theta" unicode="&#x3b8;" horiz-adv-x="348" 
d="M312 225q0 -27 -0.5 -54t-3.5 -58q-3 -35 -16.5 -58.5t-32.5 -37t-41.5 -19t-44.5 -5.5q-61 0 -90 24.5t-40 62.5q-3 12 -4.5 30.5t-2 40.5t-0.5 45v43v230q0 27 0.5 54t1.5 52t3.5 44.5t7.5 31.5q12 35 42.5 55t84.5 20q56 0 84 -21.5t40 -52.5q5 -16 7.5 -38t3.5 -46.5
t1 -50.5v-49v-243zM88 88q8 -26 29 -41t58 -15q29 0 53 15.5t33 47.5q2 7 4 21t3 33t1.5 40.5t0.5 43.5v124h-191v-136q0 -48 1.5 -81t7.5 -52zM270 463q0 22 -0.5 47t-1.5 48t-2.5 41.5t-4.5 28.5q-9 30 -32 44t-54 14q-25 0 -48.5 -10.5t-36.5 -40.5q-8 -21 -9.5 -66.5
t-1.5 -106.5v-69h191v70z" />
    <glyph glyph-name="omega" unicode="&#x3c9;" horiz-adv-x="537" 
d="M374 -6q-32 0 -62 15t-44 45h-3q-14 -31 -43 -46t-61 -15q-57 0 -83.5 24.5t-37.5 62.5q-5 18 -6 54t-1 71q0 29 0.5 61.5t2 62t4 54t7.5 38.5q11 31 36.5 50.5t69.5 24.5v-41q-20 -3 -37.5 -14.5t-27.5 -34.5q-8 -21 -10 -67t-2 -106v-13q0 -48 1 -81.5t7 -51.5
q9 -26 29 -41t49 -15q39 0 61 26.5t22 64.5v204h43v-204q0 -37 23 -64t65 -27q29 0 49 14.5t27 46.5q4 17 6 55t2 80q0 25 -0.5 51.5t-1.5 50t-3.5 42.5t-5.5 29q-5 23 -23 37t-41 18v41q45 -5 69 -25.5t35 -49.5q5 -14 7.5 -34.5t4 -44.5t2 -49.5t0.5 -49.5v-25
q0 -29 -2 -58.5t-5 -57.5q-7 -57 -38 -82.5t-84 -25.5z" />
    <glyph glyph-name="sigma1" unicode="&#x3c2;" horiz-adv-x="317" 
d="M180 496q63 0 96.5 -32.5t33.5 -92.5q-11 -2 -22 -3.5t-22 -3.5q0 44 -22.5 68.5t-66.5 24.5q-24 0 -47 -11.5t-35 -41.5q-8 -18 -10 -63t-2 -105v-58q0 -25 4 -42.5t13.5 -31.5t25 -25.5t37.5 -24.5l53.5 -29.5t34 -21.5t18 -21t5.5 -29q0 -13 -5 -27t-12.5 -28.5
t-16.5 -27.5l-16 -23l-33 20q17 27 26.5 45t9.5 33q0 25 -33 43l-67.5 36t-47.5 31.5t-28.5 39.5t-9.5 60v86q0 68 3.5 116.5t17.5 79t41.5 45t76.5 14.5z" />
    <glyph glyph-name="chi" unicode="&#x3c7;" horiz-adv-x="295" 
d="M242 0l-94 212l-95 -212h-47l116 251l-109 238h48l87 -201l88 201h49l-111 -238l116 -251h-48z" />
    <glyph glyph-name="upsilon" unicode="&#x3c5;" horiz-adv-x="349" 
d="M271 489h42v-265v-29t-0.5 -31.5t-1 -29t-1.5 -22.5q-3 -35 -16.5 -58t-32.5 -36.5t-42 -19t-45 -5.5q-61 0 -90.5 24.5t-40.5 62.5q-3 9 -4 27.5t-2 41.5t-1 46.5v43.5v249h43v-268q0 -48 1 -81t7 -51q9 -27 30.5 -41.5t58.5 -14.5q29 0 53.5 15.5t34.5 47.5q2 7 3.5 21
t2 32.5t1 40t0.5 44.5v256z" />
    <glyph glyph-name="zeta" unicode="&#x3b6;" horiz-adv-x="317" 
d="M254 450h-216v38h275v-39q-112 -87 -176 -168t-64 -143q0 -18 5.5 -31.5t17.5 -24t31 -20.5t46 -21q30 -12 52.5 -22t37 -19.5t21.5 -21.5t7 -29q0 -23 -14 -46t-42 -56l-30 20q19 28 28.5 44.5t9.5 29.5q0 15 -12.5 25.5t-36.5 19.5q-39 14 -69.5 26.5t-51.5 28.5
t-32 38t-11 55q0 30 12 65.5t39 75t69.5 83t103.5 89.5v3z" />
    <glyph glyph-name="iotadieresis" unicode="&#x3ca;" horiz-adv-x="164" 
d="M118 -4q-39 0 -51 15.5t-12 53.5v424h43v-420q0 -20 5.5 -24.5t19.5 -5.5l-1 -43h-4zM132 585v48h42v-48h-42zM-14 585v48h42v-48h-42z" />
    <glyph glyph-name="upsilondieresis" unicode="&#x3cb;" horiz-adv-x="349" 
d="M271 489h42v-265v-29t-0.5 -31.5t-1 -29t-1.5 -22.5q-3 -35 -16.5 -58t-32.5 -36.5t-42 -19t-45 -5.5q-61 0 -90.5 24.5t-40.5 62.5q-3 9 -4 27.5t-2 41.5t-1 46.5v43.5v249h43v-268q0 -48 1 -81t7 -51q9 -27 30.5 -41.5t58.5 -14.5q29 0 53.5 15.5t34.5 47.5q2 7 3.5 21
t2 32.5t1 40t0.5 44.5v256zM225 585v48h42v-48h-42zM79 585v48h42v-48h-42z" />
    <glyph glyph-name="iotadieresistonos" unicode="&#x390;" horiz-adv-x="164" 
d="M118 -4q-39 0 -51 15.5t-12 53.5v424h43v-420q0 -20 5.5 -24.5t19.5 -5.5l-1 -43h-4zM149 585v48h41v-48h-41zM-20 585v48h42v-48h-42zM44 566l67 151l46 -17l-88 -144z" />
    <glyph glyph-name="upsilondieresistonos" unicode="&#x3b0;" horiz-adv-x="349" 
d="M271 489h42v-265v-29t-0.5 -31.5t-1 -29t-1.5 -22.5q-3 -35 -16.5 -58t-32.5 -36.5t-42 -19t-45 -5.5q-61 0 -90.5 24.5t-40.5 62.5q-3 9 -4 27.5t-2 41.5t-1 46.5v43.5v249h43v-268q0 -48 1 -81t7 -51q9 -27 30.5 -41.5t58.5 -14.5q29 0 53.5 15.5t34.5 47.5q2 7 3.5 21
t2 32.5t1 40t0.5 44.5v256zM239 585v48h41v-48h-41zM70 585v48h42v-48h-42zM134 566l67 151l46 -17l-88 -144z" />
    <glyph glyph-name="Euro" unicode="&#x20ac;" horiz-adv-x="353" 
d="M15 320h36v73h-36v29h36v123q0 75 38.5 116t105.5 41q59 0 99 -30.5t45 -93.5l-42 -8q-5 48 -33 70t-69 22q-48 0 -75 -31t-27 -84v-125h172v-29h-172v-73h172v-30h-172v-149q0 -51 28 -79.5t74 -28.5q40 0 68.5 21.5t33.5 70.5l44 -7q-3 -33 -16 -56.5t-32.5 -38.5
t-44.5 -22.5t-53 -7.5q-30 0 -56.5 8.5t-46 26.5t-30.5 46t-11 66v150h-36v30z" />
    <glyph glyph-name="logicalnot" unicode="&#xac;" horiz-adv-x="353" 
d="M335 117h-35v158h-284v36h319v-194z" />
    <glyph glyph-name="space" unicode=" " horiz-adv-x="172" 
 />
    <glyph glyph-name="acute" unicode="&#xb4;" horiz-adv-x="342" 
d="M146 566l67 151l45 -17l-88 -144z" />
    <glyph glyph-name="cedilla" unicode="&#xb8;" horiz-adv-x="431" 
d="M197 8l-18 -71q23 -2 38.5 -9.5t24.5 -18t12.5 -22.5t3.5 -22q0 -26 -18 -48.5t-58 -22.5q-15 0 -35 2.5t-40 13.5l10 24q17 -8 31.5 -10t26.5 -2q21 0 35 10.5t14 31.5q0 20 -15 33.5t-47 13.5l-16 12l24 87z" />
    <glyph glyph-name="AE" unicode="&#xc6;" horiz-adv-x="623" 
d="M321 191h-193l-80 -191h-44l290 696h311v-40h-241v-279h212v-39h-212v-298h241v-40h-284v191zM144 231h177v424h-2z" />
    <glyph glyph-name="Ccedilla" unicode="&#xc7;" horiz-adv-x="383" 
d="M199 702q32 0 60 -9t48.5 -27.5t32 -46.5t11.5 -66l-43 -9q0 62 -30.5 90t-78.5 28q-55 0 -82.5 -34.5t-27.5 -87.5v-392q0 -51 27.5 -83t82.5 -32q22 0 41.5 6.5t34.5 20.5t24 36.5t9 54.5l43 -8q-1 -73 -39.5 -108.5t-94.5 -40.5l-14 -57q23 -2 38.5 -9.5t24.5 -18
t12.5 -22.5t3.5 -22q0 -26 -18 -48.5t-58 -22.5q-15 0 -35 2.5t-40 13.5l10 24q17 -8 31.5 -10t26.5 -2q21 0 35 10.5t14 31.5q0 20 -15 33.5t-47 13.5l-16 12l19 70q-67 3 -105 41t-38 113v390q0 75 37.5 120t115.5 45z" />
    <glyph glyph-name="Ntilde" unicode="&#xd1;" horiz-adv-x="431" 
d="M92 577v-577h-42v696h40l76 -178.5l76 -178.5l93 -222h4v579h42v-696h-41l-75.5 177.5l-75.5 177.5l-47.5 111l-46.5 111h-3zM350 802q-12 -32 -33.5 -47t-41.5 -15q-15 0 -29.5 6t-28.5 13t-27.5 13t-26.5 6q-12 0 -24.5 -9.5t-23.5 -25.5l-24 15q12 25 31 41t40 16
q15 0 29 -6t27.5 -13t27.5 -13t30 -6q28 0 51 39z" />
    <glyph glyph-name="multiply" unicode="&#xd7;" horiz-adv-x="380" 
d="M189 270l-134 -134l-25 26l134 133l-122 122l25 25l123 -122l131 133l25 -26l-132 -131l127 -127l-25 -26z" />
    <glyph glyph-name="ae" unicode="&#xe6;" horiz-adv-x="561" 
d="M396 -7q-43 0 -74 16.5t-47 46.5q-17 -23 -34 -35.5t-33.5 -18.5t-31.5 -7t-27 -1q-36 0 -60 11.5t-38.5 30.5t-20.5 44t-6 52q0 28 7 55.5t22.5 49.5t42 36t65.5 14h96v78q0 40 -20 66t-73 26q-33 0 -55.5 -15.5t-30.5 -41.5l-41 14q14 38 46 60.5t83 22.5q90 0 115 -56
q18 28 48.5 42t69.5 14q64 0 100 -34.5t36 -98.5v-116h-233v-25.5v-43.5t0.5 -42t1.5 -22q2 -34 26.5 -58t66.5 -24q44 0 66.5 26t26.5 61l42 -9q-6 -55 -41.5 -86.5t-94.5 -31.5zM257 249h-87q-44 0 -74 -26.5t-30 -90.5q0 -19 5 -37t16 -31.5t29 -21.5t44 -8q42 0 69.5 24
t27.5 69v122zM491 286v72q0 42 -22.5 70t-72.5 28q-40 0 -63 -21.5t-28 -58.5q-1 -2 -1.5 -14.5t-1 -27.5t-0.5 -28.5v-19.5h189z" />
    <glyph glyph-name="eth" unicode="&#xf0;" horiz-adv-x="353" 
d="M173 476q9 0 22 -2t27 -7.5t27.5 -15.5t22.5 -25h1q0 14 -0.5 27.5t-0.5 27.5q0 30 -4.5 59t-14.5 52l-37.5 -26l-38.5 -26l-17 25l79 55q-10 15 -26 29q-18 17 -46 29t-62 17l5 37q47 -5 80 -19.5t53 -32.5q9 -8 17 -17t14 -19l62 43l18 -24l-65 -45q14 -32 19 -73.5
t5 -97.5l2 -165v-60.5t-1 -44.5t-2.5 -34t-2.5 -30q-3 -35 -16.5 -58t-33 -37t-42.5 -19.5t-45 -5.5q-60 0 -89 27t-40 65q-3 10 -4.5 27.5t-2.5 38.5t-1.5 43.5t-0.5 42.5v25q1 44 4 77.5t11 56.5q12 33 43 56t81 24zM176 437q-62 0 -88 -58q-3 -9 -5 -19t-3 -24t-2 -32.5
t-1 -44.5v-40q0 -48 1.5 -80.5t7.5 -50.5q9 -27 30.5 -42t58.5 -15q33 0 56.5 18.5t32.5 50.5q4 17 5.5 53t1.5 78v72q0 19 -1 36.5t-6 31.5q-8 29 -28.5 47.5t-59.5 18.5z" />
    <glyph glyph-name="otilde" unicode="&#xf5;" horiz-adv-x="349" 
d="M176 496q55 0 84 -21t40 -53q5 -13 7.5 -34.5t4 -47t1.5 -52v-49.5v-15q0 -26 -0.5 -53t-3.5 -59q-3 -35 -16.5 -58t-33 -36.5t-42.5 -19t-45 -5.5q-60 0 -89.5 24.5t-40.5 62.5q-3 12 -5 30.5t-3 40.5t-1 45v43q0 27 0.5 53.5t2 50.5t4.5 43.5t7 31.5q13 35 44 56.5
t85 21.5zM175 457q-26 0 -50 -10.5t-36 -40.5q-8 -20 -10 -62.5t-2 -98.5v-25q0 -48 1.5 -81t7.5 -51q9 -27 30.5 -41.5t58.5 -14.5q33 0 57 18t32 50q4 17 5.5 54t1.5 79q0 22 -0.5 47l-1 48t-2.5 41.5t-5 28.5q-9 30 -32.5 44.5t-54.5 14.5zM312 635q-12 -32 -33.5 -47
t-41.5 -15q-15 0 -29.5 6t-28.5 13t-27.5 13t-26.5 6q-12 0 -24.5 -9.5t-23.5 -25.5l-24 15q12 25 31 41t40 16q15 0 29 -6t27.5 -13t27.5 -13t30 -6q28 0 51 39z" />
    <glyph glyph-name="dotlessi" unicode="&#x131;" horiz-adv-x="155" 
d="M55 0v489h43v-489h-43z" />
    <glyph glyph-name="florin" unicode="&#x192;" horiz-adv-x="353" 
d="M86 406h81l15 128q9 76 38.5 121t95.5 45q24 0 48 -8l-10 -38q-9 3 -19.5 5t-19.5 2q-34 0 -59.5 -27.5t-33.5 -100.5l-15 -127h92v-38h-97l-32 -276q-11 -95 -42.5 -140t-92.5 -45q-11 0 -24 1.5t-25 5.5l12 36q18 -5 34 -5q41 0 64 32t33 113l34 278h-77v38z" />
    <glyph glyph-name="circumflex" unicode="&#x2c6;" horiz-adv-x="343" 
d="M171 648l-110 -97l-19 16l115 123h31l111 -121l-20 -17z" />
    <glyph glyph-name="caron" unicode="&#x2c7;" horiz-adv-x="342" 
d="M285 689l19 -17l-110 -120h-32l-115 122l19 16l110 -97z" />
    <glyph glyph-name="breve" unicode="&#x2d8;" horiz-adv-x="343" 
d="M92 669q5 -32 28.5 -54t54.5 -22q32 0 55.5 20.5t28.5 55.5h36q-2 -19 -10 -38.5t-23 -36t-36.5 -27t-50.5 -10.5q-30 0 -51.5 10.5t-36 27t-22 36.5t-9.5 38h36z" />
    <glyph glyph-name="tilde" unicode="&#x2dc;" horiz-adv-x="362" 
d="M310 635q-12 -32 -33.5 -47t-41.5 -15q-15 0 -29.5 6t-28.5 13t-27.5 13t-26.5 6q-12 0 -24.5 -9.5t-23.5 -25.5l-24 15q12 25 31 41t40 16q15 0 29 -6t27.5 -13t27.5 -13t30 -6q28 0 51 39z" />
    <glyph glyph-name="Acute" unicode="&#xf6c9;" horiz-adv-x="336" 
d="M143 748l128 105l32 -36l-143 -89z" />
    <glyph glyph-name="Dieresis" unicode="&#xf6cb;" horiz-adv-x="372" 
d="M238 745v47h41v-47h-41zM92 745v47h42v-47h-42z" />
    <glyph glyph-name="Circumflex" unicode="&#xf6c0;" horiz-adv-x="367" 
d="M187 811l-110 -77l-19 16l115 103h32l110 -101l-19 -17z" />
    <glyph glyph-name="commaaccent" unicode="&#xf6c3;" horiz-adv-x="395" 
d="M195 -202h-26q5 21 9.5 42.5t9.5 42.5h-13v56h53v-56z" />
    <glyph glyph-name="Caron" unicode="&#xf6ca;" horiz-adv-x="367" 
d="M295 852l19 -17l-110 -100h-32l-114 102l18 16l110 -77z" />
    <glyph glyph-name="DieresisAcute" unicode="&#xf6cc;" horiz-adv-x="367" 
d="M122 742l109 124l39 -30l-126 -110zM250 757v48h41v-48h-41zM81 757v48h42v-48h-42z" />
    <glyph glyph-name="DieresisGrave" unicode="&#xf6cd;" horiz-adv-x="367" 
d="M227 726l-126 110l39 30l109 -124zM80 757v48h41v-48h-41zM248 757v48h42v-48h-42z" />
    <glyph glyph-name="Grave" unicode="&#xf6ce;" horiz-adv-x="376" 
d="M192 728l-144 90l33 36l128 -106z" />
    <glyph glyph-name="Hungarumlaut" unicode="&#xf6cf;" horiz-adv-x="414" 
d="M117 748l124 105l33 -36l-140 -89zM227 748l124 105l33 -36l-140 -89z" />
    <glyph glyph-name="cyrBreve" unicode="&#xf6d1;" horiz-adv-x="376" 
d="M104 849q5 -32 28.5 -54.5t54.5 -22.5q32 0 55.5 21t28.5 56h37q-3 -19 -11 -38.5t-23 -36t-36.5 -27t-50.5 -10.5q-30 0 -51.5 10.5t-36 27t-22 36t-9.5 38.5h36z" />
    <glyph glyph-name="cyrbreve" unicode="&#xf6d4;" horiz-adv-x="343" 
d="M90 669q5 -32 28.5 -54t54.5 -22q32 0 55.5 20.5t28.5 55.5h36q-3 -19 -11 -38.5t-22.5 -36t-36 -27t-50.5 -10.5q-30 0 -52 10.5t-36.5 27t-22 36.5t-9.5 38h37z" />
    <glyph glyph-name="quotesinglbase" unicode="&#x201a;" horiz-adv-x="135" 
d="M62 -94h-26q5 23 9.5 46t9.5 46h-13v55h53v-54z" />
    <glyph glyph-name="quotedblbase" unicode="&#x201e;" horiz-adv-x="214" 
d="M63 -94h-27l20 92h-13v56h53v-56zM174 -2l-16 -46l-16 -46h-27q5 23 9.5 46t9.5 46h-13v56h53v-56z" />
    <glyph glyph-name="daggerdbl" unicode="&#x2021;" horiz-adv-x="333" 
d="M143 415h-138v41h138v233h43v-233h139v-41h-139v-232h139v-40h-139v-328h-43v328h-138v40h138v232z" />
    <glyph glyph-name="emdash" unicode="&#x2014;" horiz-adv-x="1000" 
d="M20 241v42h961v-42h-961z" />
    <glyph glyph-name="guilsinglright" unicode="&#x203a;" horiz-adv-x="218" 
d="M38 46l105 186l-105 186h43l107 -186l-107 -186h-43z" />
    <glyph glyph-name="exclamdown" unicode="&#xa1;" horiz-adv-x="199" 
d="M117 330l5 -534h-46l5 534h36zM124 491v-50h-49v50h49z" />
    <glyph glyph-name="questiondown" unicode="&#xbf;" horiz-adv-x="343" 
d="M186 -212q-42 0 -71 12t-46.5 33t-25 50t-7.5 63q0 25 2 43t5.5 32t8 25t10.5 22q22 37 39 62t27.5 45t16 38.5t5.5 42.5v72h41v-81q0 -27 -10 -54t-24.5 -52.5t-30 -48.5t-26.5 -41q-14 -24 -16.5 -49t-2.5 -53q0 -57 24 -88.5t81 -31.5q38 0 68.5 27t32.5 83l43 -6
q-3 -69 -43 -107t-101 -38zM194 489v-50h-48v50h48z" />
    <glyph glyph-name="brokenbar" unicode="&#xa6;" horiz-adv-x="176" 
d="M74 303v413h33v-413h-33zM107 249v-411h-33v411h33z" />
    <glyph glyph-name="dotaccent" unicode="&#x2d9;" horiz-adv-x="343" 
d="M161 589v48h41v-48h-41z" />
    <glyph glyph-name="ring" unicode="&#x2da;" horiz-adv-x="343" 
d="M179 550q-33 0 -56.5 24t-23.5 57q0 35 23.5 58.5t56.5 23.5t56.5 -23.5t23.5 -58.5q0 -33 -23.5 -57t-56.5 -24zM179 686q-22 0 -37.5 -16t-15.5 -39t15.5 -39t37.5 -16t37.5 16t15.5 39t-15.5 39t-37.5 16z" />
    <glyph glyph-name="ogonek" unicode="&#x2db;" horiz-adv-x="354" 
d="M243 -93q0 19 9.5 44.5t29.5 51.5l31 -2l1 -1q-17 -21 -27 -45t-10 -41q0 -29 12.5 -40.5t31.5 -11.5q11 0 23.5 3t25.5 12l11 -30q-12 -9 -30 -15t-35 -6q-33 0 -53 23t-20 58z" />
    <glyph glyph-name="hungarumlaut" unicode="&#x2dd;" horiz-adv-x="343" 
d="M109 566l66 151l46 -17l-88 -144zM195 566l66 151l46 -17l-88 -144z" />
    <glyph glyph-name="guilsinglleft" unicode="&#x2039;" horiz-adv-x="218" 
d="M145 46l-107 186l107 186h44l-106 -186l106 -186h-44z" />
    <glyph glyph-name="currency" unicode="&#xa4;" horiz-adv-x="493" 
d="M65 476l27 28l53 -54q43 37 102 37q56 0 101 -36l52 53l27 -28l-52 -52q36 -45 36 -102q0 -56 -36 -100l10 -10l16.5 -17t16.5 -16.5t10 -9.5l-14 -14l-14 -14l-52 53q-43 -35 -101 -35q-29 0 -54.5 9t-47.5 26l-10 -10l-17 -17l-16.5 -17t-9.5 -10l-17 17.5t-11 10.5
l54 54q-35 43 -35 100q0 58 35 102zM123 322q0 -26 9.5 -48.5t27 -39.5t40 -27t48.5 -10q25 0 48 10t40 27t27 39.5t10 48.5t-10 49t-27 40t-39.5 27t-48.5 10t-48.5 -10t-40 -27t-27 -40t-9.5 -49z" />
    <glyph glyph-name="cent" unicode="&#xa2;" horiz-adv-x="353" 
d="M153 453q-17 -3 -33.5 -14.5t-24.5 -34.5q-8 -22 -9.5 -66.5t-1.5 -104.5v-13q0 -18 0.5 -37l1 -37t2.5 -33t5 -24q8 -24 25 -39t45 -18v-38q-54 3 -80 28.5t-34 57.5q-5 20 -6.5 56.5t-1.5 72.5q0 29 0.5 60t1.5 59t3.5 52t7.5 39q10 32 37 52t72 24v-39zM178 457
q2 0 4.5 -0.5t4.5 -0.5v-424h-10h-14v424q5 1 15 1zM311 367l-45 -7q0 45 -19.5 69.5t-59.5 26.5v40q60 -2 92 -35t32 -94zM206 36q58 12 60 91l44 -8q-2 -60 -34 -91.5t-89 -34.5v39q5 0 9.5 1t9.5 3zM181 496q-5 0 -9 -0.5t-9 -0.5v111h24v-110h-6zM163 -114v108
q4 -1 13 -1h11v-107h-24z" />
    <glyph glyph-name="paragraph" unicode="&#xb6;" horiz-adv-x="404" 
d="M217 676v-757h-44v440q-25 0 -47 8q-47 11 -73.5 58.5t-26.5 115.5q0 36 7 69.5t24.5 58.5t46 40t71.5 15h201v-48h-50v-757h-44v757h-65z" />
    <glyph glyph-name="Scaron" unicode="&#x160;" horiz-adv-x="378" 
d="M347 182q0 -43 -8 -78t-26 -59.5t-48 -38t-75 -13.5q-42 0 -71.5 11.5t-48.5 31.5t-27.5 47t-9.5 59l44 9q0 -23 6 -44.5t19.5 -37.5t35 -25.5t52.5 -9.5q37 0 59.5 12t34.5 32t15.5 47t3.5 56q0 35 -3.5 58.5t-15 41t-34 32t-61.5 31.5q-50 22 -80 43t-45.5 42.5
t-20 45.5t-4.5 53q0 38 9 70t28 55t48 36t70 13q45 0 74.5 -13t47 -34t24.5 -46.5t7 -50.5l-44 -11q0 24 -5.5 44.5t-18.5 36t-34.5 24.5t-52.5 9q-34 0 -55.5 -12.5t-33.5 -32t-16 -42.5t-4 -45q0 -26 5 -45.5t19 -36.5t40 -33t70 -35q45 -19 71 -38.5t39 -42t16.5 -51
t3.5 -65.5zM295 852l19 -17l-110 -100h-32l-114 102l18 16l110 -77z" />
    <glyph glyph-name="Zcaron" unicode="&#x17d;" horiz-adv-x="304" 
d="M289 657l-234 -617h223v-40h-266v39l234 618h-215v39h258v-39zM272 852l19 -17l-110 -100h-32l-114 102l18 16l110 -77z" />
    <glyph glyph-name="scaron" unicode="&#x161;" horiz-adv-x="322" 
d="M69 125q0 -42 23.5 -67t65.5 -25q53 0 73 25t20 70q0 22 -3.5 37.5t-13.5 28t-28 23t-48 21.5q-39 15 -64 30t-38.5 31.5t-18.5 34.5t-5 38q0 55 32 90t101 35q63 0 97.5 -32.5t34.5 -93.5l-45 -7q0 45 -23.5 69t-65.5 24q-26 0 -43 -7.5t-26.5 -19.5t-13.5 -27t-4 -31
t4 -29t15.5 -24.5t32.5 -22.5t54 -23q38 -14 60 -29t33.5 -32.5t15 -38t3.5 -44.5q0 -30 -7 -55t-23 -43t-41.5 -28t-62.5 -10q-64 0 -98.5 31t-36.5 94zM277 689l19 -17l-110 -120h-32l-115 122l19 16l110 -97z" />
    <glyph glyph-name="zcaron" unicode="&#x17e;" horiz-adv-x="281" 
d="M267 451l-206 -412h201v-39h-248v39l206 412h-186v37h233v-37zM261 689l19 -17l-110 -120h-32l-115 122l19 16l110 -97z" />
    <glyph glyph-name="Ydieresis" unicode="&#x178;" horiz-adv-x="350" 
d="M174 353l48 141l35 101l35 101h45l-143 -403v-293h-42v293l-143 403h44l70 -203l48 -140h3zM81 745v47h42v-47h-42zM227 745v47h41v-47h-41z" />
    <glyph glyph-name="macron" unicode="&#xaf;" horiz-adv-x="343" 
d="M75 589v39h207v-39h-207z" />
    <glyph glyph-name="Macron" unicode="&#xf6d0;" horiz-adv-x="376" 
d="M84 751v38h207v-38h-207z" />
    <glyph glyph-name="thorn" unicode="&#xfe;" horiz-adv-x="349" 
d="M178 454q-45 0 -72 -29t-27 -76v-202q0 -22 6 -42.5t18 -36t30 -25t42 -9.5q30 0 53 16t31 47q3 10 4.5 27.5t2.5 39t1 45v46.5q0 47 -1.5 83.5t-6.5 53.5q-10 35 -30 48.5t-51 13.5zM188 495q18 0 38 -5t37 -18t29.5 -35.5t15.5 -57.5q3 -32 3 -61.5v-57.5v-14
q0 -59 -1.5 -106t-14.5 -79q-12 -29 -38 -48.5t-76 -19.5q-22 0 -38.5 5.5t-28 13.5t-19.5 18l-14 18h-2v-242h-42v889h42v-253h2q17 25 41.5 39t65.5 14z" />
    <glyph glyph-name="Thorn" unicode="&#xde;" horiz-adv-x="386" 
d="M52 696h42v-139h94q52 0 86.5 -14.5t54 -40t27.5 -62t8 -79.5q0 -45 -8.5 -82.5t-29 -64t-55 -41.5t-86.5 -15h-90v-157h-43v695zM95 197h87q79 0 109.5 41.5t30.5 121.5q0 34 -6 63t-21.5 50t-42.5 33t-68 12h-89v-321z" />
    <glyph glyph-name="Agrave" unicode="&#xc0;" horiz-adv-x="376" 
d="M325 0l-40 182h-194l-40 -182h-41l153 696h49l156 -696h-43zM187 634l-37 -174l-52 -238h179l-52 240l-36 172h-2zM187 728l-144 90l33 36l128 -106z" />
    <glyph glyph-name="Aacute" unicode="&#xc1;" horiz-adv-x="376" 
d="M325 0l-40 182h-194l-40 -182h-41l153 696h49l156 -696h-43zM187 634l-37 -174l-52 -238h179l-52 240l-36 172h-2zM166 748l128 105l32 -36l-143 -89z" />
    <glyph glyph-name="Acircumflex" unicode="&#xc2;" horiz-adv-x="376" 
d="M325 0l-40 182h-194l-40 -182h-41l153 696h49l156 -696h-43zM187 634l-37 -174l-52 -238h179l-52 240l-36 172h-2zM187 811l-110 -77l-19 16l115 103h32l110 -101l-19 -17z" />
    <glyph glyph-name="Atilde" unicode="&#xc3;" horiz-adv-x="376" 
d="M325 0l-40 182h-194l-40 -182h-41l153 696h49l156 -696h-43zM187 634l-37 -174l-52 -238h179l-52 240l-36 172h-2zM323 805q-12 -32 -33.5 -47t-41.5 -15q-15 0 -29.5 6t-28.5 13t-27.5 13t-26.5 6q-12 0 -24.5 -9.5t-23.5 -25.5l-24 15q12 25 31 41t40 16q15 0 29 -6
t27.5 -13t27.5 -13t30 -6q28 0 51 39z" />
    <glyph glyph-name="Aring" unicode="&#xc5;" horiz-adv-x="376" 
d="M325 0l-40 182h-194l-40 -182h-41l153 696h49l156 -696h-43zM187 634l-37 -174l-52 -238h179l-52 240l-36 172h-2zM187 715q-33 0 -56.5 24t-23.5 57q0 35 23.5 58.5t56.5 23.5t56.5 -23.5t23.5 -58.5q0 -33 -23.5 -57t-56.5 -24zM187 851q-22 0 -37.5 -16t-15.5 -39
t15.5 -39t37.5 -16t37.5 16t15.5 39t-15.5 39t-37.5 16z" />
    <glyph glyph-name="Egrave" unicode="&#xc8;" horiz-adv-x="355" 
d="M52 0v696h284v-40h-241v-279h212v-39h-212v-298h241v-40h-284zM205 728l-144 90l33 36l128 -106z" />
    <glyph glyph-name="Ecircumflex" unicode="&#xca;" horiz-adv-x="355" 
d="M52 0v696h284v-40h-241v-279h212v-39h-212v-298h241v-40h-284zM188 811l-110 -77l-19 16l115 103h32l110 -101l-19 -17z" />
    <glyph glyph-name="Edieresis" unicode="&#xcb;" horiz-adv-x="355" 
d="M52 0v696h284v-40h-241v-279h212v-39h-212v-298h241v-40h-284zM237 745v47h41v-47h-41zM91 745v47h42v-47h-42z" />
    <glyph glyph-name="Igrave" unicode="&#xcc;" horiz-adv-x="174" 
d="M65 0v696h44v-696h-44zM92 728l-144 90l33 36l128 -106z" />
    <glyph glyph-name="Iacute" unicode="&#xcd;" horiz-adv-x="174" 
d="M65 0v696h44v-696h-44zM66 748l128 105l32 -36l-143 -89z" />
    <glyph glyph-name="Icircumflex" unicode="&#xce;" horiz-adv-x="174" 
d="M65 0v696h44v-696h-44zM89 811l-110 -77l-19 16l115 103h32l110 -101l-19 -17z" />
    <glyph glyph-name="Idieresis" unicode="&#xcf;" horiz-adv-x="174" 
d="M65 0v696h44v-696h-44zM140 745v47h41v-47h-41zM-6 745v47h42v-47h-42z" />
    <glyph glyph-name="Eth" unicode="&#xd0;" horiz-adv-x="404" 
d="M5 389h47v307h150q63 0 99 -22t50 -73q11 -38 10.5 -101.5t-0.5 -150.5v-151.5t-11 -101.5q-9 -30 -25 -48.5t-36.5 -29t-44.5 -14.5t-51 -4h-141v354h-47v35zM317 518q0 30 -5 55.5t-18.5 44t-36.5 29t-58 10.5h-104v-268h110v-35h-110v-314h105q61 0 89 32t28 103v343z
" />
    <glyph glyph-name="Ograve" unicode="&#xd2;" horiz-adv-x="403" 
d="M358 156q0 -81 -42.5 -122t-114.5 -41t-113.5 39t-41.5 115v391q0 75 39.5 119.5t116.5 44.5t116.5 -41t39.5 -119v-386zM315 546q0 52 -29.5 84.5t-83.5 32.5q-29 0 -50 -10.5t-35.5 -28t-21.5 -40.5t-7 -48v-390q0 -51 29.5 -82.5t83.5 -31.5q58 0 86 33t28 88v393z
M216 728l-144 90l33 36l128 -106z" />
    <glyph glyph-name="Oacute" unicode="&#xd3;" horiz-adv-x="403" 
d="M358 156q0 -81 -42.5 -122t-114.5 -41t-113.5 39t-41.5 115v391q0 75 39.5 119.5t116.5 44.5t116.5 -41t39.5 -119v-386zM315 546q0 52 -29.5 84.5t-83.5 32.5q-29 0 -50 -10.5t-35.5 -28t-21.5 -40.5t-7 -48v-390q0 -51 29.5 -82.5t83.5 -31.5q58 0 86 33t28 88v393z
M160 748l128 105l32 -36l-143 -89z" />
    <glyph glyph-name="Ocircumflex" unicode="&#xd4;" horiz-adv-x="403" 
d="M358 156q0 -81 -42.5 -122t-114.5 -41t-113.5 39t-41.5 115v391q0 75 39.5 119.5t116.5 44.5t116.5 -41t39.5 -119v-386zM315 546q0 52 -29.5 84.5t-83.5 32.5q-29 0 -50 -10.5t-35.5 -28t-21.5 -40.5t-7 -48v-390q0 -51 29.5 -82.5t83.5 -31.5q58 0 86 33t28 88v393z
M202 811l-110 -77l-19 16l115 103h32l110 -101l-19 -17z" />
    <glyph glyph-name="Otilde" unicode="&#xd5;" horiz-adv-x="403" 
d="M358 156q0 -81 -42.5 -122t-114.5 -41t-113.5 39t-41.5 115v391q0 75 39.5 119.5t116.5 44.5t116.5 -41t39.5 -119v-386zM315 546q0 52 -29.5 84.5t-83.5 32.5q-29 0 -50 -10.5t-35.5 -28t-21.5 -40.5t-7 -48v-390q0 -51 29.5 -82.5t83.5 -31.5q58 0 86 33t28 88v393z
M336 805q-12 -32 -33.5 -47t-41.5 -15q-15 0 -29.5 6t-28.5 13t-27.5 13t-26.5 6q-12 0 -24.5 -9.5t-23.5 -25.5l-24 15q12 25 31 41t40 16q15 0 29 -6t27.5 -13t27.5 -13t30 -6q28 0 51 39z" />
    <glyph glyph-name="Oslash" unicode="&#xd8;" horiz-adv-x="403" 
d="M358 156q0 -81 -42.5 -122t-114.5 -41q-38 0 -68 10.5t-50 32.5l-21 -49l-26 13l27 64q-17 36 -17 83v391q0 75 39.5 119.5t116.5 44.5q75 0 117 -42l21 49l28 -13l-29 -66q19 -38 19 -88v-386zM315 546q0 6 -0.5 12t-1.5 11l-210 -487q14 -23 38.5 -36.5t59.5 -13.5
q58 0 86 33t28 88v393zM88 146v-11t1 -10l209 487q-14 24 -38 37.5t-58 13.5q-29 0 -50 -10.5t-35.5 -28t-21.5 -40.5t-7 -48v-390z" />
    <glyph glyph-name="Ugrave" unicode="&#xd9;" horiz-adv-x="393" 
d="M352 695v-539q0 -81 -42 -122t-114 -41t-114 39t-42 115v548h43v-549q0 -51 29.5 -82.5t83.5 -31.5q57 0 85 33t28 88v542h43zM211 728l-144 90l33 36l128 -106z" />
    <glyph glyph-name="Uacute" unicode="&#xda;" horiz-adv-x="393" 
d="M352 695v-539q0 -81 -42 -122t-114 -41t-114 39t-42 115v548h43v-549q0 -51 29.5 -82.5t83.5 -31.5q57 0 85 33t28 88v542h43zM156 748l128 105l32 -36l-143 -89z" />
    <glyph glyph-name="Ucircumflex" unicode="&#xdb;" horiz-adv-x="393" 
d="M352 695v-539q0 -81 -42 -122t-114 -41t-114 39t-42 115v548h43v-549q0 -51 29.5 -82.5t83.5 -31.5q57 0 85 33t28 88v542h43zM195 811l-110 -77l-19 16l115 103h32l110 -101l-19 -17z" />
    <glyph glyph-name="Yacute" unicode="&#xdd;" horiz-adv-x="350" 
d="M174 353l48 141l35 101l35 101h45l-143 -403v-293h-42v293l-143 403h44l70 -203l48 -140h3zM148 748l128 105l32 -36l-143 -89z" />
    <glyph glyph-name="aacute" unicode="&#xe1;" horiz-adv-x="343" 
d="M171 248q-22 0 -41 -6t-33 -20t-22 -36.5t-8 -54.5q0 -40 20.5 -68.5t71.5 -28.5q43 0 71 23.5t28 69.5v121h-87zM38 414q14 38 47 60t85 22q63 0 97 -28.5t34 -101.5v-366h-43v44h-1q-24 -33 -54.5 -41.5t-59.5 -8.5q-33 0 -55.5 11.5t-36.5 30.5t-20.5 43.5t-6.5 51.5
q0 28 6.5 55.5t22.5 50t42.5 36.5t66.5 14h96v78q0 20 -4 36.5t-14 28.5t-27.5 19t-44.5 7q-29 0 -55 -14t-34 -42zM150 566l67 151l45 -17l-88 -144z" />
    <glyph glyph-name="atilde" unicode="&#xe3;" horiz-adv-x="343" 
d="M171 248q-22 0 -41 -6t-33 -20t-22 -36.5t-8 -54.5q0 -40 20.5 -68.5t71.5 -28.5q43 0 71 23.5t28 69.5v121h-87zM38 414q14 38 47 60t85 22q63 0 97 -28.5t34 -101.5v-366h-43v44h-1q-24 -33 -54.5 -41.5t-59.5 -8.5q-33 0 -55.5 11.5t-36.5 30.5t-20.5 43.5t-6.5 51.5
q0 28 6.5 55.5t22.5 50t42.5 36.5t66.5 14h96v78q0 20 -4 36.5t-14 28.5t-27.5 19t-44.5 7q-29 0 -55 -14t-34 -42zM310 635q-12 -32 -33.5 -47t-41.5 -15q-15 0 -29.5 6t-28.5 13t-27.5 13t-26.5 6q-12 0 -24.5 -9.5t-23.5 -25.5l-24 15q12 25 31 41t40 16q15 0 29 -6
t27.5 -13t27.5 -13t30 -6q28 0 51 39z" />
    <glyph glyph-name="aring" unicode="&#xe5;" horiz-adv-x="343" 
d="M171 248q-22 0 -41 -6t-33 -20t-22 -36.5t-8 -54.5q0 -40 20.5 -68.5t71.5 -28.5q43 0 71 23.5t28 69.5v121h-87zM38 414q14 38 47 60t85 22q63 0 97 -28.5t34 -101.5v-366h-43v44h-1q-24 -33 -54.5 -41.5t-59.5 -8.5q-33 0 -55.5 11.5t-36.5 30.5t-20.5 43.5t-6.5 51.5
q0 28 6.5 55.5t22.5 50t42.5 36.5t66.5 14h96v78q0 20 -4 36.5t-14 28.5t-27.5 19t-44.5 7q-29 0 -55 -14t-34 -42zM179 550q-33 0 -56.5 24t-23.5 57q0 35 23.5 58.5t56.5 23.5t56.5 -23.5t23.5 -58.5q0 -33 -23.5 -57t-56.5 -24zM179 686q-22 0 -37.5 -16t-15.5 -39
t15.5 -39t37.5 -16t37.5 16t15.5 39t-15.5 39t-37.5 16z" />
    <glyph glyph-name="igrave" unicode="&#xec;" horiz-adv-x="155" 
d="M55 0v489h43v-489h-43zM66 556l-88 144l45 17l67 -151z" />
    <glyph glyph-name="iacute" unicode="&#xed;" horiz-adv-x="155" 
d="M55 0v489h43v-489h-43zM61 566l67 151l45 -17l-88 -144z" />
    <glyph glyph-name="ntilde" unicode="&#xf1;" horiz-adv-x="357" 
d="M85 435h2q17 29 45.5 45t62.5 16t57 -10t37 -28t20 -42t6 -52v-364h-44v351q0 21 -4 40t-14 32.5t-27 21.5t-42 8q-24 0 -42.5 -9.5t-31.5 -25t-19.5 -35.5t-6.5 -41v-342h-42v489h43v-54zM304 635q-12 -32 -33.5 -47t-41.5 -15q-15 0 -29.5 6t-28.5 13t-27.5 13t-26.5 6
q-12 0 -24.5 -9.5t-23.5 -25.5l-24 15q12 25 31 41t40 16q15 0 29 -6t27.5 -13t27.5 -13t30 -6q28 0 51 39z" />
    <glyph glyph-name="ograve" unicode="&#xf2;" horiz-adv-x="349" 
d="M176 496q55 0 84 -21t40 -53q5 -13 7.5 -34.5t4 -47t1.5 -52v-49.5v-15q0 -26 -0.5 -53t-3.5 -59q-3 -35 -16.5 -58t-33 -36.5t-42.5 -19t-45 -5.5q-60 0 -89.5 24.5t-40.5 62.5q-3 12 -5 30.5t-3 40.5t-1 45v43q0 27 0.5 53.5t2 50.5t4.5 43.5t7 31.5q13 35 44 56.5
t85 21.5zM175 457q-26 0 -50 -10.5t-36 -40.5q-8 -20 -10 -62.5t-2 -98.5v-25q0 -48 1.5 -81t7.5 -51q9 -27 30.5 -41.5t58.5 -14.5q33 0 57 18t32 50q4 17 5.5 54t1.5 79q0 22 -0.5 47l-1 48t-2.5 41.5t-5 28.5q-9 30 -32.5 44.5t-54.5 14.5zM174 556l-88 144l45 17
l67 -151z" />
    <glyph glyph-name="oacute" unicode="&#xf3;" horiz-adv-x="349" 
d="M176 496q55 0 84 -21t40 -53q5 -13 7.5 -34.5t4 -47t1.5 -52v-49.5v-15q0 -26 -0.5 -53t-3.5 -59q-3 -35 -16.5 -58t-33 -36.5t-42.5 -19t-45 -5.5q-60 0 -89.5 24.5t-40.5 62.5q-3 12 -5 30.5t-3 40.5t-1 45v43q0 27 0.5 53.5t2 50.5t4.5 43.5t7 31.5q13 35 44 56.5
t85 21.5zM175 457q-26 0 -50 -10.5t-36 -40.5q-8 -20 -10 -62.5t-2 -98.5v-25q0 -48 1.5 -81t7.5 -51q9 -27 30.5 -41.5t58.5 -14.5q33 0 57 18t32 50q4 17 5.5 54t1.5 79q0 22 -0.5 47l-1 48t-2.5 41.5t-5 28.5q-9 30 -32.5 44.5t-54.5 14.5zM146 566l67 151l45 -17
l-88 -144z" />
    <glyph glyph-name="uacute" unicode="&#xfa;" horiz-adv-x="358" 
d="M273 55h-3q-17 -29 -45 -45.5t-63 -16.5q-34 0 -57 10.5t-36.5 28.5t-19.5 42t-6 51v365h44v-351q0 -23 4 -42t13.5 -32.5t26.5 -21.5t43 -8q23 0 41.5 9.5t31 25t19.5 35.5t7 41v344h43v-490h-43v55zM175 566l67 151l45 -17l-88 -144z" />
    <glyph glyph-name="yacute" unicode="&#xfd;" horiz-adv-x="315" 
d="M158 68q14 51 27 105.5l26 106.5l55 209h44l-147 -549q-8 -32 -18 -59q-11 -34 -35.5 -56.5t-65.5 -22.5h-15v38h12q32 0 49 23t27 64l9.5 37.5l9.5 37.5l-65.5 243l-64.5 244h46l52 -210l52 -211h2zM138 566l67 151l45 -17l-88 -144z" />
    <glyph glyph-name="ydieresis" unicode="&#xff;" horiz-adv-x="315" 
d="M158 68q14 51 27 105.5l26 106.5l55 209h44l-147 -549q-8 -32 -18 -59q-11 -34 -35.5 -56.5t-65.5 -22.5h-15v38h12q32 0 49 23t27 64l9.5 37.5l9.5 37.5l-65.5 243l-64.5 244h46l52 -210l52 -211h2zM65 585v48h42v-48h-42zM211 585v48h42v-48h-42z" />
    <glyph glyph-name="Amacron" unicode="&#x100;" horiz-adv-x="376" 
d="M325 0l-40 182h-194l-40 -182h-41l153 696h49l156 -696h-43zM187 634l-37 -174l-52 -238h179l-52 240l-36 172h-2zM84 751v38h207v-38h-207z" />
    <glyph glyph-name="amacron" unicode="&#x101;" horiz-adv-x="343" 
d="M171 248q-22 0 -41 -6t-33 -20t-22 -36.5t-8 -54.5q0 -40 20.5 -68.5t71.5 -28.5q43 0 71 23.5t28 69.5v121h-87zM38 414q14 38 47 60t85 22q63 0 97 -28.5t34 -101.5v-366h-43v44h-1q-24 -33 -54.5 -41.5t-59.5 -8.5q-33 0 -55.5 11.5t-36.5 30.5t-20.5 43.5t-6.5 51.5
q0 28 6.5 55.5t22.5 50t42.5 36.5t66.5 14h96v78q0 20 -4 36.5t-14 28.5t-27.5 19t-44.5 7q-29 0 -55 -14t-34 -42zM69 589v39h207v-39h-207z" />
    <glyph glyph-name="Abreve" unicode="&#x102;" horiz-adv-x="376" 
d="M325 0l-40 182h-194l-40 -182h-41l153 696h49l156 -696h-43zM187 634l-37 -174l-52 -238h179l-52 240l-36 172h-2zM104 849q5 -32 28.5 -54.5t54.5 -22.5q32 0 55.5 21t28.5 56h37q-3 -19 -11 -38.5t-23 -36t-36.5 -27t-50.5 -10.5q-30 0 -51.5 10.5t-36 27t-22 36
t-9.5 38.5h36z" />
    <glyph glyph-name="abreve" unicode="&#x103;" horiz-adv-x="343" 
d="M171 248q-22 0 -41 -6t-33 -20t-22 -36.5t-8 -54.5q0 -40 20.5 -68.5t71.5 -28.5q43 0 71 23.5t28 69.5v121h-87zM38 414q14 38 47 60t85 22q63 0 97 -28.5t34 -101.5v-366h-43v44h-1q-24 -33 -54.5 -41.5t-59.5 -8.5q-33 0 -55.5 11.5t-36.5 30.5t-20.5 43.5t-6.5 51.5
q0 28 6.5 55.5t22.5 50t42.5 36.5t66.5 14h96v78q0 20 -4 36.5t-14 28.5t-27.5 19t-44.5 7q-29 0 -55 -14t-34 -42zM92 669q5 -32 28.5 -54t54.5 -22q32 0 55.5 20.5t28.5 55.5h36q-2 -19 -10 -38.5t-23 -36t-36.5 -27t-50.5 -10.5q-30 0 -51.5 10.5t-36 27t-22 36.5
t-9.5 38h36z" />
    <glyph glyph-name="Aogonek" unicode="&#x104;" horiz-adv-x="376" 
d="M287 -93q0 19 8.5 43.5t28.5 50.5l-39 181h-194l-40 -182h-41l153 696h49l156 -696h-10q-17 -21 -27 -45t-10 -41q0 -29 12.5 -40.5t31.5 -11.5q11 0 23.5 3t25.5 12l11 -30q-12 -9 -30 -15t-35 -6q-33 0 -53 23t-20 58zM187 634l-37 -174l-52 -238h179l-52 240l-36 172
h-2z" />
    <glyph glyph-name="aogonek" unicode="&#x105;" horiz-adv-x="343" 
d="M221 -93q0 19 8.5 43.5t28.5 49.5v44h-1q-24 -33 -54.5 -41.5t-59.5 -8.5q-33 0 -55.5 11.5t-36.5 30.5t-20.5 43.5t-6.5 51.5q0 28 6.5 55.5t22.5 50t42.5 36.5t66.5 14h96v78q0 20 -4 36.5t-14 28.5t-27.5 19t-44.5 7q-29 0 -55 -14t-34 -42l-41 14q14 38 47 60t85 22
q63 0 97 -28.5t34 -101.5v-366h-9q-17 -21 -27 -45t-10 -41q0 -29 12.5 -40.5t31.5 -11.5q11 0 23.5 3t25.5 12l11 -30q-12 -9 -30 -15t-35 -6q-33 0 -53 23t-20 58zM171 248q-22 0 -41 -6t-33 -20t-22 -36.5t-8 -54.5q0 -40 20.5 -68.5t71.5 -28.5q43 0 71 23.5t28 69.5
v121h-87z" />
    <glyph glyph-name="Cacute" unicode="&#x106;" horiz-adv-x="383" 
d="M199 702q32 0 60 -9t48.5 -27.5t32 -46.5t11.5 -66l-43 -9q0 62 -30.5 90t-78.5 28q-55 0 -82.5 -34.5t-27.5 -87.5v-392q0 -51 27.5 -83t82.5 -32q22 0 41.5 6.5t34.5 20.5t24 36.5t9 54.5l43 -8q0 -39 -12.5 -67.5t-33 -47t-48 -27t-58.5 -8.5q-72 0 -112.5 38.5
t-40.5 115.5v390q0 75 37.5 120t115.5 45zM143 748l128 105l32 -36l-143 -89z" />
    <glyph glyph-name="cacute" unicode="&#x107;" horiz-adv-x="329" 
d="M175 496q63 0 96 -33t33 -96q-11 -2 -22 -3.5t-22 -3.5q1 46 -22 71.5t-66 25.5q-27 0 -48.5 -12t-34.5 -41q-8 -19 -10 -65t-2 -106v-13q0 -18 0.5 -37t1.5 -37t2.5 -33t4.5 -24q9 -27 30 -42t54 -15q41 0 65.5 22.5t24.5 72.5l44 -8q-2 -63 -37 -94.5t-97 -31.5
q-30 0 -52.5 7.5t-37.5 19.5t-24 27.5t-13 32.5q-3 12 -5 31t-2.5 41l-1 44.5t-0.5 42.5q0 27 0.5 54t2 51t4.5 43.5t7 31.5q13 35 43 56t84 21zM148 566l67 151l45 -17l-88 -144z" />
    <glyph glyph-name="Ccircumflex" unicode="&#x108;" horiz-adv-x="383" 
d="M199 702q32 0 60 -9t48.5 -27.5t32 -46.5t11.5 -66l-43 -9q0 62 -30.5 90t-78.5 28q-55 0 -82.5 -34.5t-27.5 -87.5v-392q0 -51 27.5 -83t82.5 -32q22 0 41.5 6.5t34.5 20.5t24 36.5t9 54.5l43 -8q0 -39 -12.5 -67.5t-33 -47t-48 -27t-58.5 -8.5q-72 0 -112.5 38.5
t-40.5 115.5v390q0 75 37.5 120t115.5 45zM201 811l-110 -77l-19 16l115 103h32l110 -101l-19 -17z" />
    <glyph glyph-name="ccircumflex" unicode="&#x109;" horiz-adv-x="329" 
d="M175 496q63 0 96 -33t33 -96q-11 -2 -22 -3.5t-22 -3.5q1 46 -22 71.5t-66 25.5q-27 0 -48.5 -12t-34.5 -41q-8 -19 -10 -65t-2 -106v-13q0 -18 0.5 -37t1.5 -37t2.5 -33t4.5 -24q9 -27 30 -42t54 -15q41 0 65.5 22.5t24.5 72.5l44 -8q-2 -63 -37 -94.5t-97 -31.5
q-30 0 -52.5 7.5t-37.5 19.5t-24 27.5t-13 32.5q-3 12 -5 31t-2.5 41l-1 44.5t-0.5 42.5q0 27 0.5 54t2 51t4.5 43.5t7 31.5q13 35 43 56t84 21zM175 648l-110 -97l-19 16l115 123h31l111 -121l-20 -17z" />
    <glyph glyph-name="Cdotaccent" unicode="&#x10a;" horiz-adv-x="383" 
d="M199 702q32 0 60 -9t48.5 -27.5t32 -46.5t11.5 -66l-43 -9q0 62 -30.5 90t-78.5 28q-55 0 -82.5 -34.5t-27.5 -87.5v-392q0 -51 27.5 -83t82.5 -32q22 0 41.5 6.5t34.5 20.5t24 36.5t9 54.5l43 -8q0 -39 -12.5 -67.5t-33 -47t-48 -27t-58.5 -8.5q-72 0 -112.5 38.5
t-40.5 115.5v390q0 75 37.5 120t115.5 45zM179 752v48h41v-48h-41z" />
    <glyph glyph-name="cdotaccent" unicode="&#x10b;" horiz-adv-x="329" 
d="M175 496q63 0 96 -33t33 -96q-11 -2 -22 -3.5t-22 -3.5q1 46 -22 71.5t-66 25.5q-27 0 -48.5 -12t-34.5 -41q-8 -19 -10 -65t-2 -106v-13q0 -18 0.5 -37t1.5 -37t2.5 -33t4.5 -24q9 -27 30 -42t54 -15q41 0 65.5 22.5t24.5 72.5l44 -8q-2 -63 -37 -94.5t-97 -31.5
q-30 0 -52.5 7.5t-37.5 19.5t-24 27.5t-13 32.5q-3 12 -5 31t-2.5 41l-1 44.5t-0.5 42.5q0 27 0.5 54t2 51t4.5 43.5t7 31.5q13 35 43 56t84 21zM156 589v48h41v-48h-41z" />
    <glyph glyph-name="Ccaron" unicode="&#x10c;" horiz-adv-x="383" 
d="M199 702q32 0 60 -9t48.5 -27.5t32 -46.5t11.5 -66l-43 -9q0 62 -30.5 90t-78.5 28q-55 0 -82.5 -34.5t-27.5 -87.5v-392q0 -51 27.5 -83t82.5 -32q22 0 41.5 6.5t34.5 20.5t24 36.5t9 54.5l43 -8q0 -39 -12.5 -67.5t-33 -47t-48 -27t-58.5 -8.5q-72 0 -112.5 38.5
t-40.5 115.5v390q0 75 37.5 120t115.5 45zM308 852l19 -17l-110 -100h-32l-114 102l18 16l110 -77z" />
    <glyph glyph-name="ccaron" unicode="&#x10d;" horiz-adv-x="329" 
d="M175 496q63 0 96 -33t33 -96q-11 -2 -22 -3.5t-22 -3.5q1 46 -22 71.5t-66 25.5q-27 0 -48.5 -12t-34.5 -41q-8 -19 -10 -65t-2 -106v-13q0 -18 0.5 -37t1.5 -37t2.5 -33t4.5 -24q9 -27 30 -42t54 -15q41 0 65.5 22.5t24.5 72.5l44 -8q-2 -63 -37 -94.5t-97 -31.5
q-30 0 -52.5 7.5t-37.5 19.5t-24 27.5t-13 32.5q-3 12 -5 31t-2.5 41l-1 44.5t-0.5 42.5q0 27 0.5 54t2 51t4.5 43.5t7 31.5q13 35 43 56t84 21zM285 689l19 -17l-110 -120h-32l-115 122l19 16l110 -97z" />
    <glyph glyph-name="Dcaron" unicode="&#x10e;" horiz-adv-x="404" 
d="M202 696q63 0 99 -22t50 -73q11 -38 10.5 -101.5t-0.5 -150.5v-151.5t-11 -101.5q-9 -30 -25 -48.5t-36.5 -29t-44.5 -14.5t-51 -4h-141v696h150zM317 518q0 30 -5 55.5t-18.5 44t-36.5 29t-58 10.5h-104v-617h105q61 0 89 32t28 103v343zM297 852l19 -17l-110 -100h-32
l-114 102l18 16l110 -77z" />
    <glyph glyph-name="dcaron" unicode="&#x10f;" horiz-adv-x="426" 
d="M175 -6q-19 0 -38.5 4.5t-37 17.5t-29.5 35.5t-16 57.5q-3 32 -3 62v57v14q0 57 1.5 103.5t12.5 75.5q11 31 37.5 53t78.5 22q40 0 66 -19t34 -37h2v286h43v-726h-43v46h-2q-17 -25 -41.5 -38.5t-64.5 -13.5zM185 34q45 0 71.5 29t26.5 76v202q0 22 -6 42.5t-18 36
t-30 25t-42 9.5q-30 0 -52.5 -16t-30.5 -47q-3 -11 -5 -28t-2.5 -38.5l-1 -45t-0.5 -46.5q0 -47 1.5 -83.5t6.5 -53.5q10 -35 30.5 -48.5t51.5 -13.5zM394 585h-26q5 21 9.5 42.5t9.5 42.5h-13v56h53v-56z" />
    <glyph glyph-name="Dcroat" unicode="&#x110;" horiz-adv-x="404" 
d="M5 389h47v307h150q63 0 99 -22t50 -73q11 -38 10.5 -101.5t-0.5 -150.5v-151.5t-11 -101.5q-9 -30 -25 -48.5t-36.5 -29t-44.5 -14.5t-51 -4h-141v356h-47v33zM317 518q0 30 -5 55.5t-18.5 44t-36.5 29t-58 10.5h-104v-268h110v-33h-110v-316h105q61 0 89 32t28 103v343z
" />
    <glyph glyph-name="dcroat" unicode="&#x111;" horiz-adv-x="380" 
d="M165 620h118v106h43v-106h38v-33h-38v-587h-43v46h-2q-17 -25 -41.5 -38.5t-64.5 -13.5q-19 0 -38.5 4.5t-37 17.5t-29.5 35.5t-16 57.5q-3 32 -3 62v57v14q0 57 1.5 103.5t12.5 75.5q11 31 37.5 53t78.5 22q40 0 66 -19t34 -37h2v147h-118v33zM185 34q45 0 71.5 29
t26.5 76v202q0 22 -6 42.5t-18 36t-30 25t-42 9.5q-30 0 -52.5 -16t-30.5 -47q-3 -11 -5 -28t-2.5 -38.5l-1 -45t-0.5 -46.5q0 -47 1.5 -83.5t6.5 -53.5q10 -35 30.5 -48.5t51.5 -13.5z" />
    <glyph glyph-name="Emacron" unicode="&#x112;" horiz-adv-x="355" 
d="M52 0v696h284v-40h-241v-279h212v-39h-212v-298h241v-40h-284zM88 751v38h207v-38h-207z" />
    <glyph glyph-name="emacron" unicode="&#x113;" horiz-adv-x="342" 
d="M174 496q60 0 93.5 -30.5t36.5 -87.5q1 -11 1 -21.5v-21.5v-97h-228v-32q0 -32 1.5 -66.5t7.5 -51.5q9 -26 29 -41t54 -15q45 0 66.5 26t24.5 64l43 -8q-5 -59 -41 -90t-93 -31q-30 0 -52.5 7.5t-37.5 19.5t-24 27.5t-13 32.5q-3 12 -5 31t-2.5 40.5l-1 44.5t-0.5 43
q0 27 0.5 54t2 51t4.5 44t7 32q13 35 43 55.5t84 20.5zM88 404q-7 -17 -8.5 -50.5t-2.5 -79.5h185v61q0 23 -2.5 45t-12 39t-27.5 27t-48 10q-25 0 -48 -11t-36 -41zM77 589v39h207v-39h-207z" />
    <glyph glyph-name="Ebreve" unicode="&#x114;" horiz-adv-x="355" 
d="M52 0v696h284v-40h-241v-279h212v-39h-212v-298h241v-40h-284zM108 849q5 -32 28.5 -54.5t54.5 -22.5q32 0 55.5 21t28.5 56h37q-3 -19 -11 -38.5t-23 -36t-36.5 -27t-50.5 -10.5q-30 0 -51.5 10.5t-36 27t-22 36t-9.5 38.5h36z" />
    <glyph glyph-name="ebreve" unicode="&#x115;" horiz-adv-x="342" 
d="M174 496q60 0 93.5 -30.5t36.5 -87.5q1 -11 1 -21.5v-21.5v-97h-228v-32q0 -32 1.5 -66.5t7.5 -51.5q9 -26 29 -41t54 -15q45 0 66.5 26t24.5 64l43 -8q-5 -59 -41 -90t-93 -31q-30 0 -52.5 7.5t-37.5 19.5t-24 27.5t-13 32.5q-3 12 -5 31t-2.5 40.5l-1 44.5t-0.5 43
q0 27 0.5 54t2 51t4.5 44t7 32q13 35 43 55.5t84 20.5zM88 404q-7 -17 -8.5 -50.5t-2.5 -79.5h185v61q0 23 -2.5 45t-12 39t-27.5 27t-48 10q-25 0 -48 -11t-36 -41zM89 669q5 -32 28.5 -54t54.5 -22q32 0 55.5 20.5t28.5 55.5h36q-2 -19 -10 -38.5t-23 -36t-36.5 -27
t-50.5 -10.5q-30 0 -51.5 10.5t-36 27t-22 36.5t-9.5 38h36z" />
    <glyph glyph-name="Edotaccent" unicode="&#x116;" horiz-adv-x="355" 
d="M52 0v696h284v-40h-241v-279h212v-39h-212v-298h241v-40h-284zM173 759v48h41v-48h-41z" />
    <glyph glyph-name="edotaccent" unicode="&#x117;" horiz-adv-x="342" 
d="M174 496q60 0 93.5 -30.5t36.5 -87.5q1 -11 1 -21.5v-21.5v-97h-228v-32q0 -32 1.5 -66.5t7.5 -51.5q9 -26 29 -41t54 -15q45 0 66.5 26t24.5 64l43 -8q-5 -59 -41 -90t-93 -31q-30 0 -52.5 7.5t-37.5 19.5t-24 27.5t-13 32.5q-3 12 -5 31t-2.5 40.5l-1 44.5t-0.5 43
q0 27 0.5 54t2 51t4.5 44t7 32q13 35 43 55.5t84 20.5zM88 404q-7 -17 -8.5 -50.5t-2.5 -79.5h185v61q0 23 -2.5 45t-12 39t-27.5 27t-48 10q-25 0 -48 -11t-36 -41zM159 589v48h41v-48h-41z" />
    <glyph glyph-name="Eogonek" unicode="&#x118;" horiz-adv-x="355" 
d="M264 -93q0 18 8.5 42.5t27.5 50.5h-248v696h284v-40h-241v-279h212v-39h-212v-298h241v-40h-1q-17 -21 -27 -45t-10 -41q0 -29 12.5 -40.5t31.5 -11.5q11 0 23.5 3t25.5 12l11 -30q-12 -9 -30 -15t-35 -6q-33 0 -53 23t-20 58z" />
    <glyph glyph-name="eogonek" unicode="&#x119;" horiz-adv-x="342" 
d="M195 -65q0 13 4 29.5t14 34.5q-21 -6 -44 -6q-30 0 -52.5 7.5t-37.5 19.5t-24 27.5t-13 32.5q-3 12 -5 31t-2.5 40.5l-1 44.5t-0.5 43q0 27 0.5 54t2 51t4.5 44t7 32q13 35 43 55.5t84 20.5q60 0 93.5 -30.5t36.5 -87.5q1 -11 1 -21.5v-21.5v-97h-228v-32
q0 -32 1.5 -66.5t7.5 -51.5q9 -26 29 -41t54 -15q45 0 66.5 26t24.5 64l43 -8q-4 -57 -38 -87q-16 -21 -26 -44.5t-10 -40.5q0 -29 12.5 -40.5t31.5 -11.5q11 0 23.5 3t25.5 12l11 -30q-12 -9 -30 -15t-35 -6q-33 0 -53 23t-20 58zM88 404q-7 -17 -8.5 -50.5t-2.5 -79.5h185
v61q0 23 -2.5 45t-12 39t-27.5 27t-48 10q-25 0 -48 -11t-36 -41z" />
    <glyph glyph-name="Ecaron" unicode="&#x11a;" horiz-adv-x="355" 
d="M52 0v696h284v-40h-241v-279h212v-39h-212v-298h241v-40h-284zM297 852l19 -17l-110 -100h-32l-114 102l18 16l110 -77z" />
    <glyph glyph-name="ecaron" unicode="&#x11b;" horiz-adv-x="342" 
d="M174 496q60 0 93.5 -30.5t36.5 -87.5q1 -11 1 -21.5v-21.5v-97h-228v-32q0 -32 1.5 -66.5t7.5 -51.5q9 -26 29 -41t54 -15q45 0 66.5 26t24.5 64l43 -8q-5 -59 -41 -90t-93 -31q-30 0 -52.5 7.5t-37.5 19.5t-24 27.5t-13 32.5q-3 12 -5 31t-2.5 40.5l-1 44.5t-0.5 43
q0 27 0.5 54t2 51t4.5 44t7 32q13 35 43 55.5t84 20.5zM88 404q-7 -17 -8.5 -50.5t-2.5 -79.5h185v61q0 23 -2.5 45t-12 39t-27.5 27t-48 10q-25 0 -48 -11t-36 -41zM285 689l19 -17l-110 -120h-32l-115 122l19 16l110 -97z" />
    <glyph glyph-name="Gcircumflex" unicode="&#x11c;" horiz-adv-x="395" 
d="M200 -7q-72 0 -112.5 38t-40.5 115v351v29.5t1 29.5q3 69 41.5 107.5t110.5 38.5q65 0 107.5 -35.5t43.5 -112.5l-43 -10v3q0 60 -30.5 87.5t-78.5 27.5q-55 0 -82 -35t-27 -87v-393q0 -51 27.5 -82.5t82.5 -31.5q23 0 43.5 7.5t36.5 21.5t25 34t9 45v180h-86v39h129
v-216q0 -37 -12.5 -65t-34.5 -47t-50.5 -29t-59.5 -10zM203 811l-110 -77l-19 16l115 103h32l110 -101l-19 -17z" />
    <glyph glyph-name="gcircumflex" unicode="&#x11d;" horiz-adv-x="356" 
d="M160 496q41 0 65.5 -14t41.5 -39h2v46h42v-561q0 -62 -37 -95.5t-100 -33.5q-56 0 -91.5 30.5t-37.5 90.5l44 8q0 -42 22 -66t66 -24t68 28.5t24 70.5v120h-2q-17 -30 -47.5 -46.5t-62.5 -16.5q-48 0 -72.5 19.5t-35.5 47.5q-10 26 -12 65t-2 79v54q0 29 0.5 58.5
t3.5 62.5q3 35 16 57.5t30.5 35.5t37.5 18t37 5zM170 455q-28 0 -50 -13.5t-33 -48.5q-5 -17 -6.5 -53.5t-1.5 -83.5q0 -25 0.5 -50.5t1.5 -48.5t3 -41.5t6 -28.5q9 -27 29 -40t49 -13q25 0 44 10.5t31.5 27.5t19 38.5t6.5 43.5v196q0 47 -27 76t-72 29zM176 648l-110 -97
l-19 16l115 123h31l111 -121l-20 -17z" />
    <glyph glyph-name="Gbreve" unicode="&#x11e;" horiz-adv-x="395" 
d="M200 -7q-72 0 -112.5 38t-40.5 115v351v29.5t1 29.5q3 69 41.5 107.5t110.5 38.5q65 0 107.5 -35.5t43.5 -112.5l-43 -10v3q0 60 -30.5 87.5t-78.5 27.5q-55 0 -82 -35t-27 -87v-393q0 -51 27.5 -82.5t82.5 -31.5q23 0 43.5 7.5t36.5 21.5t25 34t9 45v180h-86v39h129
v-216q0 -37 -12.5 -65t-34.5 -47t-50.5 -29t-59.5 -10zM117 849q5 -32 28.5 -54.5t54.5 -22.5q32 0 55.5 21t28.5 56h37q-3 -19 -11 -38.5t-23 -36t-36.5 -27t-50.5 -10.5q-30 0 -51.5 10.5t-36 27t-22 36t-9.5 38.5h36z" />
    <glyph glyph-name="gbreve" unicode="&#x11f;" horiz-adv-x="356" 
d="M160 496q41 0 65.5 -14t41.5 -39h2v46h42v-561q0 -62 -37 -95.5t-100 -33.5q-56 0 -91.5 30.5t-37.5 90.5l44 8q0 -42 22 -66t66 -24t68 28.5t24 70.5v120h-2q-17 -30 -47.5 -46.5t-62.5 -16.5q-48 0 -72.5 19.5t-35.5 47.5q-10 26 -12 65t-2 79v54q0 29 0.5 58.5
t3.5 62.5q3 35 16 57.5t30.5 35.5t37.5 18t37 5zM170 455q-28 0 -50 -13.5t-33 -48.5q-5 -17 -6.5 -53.5t-1.5 -83.5q0 -25 0.5 -50.5t1.5 -48.5t3 -41.5t6 -28.5q9 -27 29 -40t49 -13q25 0 44 10.5t31.5 27.5t19 38.5t6.5 43.5v196q0 47 -27 76t-72 29zM92 669
q5 -32 28.5 -54t54.5 -22q32 0 55.5 20.5t28.5 55.5h36q-2 -19 -10 -38.5t-23 -36t-36.5 -27t-50.5 -10.5q-30 0 -51.5 10.5t-36 27t-22 36.5t-9.5 38h36z" />
    <glyph glyph-name="Gdotaccent" unicode="&#x120;" horiz-adv-x="395" 
d="M200 -7q-72 0 -112.5 38t-40.5 115v351v29.5t1 29.5q3 69 41.5 107.5t110.5 38.5q65 0 107.5 -35.5t43.5 -112.5l-43 -10v3q0 60 -30.5 87.5t-78.5 27.5q-55 0 -82 -35t-27 -87v-393q0 -51 27.5 -82.5t82.5 -31.5q23 0 43.5 7.5t36.5 21.5t25 34t9 45v180h-86v39h129
v-216q0 -37 -12.5 -65t-34.5 -47t-50.5 -29t-59.5 -10zM184 759v48h41v-48h-41z" />
    <glyph glyph-name="gdotaccent" unicode="&#x121;" horiz-adv-x="356" 
d="M160 496q41 0 65.5 -14t41.5 -39h2v46h42v-561q0 -62 -37 -95.5t-100 -33.5q-56 0 -91.5 30.5t-37.5 90.5l44 8q0 -42 22 -66t66 -24t68 28.5t24 70.5v120h-2q-17 -30 -47.5 -46.5t-62.5 -16.5q-48 0 -72.5 19.5t-35.5 47.5q-10 26 -12 65t-2 79v54q0 29 0.5 58.5
t3.5 62.5q3 35 16 57.5t30.5 35.5t37.5 18t37 5zM170 455q-28 0 -50 -13.5t-33 -48.5q-5 -17 -6.5 -53.5t-1.5 -83.5q0 -25 0.5 -50.5t1.5 -48.5t3 -41.5t6 -28.5q9 -27 29 -40t49 -13q25 0 44 10.5t31.5 27.5t19 38.5t6.5 43.5v196q0 47 -27 76t-72 29zM158 589v48h41v-48
h-41z" />
    <glyph glyph-name="Gcommaaccent" unicode="&#x122;" horiz-adv-x="395" 
d="M200 -7q-72 0 -112.5 38t-40.5 115v351v29.5t1 29.5q3 69 41.5 107.5t110.5 38.5q65 0 107.5 -35.5t43.5 -112.5l-43 -10v3q0 60 -30.5 87.5t-78.5 27.5q-55 0 -82 -35t-27 -87v-393q0 -51 27.5 -82.5t82.5 -31.5q23 0 43.5 7.5t36.5 21.5t25 34t9 45v180h-86v39h129
v-216q0 -37 -12.5 -65t-34.5 -47t-50.5 -29t-59.5 -10zM195 -202h-26q5 21 9.5 42.5t9.5 42.5h-13v56h53v-56z" />
    <glyph glyph-name="gcommaaccent" unicode="&#x123;" horiz-adv-x="356" 
d="M160 496q41 0 65.5 -14t41.5 -39h2v46h42v-561q0 -62 -37 -95.5t-100 -33.5q-56 0 -91.5 30.5t-37.5 90.5l44 8q0 -42 22 -66t66 -24t68 28.5t24 70.5v120h-2q-17 -30 -47.5 -46.5t-62.5 -16.5q-48 0 -72.5 19.5t-35.5 47.5q-10 26 -12 65t-2 79v54q0 29 0.5 58.5
t3.5 62.5q3 35 16 57.5t30.5 35.5t37.5 18t37 5zM170 455q-28 0 -50 -13.5t-33 -48.5q-5 -17 -6.5 -53.5t-1.5 -83.5q0 -25 0.5 -50.5t1.5 -48.5t3 -41.5t6 -28.5q9 -27 29 -40t49 -13q25 0 44 10.5t31.5 27.5t19 38.5t6.5 43.5v196q0 47 -27 76t-72 29zM193 703h27l-20 -84
h13v-56h-52v55z" />
    <glyph glyph-name="Hcircumflex" unicode="&#x124;" horiz-adv-x="412" 
d="M317 0v337h-222v-337h-43v696h43v-320h222v320h43v-696h-43zM207 811l-110 -77l-19 16l115 103h32l110 -101l-19 -17z" />
    <glyph glyph-name="hcircumflex" unicode="&#x125;" horiz-adv-x="358" 
d="M86 435h1q17 29 46 45t63 16t57 -10t37 -28t20 -42t6 -52v-364h-44v351q0 21 -4 40t-14.5 32.5t-27.5 21.5t-43 8q-24 0 -42 -9t-30.5 -24.5t-19 -35.5t-6.5 -41v-343h-42v727h43v-292zM65 811l-110 -77l-19 16l115 103h32l110 -101l-19 -17z" />
    <glyph glyph-name="Hbar" unicode="&#x126;" horiz-adv-x="412" 
d="M317 0v337h-222v-337h-43v563h-43v32h43v101h43v-101h222v101h43v-101h44v-32h-44v-563h-43zM317 376v187h-222v-187h222z" />
    <glyph glyph-name="hbar" unicode="&#x127;" horiz-adv-x="358" 
d="M86 614h185v-32h-185v-147h1q17 29 46 45t63 16t57 -10t37 -28t20 -42t6 -52v-364h-44v351q0 21 -4 40t-14.5 32.5t-27.5 21.5t-43 8q-24 0 -42 -9t-30.5 -24.5t-19 -35.5t-6.5 -41v-343h-42v582h-42v32h42v113h43v-113z" />
    <glyph glyph-name="Itilde" unicode="&#x128;" horiz-adv-x="174" 
d="M65 0v696h44v-696h-44zM218 791q-12 -32 -33.5 -47t-41.5 -15q-15 0 -29.5 6t-28.5 13t-27.5 13t-26.5 6q-12 0 -24.5 -9.5t-23.5 -25.5l-24 15q12 25 31 41t40 16q15 0 29 -6t27.5 -13t27.5 -13t30 -6q28 0 51 39z" />
    <glyph glyph-name="itilde" unicode="&#x129;" horiz-adv-x="227" 
d="M88 0v489h43v-489h-43zM241 635q-12 -32 -33.5 -47t-41.5 -15q-15 0 -29.5 6t-28.5 13t-27.5 13t-26.5 6q-12 0 -24.5 -9.5t-23.5 -25.5l-24 15q12 25 31 41t40 16q15 0 29 -6t27.5 -13t27.5 -13t30 -6q28 0 51 39z" />
    <glyph glyph-name="Imacron" unicode="&#x12a;" horiz-adv-x="174" 
d="M65 0v696h44v-696h-44zM-16 751v38h207v-38h-207z" />
    <glyph glyph-name="imacron" unicode="&#x12b;" horiz-adv-x="187" 
d="M71 0v489h43v-489h-43zM-10 589v39h207v-39h-207z" />
    <glyph glyph-name="Ibreve" unicode="&#x12c;" horiz-adv-x="219" 
d="M87 0v696h44v-696h-44zM26 845q5 -32 28.5 -54t54.5 -22q32 0 55.5 20.5t28.5 55.5h36q-2 -19 -10 -38.5t-23 -36t-36.5 -27t-50.5 -10.5q-30 0 -51.5 10.5t-36 27t-22 36.5t-9.5 38h36z" />
    <glyph glyph-name="ibreve" unicode="&#x12d;" horiz-adv-x="219" 
d="M88 0v489h43v-489h-43zM26 675q5 -32 28.5 -54t54.5 -22q32 0 55.5 20.5t28.5 55.5h36q-2 -19 -10 -38.5t-23 -36t-36.5 -27t-50.5 -10.5q-30 0 -51.5 10.5t-36 27t-22 36.5t-9.5 38h36z" />
    <glyph glyph-name="Iogonek" unicode="&#x12e;" horiz-adv-x="174" 
d="M33 -93q0 18 8.5 42.5t27.5 50.5h-4v696h44v-696h-5q-17 -21 -27 -45t-10 -41q0 -29 12.5 -40.5t31.5 -11.5q11 0 23.5 3t25.5 12l11 -30q-12 -9 -30 -15t-35 -6q-33 0 -53 23t-20 58z" />
    <glyph glyph-name="iogonek" unicode="&#x12f;" horiz-adv-x="155" 
d="M23 -93q0 18 8.5 42.5t27.5 50.5h-4v489h43v-489h-4q-17 -21 -27 -45t-10 -41q0 -29 12.5 -40.5t31.5 -11.5q11 0 23.5 3t25.5 12l11 -30q-12 -9 -30 -15t-35 -6q-33 0 -53 23t-20 58zM54 608v48h45v-48h-45z" />
    <glyph glyph-name="Idotaccent" unicode="&#x130;" horiz-adv-x="174" 
d="M65 0v696h44v-696h-44zM67 745v48h41v-48h-41z" />
    <glyph glyph-name="IJ" unicode="&#x132;" horiz-adv-x="478" 
d="M65 0v696h44v-696h-44zM418 696v-546q0 -75 -40 -116t-118 -41q-26 0 -54.5 7t-45.5 26l25 33q15 -12 36 -19t41 -7q19 0 39 5.5t36.5 18.5t27 35.5t10.5 56.5v547h43z" />
    <glyph glyph-name="ij" unicode="&#x133;" horiz-adv-x="316" 
d="M54 608v48h45v-48h-45zM55 0v489h43v-489h-43zM220 489h42v-562q0 -29 -4 -52.5t-15 -40.5t-30 -26.5t-50 -9.5h-13v38h7q40 0 51.5 21.5t11.5 62.5v569zM219 656h45v-48h-45v48z" />
    <glyph glyph-name="Jcircumflex" unicode="&#x134;" horiz-adv-x="321" 
d="M252 697v-546q0 -75 -40 -116t-118 -41q-26 0 -54.5 7t-45.5 26l25 33q15 -12 36 -19t41 -7q19 0 39 5.5t36.5 18.5t27 35.5t10.5 56.5v547h43zM232 813l-110 -77l-19 16l115 103h32l110 -101l-19 -17z" />
    <glyph glyph-name="jcircumflex" unicode="&#x135;" horiz-adv-x="226" 
d="M92 489h43v-547v-28t-2 -28q-4 -48 -28.5 -69.5t-70.5 -21.5h-11v39h6q40 0 51.5 21.5t11.5 62.5v571zM222 552l-54 47.5l-55 48.5l-109 -97l-18 16l56.5 60.5l56.5 61.5h32l110 -120z" />
    <glyph glyph-name="Kcommaaccent" unicode="&#x136;" horiz-adv-x="397" 
d="M345 0l-154 374l-97 -179v-195h-42v696h42v-418h2l221 418h45l-144 -274l174 -422h-47zM209 -182h-26q5 21 9.5 42.5t9.5 42.5h-13v56h53v-56z" />
    <glyph glyph-name="kcommaaccent" unicode="&#x137;" horiz-adv-x="346" 
d="M84 200h1l181 288h48l-114 -180l141 -308h-48l-120 268l-89 -141v-127h-42v726h42v-526zM183 -202h-26q5 21 9.5 42.5t9.5 42.5h-13v56h53v-56z" />
    <glyph glyph-name="kgreenlandic" unicode="&#x138;" horiz-adv-x="345" 
d="M84 200h1l182 288h47l-114 -180l139 -308h-48l-118 268l-89 -141v-127h-42v488h42v-288z" />
    <glyph glyph-name="Lacute" unicode="&#x139;" horiz-adv-x="333" 
d="M53 0v696h43v-656h228v-40h-271zM58 748l128 105l32 -36l-143 -89z" />
    <glyph glyph-name="lacute" unicode="&#x13a;" horiz-adv-x="168" 
d="M49 726h42v-611q0 -38 12.5 -60.5t50.5 -22.5h12v-39h-15q-50 0 -76 24t-26 88v621zM52 768l128 105l32 -36l-143 -89z" />
    <glyph glyph-name="Lcommaaccent" unicode="&#x13b;" horiz-adv-x="333" 
d="M53 0v696h43v-656h228v-40h-271zM179 -202h-26q5 21 9.5 42.5t9.5 42.5h-13v56h53v-56z" />
    <glyph glyph-name="lcommaaccent" unicode="&#x13c;" horiz-adv-x="168" 
d="M49 726h42v-611q0 -38 12.5 -60.5t50.5 -22.5h12v-39h-15q-50 0 -76 24t-26 88v621zM96 -202h-26q5 21 9.5 42.5t9.5 42.5h-13v56h53v-56z" />
    <glyph glyph-name="Lcaron" unicode="&#x13d;" horiz-adv-x="333" 
d="M53 0v696h43v-656h228v-40h-271zM229 555h-26q5 21 9.5 42.5t9.5 42.5h-13v56h53v-56z" />
    <glyph glyph-name="lcaron" unicode="&#x13e;" horiz-adv-x="217" 
d="M49 726h42v-611q0 -38 12.5 -60.5t50.5 -22.5h12v-39h-15q-50 0 -76 24t-26 88v621zM183 585h-26q5 21 9.5 42.5t9.5 42.5h-13v56h53v-56z" />
    <glyph glyph-name="Ldot" unicode="&#x13f;" horiz-adv-x="333" 
d="M53 0v696h43v-656h228v-40h-271zM213 321v48h41v-48h-41z" />
    <glyph glyph-name="ldot" unicode="&#x140;" horiz-adv-x="217" 
d="M167 350v48h41v-48h-41zM49 726h42v-611q0 -38 12.5 -60.5t50.5 -22.5h12v-39h-15q-50 0 -76 24t-26 88v621z" />
    <glyph glyph-name="Lslash" unicode="&#x141;" horiz-adv-x="371" 
d="M91 0v260l-74 -46l-17 26l91 57v399h43v-372l114 71l16 -26l-130 -82v-247h229v-40h-272z" />
    <glyph glyph-name="lslash" unicode="&#x142;" horiz-adv-x="246" 
d="M93 299l-76 -48l-17 26l93 58v391h42v-364l94 59l17 -26l-111 -70v-210q0 -38 12.5 -60.5t50.5 -22.5h12v-39h-15q-50 0 -76 24t-26 88v194z" />
    <glyph glyph-name="Nacute" unicode="&#x143;" horiz-adv-x="431" 
d="M92 577v-577h-42v696h40l76 -178.5l76 -178.5l93 -222h4v579h42v-696h-41l-75.5 177.5l-75.5 177.5l-47.5 111l-46.5 111h-3zM182 748l128 105l32 -36l-143 -89z" />
    <glyph glyph-name="nacute" unicode="&#x144;" horiz-adv-x="357" 
d="M85 435h2q17 29 45.5 45t62.5 16t57 -10t37 -28t20 -42t6 -52v-364h-44v351q0 21 -4 40t-14 32.5t-27 21.5t-42 8q-24 0 -42.5 -9.5t-31.5 -25t-19.5 -35.5t-6.5 -41v-342h-42v489h43v-54zM134 566l67 151l45 -17l-88 -144z" />
    <glyph glyph-name="Ncommaaccent" unicode="&#x145;" horiz-adv-x="431" 
d="M92 577v-577h-42v696h40l76 -178.5l76 -178.5l93 -222h4v579h42v-696h-41l-75.5 177.5l-75.5 177.5l-47.5 111l-46.5 111h-3zM210 -169h-26q5 21 9.5 42.5t9.5 42.5h-13v56h53v-56z" />
    <glyph glyph-name="ncommaaccent" unicode="&#x146;" horiz-adv-x="357" 
d="M85 435h2q17 29 45.5 45t62.5 16t57 -10t37 -28t20 -42t6 -52v-364h-44v351q0 21 -4 40t-14 32.5t-27 21.5t-42 8q-24 0 -42.5 -9.5t-31.5 -25t-19.5 -35.5t-6.5 -41v-342h-42v489h43v-54zM172 -202h-26q5 21 9.5 42.5t9.5 42.5h-13v56h53v-56z" />
    <glyph glyph-name="Ncaron" unicode="&#x147;" horiz-adv-x="431" 
d="M92 577v-577h-42v696h40l76 -178.5l76 -178.5l93 -222h4v579h42v-696h-41l-75.5 177.5l-75.5 177.5l-47.5 111l-46.5 111h-3zM327 852l19 -17l-110 -100h-32l-114 102l18 16l110 -77z" />
    <glyph glyph-name="ncaron" unicode="&#x148;" horiz-adv-x="357" 
d="M85 435h2q17 29 45.5 45t62.5 16t57 -10t37 -28t20 -42t6 -52v-364h-44v351q0 21 -4 40t-14 32.5t-27 21.5t-42 8q-24 0 -42.5 -9.5t-31.5 -25t-19.5 -35.5t-6.5 -41v-342h-42v489h43v-54zM282 689l19 -17l-110 -120h-32l-115 122l19 16l110 -97z" />
    <glyph glyph-name="napostrophe" unicode="&#x149;" horiz-adv-x="387" 
d="M115 435h2q17 29 45.5 45t62.5 16t57 -10t37 -28t20 -42t6 -52v-364h-44v351q0 21 -4 40t-14 32.5t-27 21.5t-42 8q-24 0 -42.5 -9.5t-31.5 -25t-19.5 -35.5t-6.5 -41v-342h-42v489h43v-54zM30 498h-26q5 21 9.5 42.5t9.5 42.5h-13v56h53v-56z" />
    <glyph glyph-name="Eng" unicode="&#x14a;" horiz-adv-x="431" 
d="M92 577v-577h-42v696h40l84.5 -198.5l84.5 -198.5l76 -182h4v579h42v-751q0 -54 -21 -76.5t-56 -22.5q-16 0 -27.5 2.5t-25.5 10.5l13 31q17 -8 34 -8q22 0 30.5 18t8.5 44v63q-9 19 -28 64l-43.5 102.5l-51.5 121l-51 120l-42.5 100.5t-25.5 62h-3z" />
    <glyph glyph-name="eng" unicode="&#x14b;" horiz-adv-x="357" 
d="M85 435h2q17 29 45.5 45t62.5 16t57 -10t37 -28t20 -42t6 -52v-419q0 -54 -21 -77t-56 -23q-16 0 -27.5 3t-25.5 10l13 32q17 -8 33 -8q23 0 31.5 18t8.5 44v407q0 21 -4 40t-14 32.5t-27 21.5t-42 8q-24 0 -42.5 -9.5t-31.5 -25t-19.5 -35.5t-6.5 -41v-342h-42v489h43
v-54z" />
    <glyph glyph-name="Omacron" unicode="&#x14c;" horiz-adv-x="403" 
d="M358 156q0 -81 -42.5 -122t-114.5 -41t-113.5 39t-41.5 115v391q0 75 39.5 119.5t116.5 44.5t116.5 -41t39.5 -119v-386zM315 546q0 52 -29.5 84.5t-83.5 32.5q-29 0 -50 -10.5t-35.5 -28t-21.5 -40.5t-7 -48v-390q0 -51 29.5 -82.5t83.5 -31.5q58 0 86 33t28 88v393z
M100 751v38h207v-38h-207z" />
    <glyph glyph-name="omacron" unicode="&#x14d;" horiz-adv-x="349" 
d="M176 496q55 0 84 -21t40 -53q5 -13 7.5 -34.5t4 -47t1.5 -52v-49.5v-15q0 -26 -0.5 -53t-3.5 -59q-3 -35 -16.5 -58t-33 -36.5t-42.5 -19t-45 -5.5q-60 0 -89.5 24.5t-40.5 62.5q-3 12 -5 30.5t-3 40.5t-1 45v43q0 27 0.5 53.5t2 50.5t4.5 43.5t7 31.5q13 35 44 56.5
t85 21.5zM175 457q-26 0 -50 -10.5t-36 -40.5q-8 -20 -10 -62.5t-2 -98.5v-25q0 -48 1.5 -81t7.5 -51q9 -27 30.5 -41.5t58.5 -14.5q33 0 57 18t32 50q4 17 5.5 54t1.5 79q0 22 -0.5 47l-1 48t-2.5 41.5t-5 28.5q-9 30 -32.5 44.5t-54.5 14.5zM70 589v39h207v-39h-207z" />
    <glyph glyph-name="Obreve" unicode="&#x14e;" horiz-adv-x="403" 
d="M358 156q0 -81 -42.5 -122t-114.5 -41t-113.5 39t-41.5 115v391q0 75 39.5 119.5t116.5 44.5t116.5 -41t39.5 -119v-386zM315 546q0 52 -29.5 84.5t-83.5 32.5q-29 0 -50 -10.5t-35.5 -28t-21.5 -40.5t-7 -48v-390q0 -51 29.5 -82.5t83.5 -31.5q58 0 86 33t28 88v393z
M119 849q5 -32 28.5 -54.5t54.5 -22.5q32 0 55.5 21t28.5 56h37q-3 -19 -11 -38.5t-23 -36t-36.5 -27t-50.5 -10.5q-30 0 -51.5 10.5t-36 27t-22 36t-9.5 38.5h36z" />
    <glyph glyph-name="obreve" unicode="&#x14f;" horiz-adv-x="349" 
d="M176 496q55 0 84 -21t40 -53q5 -13 7.5 -34.5t4 -47t1.5 -52v-49.5v-15q0 -26 -0.5 -53t-3.5 -59q-3 -35 -16.5 -58t-33 -36.5t-42.5 -19t-45 -5.5q-60 0 -89.5 24.5t-40.5 62.5q-3 12 -5 30.5t-3 40.5t-1 45v43q0 27 0.5 53.5t2 50.5t4.5 43.5t7 31.5q13 35 44 56.5
t85 21.5zM175 457q-26 0 -50 -10.5t-36 -40.5q-8 -20 -10 -62.5t-2 -98.5v-25q0 -48 1.5 -81t7.5 -51q9 -27 30.5 -41.5t58.5 -14.5q33 0 57 18t32 50q4 17 5.5 54t1.5 79q0 22 -0.5 47l-1 48t-2.5 41.5t-5 28.5q-9 30 -32.5 44.5t-54.5 14.5zM91 669q5 -32 28.5 -54
t54.5 -22q32 0 55.5 20.5t28.5 55.5h36q-2 -19 -10 -38.5t-23 -36t-36.5 -27t-50.5 -10.5q-30 0 -51.5 10.5t-36 27t-22 36.5t-9.5 38h36z" />
    <glyph glyph-name="Ohungarumlaut" unicode="&#x150;" horiz-adv-x="403" 
d="M358 156q0 -81 -42.5 -122t-114.5 -41t-113.5 39t-41.5 115v391q0 75 39.5 119.5t116.5 44.5t116.5 -41t39.5 -119v-386zM315 546q0 52 -29.5 84.5t-83.5 32.5q-29 0 -50 -10.5t-35.5 -28t-21.5 -40.5t-7 -48v-390q0 -51 29.5 -82.5t83.5 -31.5q58 0 86 33t28 88v393z
M118 748l124 105l33 -36l-140 -89zM228 748l124 105l33 -36l-140 -89z" />
    <glyph glyph-name="ohungarumlaut" unicode="&#x151;" horiz-adv-x="349" 
d="M176 496q55 0 84 -21t40 -53q5 -13 7.5 -34.5t4 -47t1.5 -52v-49.5v-15q0 -26 -0.5 -53t-3.5 -59q-3 -35 -16.5 -58t-33 -36.5t-42.5 -19t-45 -5.5q-60 0 -89.5 24.5t-40.5 62.5q-3 12 -5 30.5t-3 40.5t-1 45v43q0 27 0.5 53.5t2 50.5t4.5 43.5t7 31.5q13 35 44 56.5
t85 21.5zM175 457q-26 0 -50 -10.5t-36 -40.5q-8 -20 -10 -62.5t-2 -98.5v-25q0 -48 1.5 -81t7.5 -51q9 -27 30.5 -41.5t58.5 -14.5q33 0 57 18t32 50q4 17 5.5 54t1.5 79q0 22 -0.5 47l-1 48t-2.5 41.5t-5 28.5q-9 30 -32.5 44.5t-54.5 14.5zM111 566l66 151l46 -17
l-88 -144zM197 566l66 151l46 -17l-88 -144z" />
    <glyph glyph-name="Racute" unicode="&#x154;" horiz-adv-x="397" 
d="M187 696q49 0 83 -12.5t54 -36.5t29 -58.5t9 -78.5q0 -21 -3 -37q-5 -54 -29.5 -91t-75.5 -53l26.5 -80l28.5 -85l28.5 -84.5t26.5 -79.5h-46l-105 320q-9 -1 -19 -1h-20h-79v-319h-43v696h135zM95 657v-300h86q74 0 106 36t32 117q0 34 -7 61.5t-23 46.5t-42.5 29
t-66.5 10h-85zM137 748l128 105l32 -36l-143 -89z" />
    <glyph glyph-name="racute" unicode="&#x155;" horiz-adv-x="234" 
d="M228 446q-6 1 -12.5 1.5t-12.5 0.5q-50 0 -77.5 -34t-27.5 -97v-317h-43v489h43v-67h2q16 39 43 56.5t65 17.5h10t10 -1v-49zM101 566l67 151l45 -17l-88 -144z" />
    <glyph glyph-name="Rcommaaccent" unicode="&#x156;" horiz-adv-x="397" 
d="M187 696q49 0 83 -12.5t54 -36.5t29 -58.5t9 -78.5q0 -21 -3 -37q-5 -54 -29.5 -91t-75.5 -53l26.5 -80l28.5 -85l28.5 -84.5t26.5 -79.5h-46l-105 320q-9 -1 -19 -1h-20h-79v-319h-43v696h135zM95 657v-300h86q74 0 106 36t32 117q0 34 -7 61.5t-23 46.5t-42.5 29
t-66.5 10h-85zM192 -182h-26q5 21 9.5 42.5t9.5 42.5h-13v56h53v-56z" />
    <glyph glyph-name="rcommaaccent" unicode="&#x157;" horiz-adv-x="234" 
d="M228 446q-6 1 -12.5 1.5t-12.5 0.5q-50 0 -77.5 -34t-27.5 -97v-317h-43v489h43v-67h2q16 39 43 56.5t65 17.5h10t10 -1v-49zM71 -202h-26q5 21 9.5 42.5t9.5 42.5h-13v56h53v-56z" />
    <glyph glyph-name="Rcaron" unicode="&#x158;" horiz-adv-x="397" 
d="M187 696q49 0 83 -12.5t54 -36.5t29 -58.5t9 -78.5q0 -21 -3 -37q-5 -54 -29.5 -91t-75.5 -53l26.5 -80l28.5 -85l28.5 -84.5t26.5 -79.5h-46l-105 320q-9 -1 -19 -1h-20h-79v-319h-43v696h135zM95 657v-300h86q74 0 106 36t32 117q0 34 -7 61.5t-23 46.5t-42.5 29
t-66.5 10h-85zM284 852l19 -17l-110 -100h-32l-114 102l18 16l110 -77z" />
    <glyph glyph-name="rcaron" unicode="&#x159;" horiz-adv-x="234" 
d="M228 446q-6 1 -12.5 1.5t-12.5 0.5q-50 0 -77.5 -34t-27.5 -97v-317h-43v489h43v-67h2q16 39 43 56.5t65 17.5h10t10 -1v-49zM225 689l19 -17l-110 -120h-32l-115 122l19 16l110 -97z" />
    <glyph glyph-name="Sacute" unicode="&#x15a;" horiz-adv-x="378" 
d="M347 182q0 -43 -8 -78t-26 -59.5t-48 -38t-75 -13.5q-42 0 -71.5 11.5t-48.5 31.5t-27.5 47t-9.5 59l44 9q0 -23 6 -44.5t19.5 -37.5t35 -25.5t52.5 -9.5q37 0 59.5 12t34.5 32t15.5 47t3.5 56q0 35 -3.5 58.5t-15 41t-34 32t-61.5 31.5q-50 22 -80 43t-45.5 42.5
t-20 45.5t-4.5 53q0 38 9 70t28 55t48 36t70 13q45 0 74.5 -13t47 -34t24.5 -46.5t7 -50.5l-44 -11q0 24 -5.5 44.5t-18.5 36t-34.5 24.5t-52.5 9q-34 0 -55.5 -12.5t-33.5 -32t-16 -42.5t-4 -45q0 -26 5 -45.5t19 -36.5t40 -33t70 -35q45 -19 71 -38.5t39 -42t16.5 -51
t3.5 -65.5zM136 748l128 105l32 -36l-143 -89z" />
    <glyph glyph-name="sacute" unicode="&#x15b;" horiz-adv-x="322" 
d="M69 125q0 -42 23.5 -67t65.5 -25q53 0 73 25t20 70q0 22 -3.5 37.5t-13.5 28t-28 23t-48 21.5q-39 15 -64 30t-38.5 31.5t-18.5 34.5t-5 38q0 55 32 90t101 35q63 0 97.5 -32.5t34.5 -93.5l-45 -7q0 45 -23.5 69t-65.5 24q-26 0 -43 -7.5t-26.5 -19.5t-13.5 -27t-4 -31
t4 -29t15.5 -24.5t32.5 -22.5t54 -23q38 -14 60 -29t33.5 -32.5t15 -38t3.5 -44.5q0 -30 -7 -55t-23 -43t-41.5 -28t-62.5 -10q-64 0 -98.5 31t-36.5 94zM140 566l67 151l45 -17l-88 -144z" />
    <glyph glyph-name="Scircumflex" unicode="&#x15c;" horiz-adv-x="378" 
d="M347 182q0 -43 -8 -78t-26 -59.5t-48 -38t-75 -13.5q-42 0 -71.5 11.5t-48.5 31.5t-27.5 47t-9.5 59l44 9q0 -23 6 -44.5t19.5 -37.5t35 -25.5t52.5 -9.5q37 0 59.5 12t34.5 32t15.5 47t3.5 56q0 35 -3.5 58.5t-15 41t-34 32t-61.5 31.5q-50 22 -80 43t-45.5 42.5
t-20 45.5t-4.5 53q0 38 9 70t28 55t48 36t70 13q45 0 74.5 -13t47 -34t24.5 -46.5t7 -50.5l-44 -11q0 24 -5.5 44.5t-18.5 36t-34.5 24.5t-52.5 9q-34 0 -55.5 -12.5t-33.5 -32t-16 -42.5t-4 -45q0 -26 5 -45.5t19 -36.5t40 -33t70 -35q45 -19 71 -38.5t39 -42t16.5 -51
t3.5 -65.5zM193 811l-110 -77l-19 16l115 103h32l110 -101l-19 -17z" />
    <glyph glyph-name="scircumflex" unicode="&#x15d;" horiz-adv-x="322" 
d="M69 125q0 -42 23.5 -67t65.5 -25q53 0 73 25t20 70q0 22 -3.5 37.5t-13.5 28t-28 23t-48 21.5q-39 15 -64 30t-38.5 31.5t-18.5 34.5t-5 38q0 55 32 90t101 35q63 0 97.5 -32.5t34.5 -93.5l-45 -7q0 45 -23.5 69t-65.5 24q-26 0 -43 -7.5t-26.5 -19.5t-13.5 -27t-4 -31
t4 -29t15.5 -24.5t32.5 -22.5t54 -23q38 -14 60 -29t33.5 -32.5t15 -38t3.5 -44.5q0 -30 -7 -55t-23 -43t-41.5 -28t-62.5 -10q-64 0 -98.5 31t-36.5 94zM165 648l-110 -97l-19 16l115 123h31l111 -121l-20 -17z" />
    <glyph glyph-name="Scedilla" unicode="&#x15e;" horiz-adv-x="378" 
d="M347 182q0 -41 -7.5 -75t-24.5 -59t-44.5 -39t-68.5 -16l-14 -56q23 -2 38.5 -9.5t24.5 -18t12.5 -22.5t3.5 -22q0 -26 -18 -48.5t-58 -22.5q-15 0 -35 2.5t-40 13.5l10 24q17 -8 31.5 -10t26.5 -2q21 0 35 10.5t14 31.5q0 20 -15 33.5t-47 13.5l-16 12l19 71
q-75 4 -107.5 45.5t-33.5 102.5l44 9q0 -23 6 -44.5t19.5 -37.5t35 -25.5t52.5 -9.5q37 0 59.5 12t34.5 32t15.5 47t3.5 56q0 35 -3.5 58.5t-15 41t-34 32t-61.5 31.5q-50 22 -80 43t-45.5 42.5t-20 45.5t-4.5 53q0 38 9 70t28 55t48 36t70 13q45 0 74.5 -13t47 -34
t24.5 -46.5t7 -50.5l-44 -11q0 24 -5.5 44.5t-18.5 36t-34.5 24.5t-52.5 9q-34 0 -55.5 -12.5t-33.5 -32t-16 -42.5t-4 -45q0 -26 5 -45.5t19 -36.5t40 -33t70 -35q45 -19 71 -38.5t39 -42t16.5 -51t3.5 -65.5z" />
    <glyph glyph-name="scedilla" unicode="&#x15f;" horiz-adv-x="322" 
d="M69 125q0 -42 23.5 -67t65.5 -25q53 0 73 25t20 70q0 22 -3.5 37.5t-13.5 28t-28 23t-48 21.5q-39 15 -64 30t-38.5 31.5t-18.5 34.5t-5 38q0 55 32 90t101 35q63 0 97.5 -32.5t34.5 -93.5l-45 -7q0 45 -23.5 69t-65.5 24q-26 0 -43 -7.5t-26.5 -19.5t-13.5 -27t-4 -31
t4 -29t15.5 -24.5t32.5 -22.5t54 -23q38 -14 60 -29t33.5 -32.5t15 -38t3.5 -44.5q0 -57 -26.5 -93.5t-91.5 -41.5l-14 -57q23 -2 38.5 -9.5t24.5 -18t12.5 -22.5t3.5 -22q0 -26 -18 -48.5t-58 -22.5q-15 0 -35 2.5t-40 13.5l10 24q17 -8 31.5 -10t26.5 -2q21 0 35 10.5
t14 31.5q0 20 -15 33.5t-47 13.5l-16 12l19 70q-59 3 -90 34t-33 91z" />
    <glyph glyph-name="Tcommaaccent" unicode="&#x162;" horiz-adv-x="319" 
d="M181 657v-657h-44v657h-132v39h308v-39h-132zM154 -202h-26q5 21 9.5 42.5t9.5 42.5h-13v56h53v-56z" />
    <glyph glyph-name="tcommaaccent" unicode="&#x163;" horiz-adv-x="219" 
d="M18 489h56v134h43v-134h74v-35h-74v-339q0 -37 15.5 -56.5t52.5 -19.5h11v-39h-19q-103 0 -103 110v344h-56v35zM106 -202h-26q5 21 9.5 42.5t9.5 42.5h-13v56h53v-56z" />
    <glyph glyph-name="Tcaron" unicode="&#x164;" horiz-adv-x="319" 
d="M181 657v-657h-44v657h-132v39h308v-39h-132zM269 852l19 -17l-110 -100h-32l-114 102l18 16l110 -77z" />
    <glyph glyph-name="tcaron" unicode="&#x165;" horiz-adv-x="260" 
d="M18 489h56v134h43v-134h74v-35h-74v-339q0 -37 15.5 -56.5t52.5 -19.5h11v-39h-19q-103 0 -103 110v344h-56v35zM209 551h-26q5 21 9.5 42.5t9.5 42.5h-13v56h53v-56z" />
    <glyph glyph-name="Tbar" unicode="&#x166;" horiz-adv-x="319" 
d="M181 657v-250h107v-32h-107v-375h-44v375h-103v32h103v250h-132v39h308v-39h-132z" />
    <glyph glyph-name="tbar" unicode="&#x167;" horiz-adv-x="219" 
d="M18 489h56v134h43v-134h74v-35h-74v-94h72v-32h-72v-213q0 -37 15.5 -56.5t52.5 -19.5h11v-39h-19q-103 0 -103 110v218h-55v32h55v94h-56v35z" />
    <glyph glyph-name="Utilde" unicode="&#x168;" horiz-adv-x="393" 
d="M352 695v-539q0 -81 -42 -122t-114 -41t-114 39t-42 115v548h43v-549q0 -51 29.5 -82.5t83.5 -31.5q57 0 85 33t28 88v542h43zM332 805q-12 -32 -33.5 -47t-41.5 -15q-15 0 -29.5 6t-28.5 13t-27.5 13t-26.5 6q-12 0 -24.5 -9.5t-23.5 -25.5l-24 15q12 25 31 41t40 16
q15 0 29 -6t27.5 -13t27.5 -13t30 -6q28 0 51 39z" />
    <glyph glyph-name="utilde" unicode="&#x169;" horiz-adv-x="358" 
d="M273 55h-3q-17 -29 -45 -45.5t-63 -16.5q-34 0 -57 10.5t-36.5 28.5t-19.5 42t-6 51v365h44v-351q0 -23 4 -42t13.5 -32.5t26.5 -21.5t43 -8q23 0 41.5 9.5t31 25t19.5 35.5t7 41v344h43v-490h-43v55zM315 635q-12 -32 -33.5 -47t-41.5 -15q-15 0 -29.5 6t-28.5 13
t-27.5 13t-26.5 6q-12 0 -24.5 -9.5t-23.5 -25.5l-24 15q12 25 31 41t40 16q15 0 29 -6t27.5 -13t27.5 -13t30 -6q28 0 51 39z" />
    <glyph glyph-name="Umacron" unicode="&#x16a;" horiz-adv-x="393" 
d="M352 695v-539q0 -81 -42 -122t-114 -41t-114 39t-42 115v548h43v-549q0 -51 29.5 -82.5t83.5 -31.5q57 0 85 33t28 88v542h43zM95 751v38h207v-38h-207z" />
    <glyph glyph-name="umacron" unicode="&#x16b;" horiz-adv-x="358" 
d="M273 55h-3q-17 -29 -45 -45.5t-63 -16.5q-34 0 -57 10.5t-36.5 28.5t-19.5 42t-6 51v365h44v-351q0 -23 4 -42t13.5 -32.5t26.5 -21.5t43 -8q23 0 41.5 9.5t31 25t19.5 35.5t7 41v344h43v-490h-43v55zM78 589v39h207v-39h-207z" />
    <glyph glyph-name="Ubreve" unicode="&#x16c;" horiz-adv-x="393" 
d="M352 695v-539q0 -81 -42 -122t-114 -41t-114 39t-42 115v548h43v-549q0 -51 29.5 -82.5t83.5 -31.5q57 0 85 33t28 88v542h43zM113 849q5 -32 28.5 -54.5t54.5 -22.5q32 0 55.5 21t28.5 56h37q-3 -19 -11 -38.5t-23 -36t-36.5 -27t-50.5 -10.5q-30 0 -51.5 10.5t-36 27
t-22 36t-9.5 38.5h36z" />
    <glyph glyph-name="ubreve" unicode="&#x16d;" horiz-adv-x="358" 
d="M273 55h-3q-17 -29 -45 -45.5t-63 -16.5q-34 0 -57 10.5t-36.5 28.5t-19.5 42t-6 51v365h44v-351q0 -23 4 -42t13.5 -32.5t26.5 -21.5t43 -8q23 0 41.5 9.5t31 25t19.5 35.5t7 41v344h43v-490h-43v55zM98 669q5 -32 28.5 -54t54.5 -22q32 0 55.5 20.5t28.5 55.5h36
q-2 -19 -10 -38.5t-23 -36t-36.5 -27t-50.5 -10.5q-30 0 -51.5 10.5t-36 27t-22 36.5t-9.5 38h36z" />
    <glyph glyph-name="Uring" unicode="&#x16e;" horiz-adv-x="393" 
d="M352 695v-539q0 -81 -42 -122t-114 -41t-114 39t-42 115v548h43v-549q0 -51 29.5 -82.5t83.5 -31.5q57 0 85 33t28 88v542h43zM199 712q-33 0 -56.5 24t-23.5 57q0 35 23.5 58.5t56.5 23.5t56.5 -23.5t23.5 -58.5q0 -33 -23.5 -57t-56.5 -24zM199 848q-22 0 -37.5 -16
t-15.5 -39t15.5 -39t37.5 -16t37.5 16t15.5 39t-15.5 39t-37.5 16z" />
    <glyph glyph-name="uring" unicode="&#x16f;" horiz-adv-x="358" 
d="M273 55h-3q-17 -29 -45 -45.5t-63 -16.5q-34 0 -57 10.5t-36.5 28.5t-19.5 42t-6 51v365h44v-351q0 -23 4 -42t13.5 -32.5t26.5 -21.5t43 -8q23 0 41.5 9.5t31 25t19.5 35.5t7 41v344h43v-490h-43v55zM184 550q-33 0 -56.5 24t-23.5 57q0 35 23.5 58.5t56.5 23.5
t56.5 -23.5t23.5 -58.5q0 -33 -23.5 -57t-56.5 -24zM184 686q-22 0 -37.5 -16t-15.5 -39t15.5 -39t37.5 -16t37.5 16t15.5 39t-15.5 39t-37.5 16z" />
    <glyph glyph-name="Uhungarumlaut" unicode="&#x170;" horiz-adv-x="393" 
d="M352 695v-539q0 -81 -42 -122t-114 -41t-114 39t-42 115v548h43v-549q0 -51 29.5 -82.5t83.5 -31.5q57 0 85 33t28 88v542h43zM113 748l124 105l33 -36l-140 -89zM223 748l124 105l33 -36l-140 -89z" />
    <glyph glyph-name="uhungarumlaut" unicode="&#x171;" horiz-adv-x="358" 
d="M273 55h-3q-17 -29 -45 -45.5t-63 -16.5q-34 0 -57 10.5t-36.5 28.5t-19.5 42t-6 51v365h44v-351q0 -23 4 -42t13.5 -32.5t26.5 -21.5t43 -8q23 0 41.5 9.5t31 25t19.5 35.5t7 41v344h43v-490h-43v55zM113 566l66 151l46 -17l-88 -144zM199 566l66 151l46 -17l-88 -144z
" />
    <glyph glyph-name="Uogonek" unicode="&#x172;" horiz-adv-x="393" 
d="M153 -93q0 17 7.5 40t24.5 47q-67 3 -106 41.5t-39 111.5v548h43v-549q0 -51 29.5 -82.5t83.5 -31.5q57 0 85 33t28 88v542h43v-539q0 -75 -35.5 -115.5t-97.5 -46.5q-14 -20 -23 -41.5t-9 -38.5q0 -29 12.5 -40.5t31.5 -11.5q11 0 23.5 3t25.5 12l11 -30q-12 -9 -30 -15
t-35 -6q-33 0 -53 23t-20 58z" />
    <glyph glyph-name="uogonek" unicode="&#x173;" horiz-adv-x="358" 
d="M236 -93q0 19 8.5 43.5t28.5 49.5v55h-3q-17 -29 -45 -45.5t-63 -16.5q-34 0 -57 10.5t-36.5 28.5t-19.5 42t-6 51v365h44v-351q0 -23 4 -42t13.5 -32.5t26.5 -21.5t43 -8q23 0 41.5 9.5t31 25t19.5 35.5t7 41v344h43v-490h-9q-17 -21 -27 -45t-10 -41q0 -29 12.5 -40.5
t31.5 -11.5q11 0 23.5 3t25.5 12l11 -30q-12 -9 -30 -15t-35 -6q-33 0 -53 23t-20 58z" />
    <glyph glyph-name="Wcircumflex" unicode="&#x174;" horiz-adv-x="582" 
d="M452 0h-51l-76 407l-33 191h-3l-33 -193l-76 -405h-50l-117 696h43l65 -398l34 -233h3l39 231l74 400h41l73 -404l40 -227h2l33 227l66 404h43zM292 811l-110 -77l-19 16l115 103h32l110 -101l-19 -17z" />
    <glyph glyph-name="wcircumflex" unicode="&#x175;" horiz-adv-x="525" 
d="M262 410l-92 -410h-45l-57.5 244.5l-57.5 244.5h45q2 -10 9.5 -42.5l17 -76l20.5 -92l20.5 -92l16.5 -76t9 -42.5h2q3 16 10.5 50l17 76.5l20 89.5l19.5 88.5l15.5 73t9.5 43.5h45l34 -155l28.5 -133.5l29.5 -133.5h2l23.5 108.5l22.5 108.5l46 205h45l-115 -489h-45
l-34 147l-30 131l-29 132h-3zM266 648l-110 -97l-19 16l115 123h31l111 -121l-20 -17z" />
    <glyph glyph-name="Ycircumflex" unicode="&#x176;" horiz-adv-x="350" 
d="M174 353l48 141l35 101l35 101h45l-143 -403v-293h-42v293l-143 403h44l70 -203l48 -140h3zM175 811l-110 -77l-19 16l115 103h32l110 -101l-19 -17z" />
    <glyph glyph-name="ycircumflex" unicode="&#x177;" horiz-adv-x="315" 
d="M158 68q14 51 27 105.5l26 106.5l55 209h44l-147 -549q-8 -32 -18 -59q-11 -34 -35.5 -56.5t-65.5 -22.5h-15v38h12q32 0 49 23t27 64l9.5 37.5l9.5 37.5l-65.5 243l-64.5 244h46l52 -210l52 -211h2zM163 648l-110 -97l-19 16l115 123h31l111 -121l-20 -17z" />
    <glyph glyph-name="Zacute" unicode="&#x179;" horiz-adv-x="304" 
d="M289 657l-234 -617h223v-40h-266v39l234 618h-215v39h258v-39zM118 748l128 105l32 -36l-143 -89z" />
    <glyph glyph-name="zacute" unicode="&#x17a;" horiz-adv-x="281" 
d="M267 451l-206 -412h201v-39h-248v39l206 412h-186v37h233v-37zM131 566l67 151l45 -17l-88 -144z" />
    <glyph glyph-name="Zdotaccent" unicode="&#x17b;" horiz-adv-x="304" 
d="M289 657l-234 -617h223v-40h-266v39l234 618h-215v39h258v-39zM145 759v48h41v-48h-41z" />
    <glyph glyph-name="zdotaccent" unicode="&#x17c;" horiz-adv-x="281" 
d="M267 451l-206 -412h201v-39h-248v39l206 412h-186v37h233v-37zM139 589v48h41v-48h-41z" />
    <glyph glyph-name="AEacute" unicode="&#x1fc;" horiz-adv-x="623" 
d="M321 191h-193l-80 -191h-44l290 696h311v-40h-241v-279h212v-39h-212v-298h241v-40h-284v191zM144 231h177v424h-2zM390 748l128 105l32 -36l-143 -89z" />
    <glyph glyph-name="aeacute" unicode="&#x1fd;" horiz-adv-x="561" 
d="M396 -7q-43 0 -74 16.5t-47 46.5q-17 -23 -34 -35.5t-33.5 -18.5t-31.5 -7t-27 -1q-36 0 -60 11.5t-38.5 30.5t-20.5 44t-6 52q0 28 7 55.5t22.5 49.5t42 36t65.5 14h96v78q0 40 -20 66t-73 26q-33 0 -55.5 -15.5t-30.5 -41.5l-41 14q14 38 46 60.5t83 22.5q90 0 115 -56
q18 28 48.5 42t69.5 14q64 0 100 -34.5t36 -98.5v-116h-233v-25.5v-43.5t0.5 -42t1.5 -22q2 -34 26.5 -58t66.5 -24q44 0 66.5 26t26.5 61l42 -9q-6 -55 -41.5 -86.5t-94.5 -31.5zM257 249h-87q-44 0 -74 -26.5t-30 -90.5q0 -19 5 -37t16 -31.5t29 -21.5t44 -8q42 0 69.5 24
t27.5 69v122zM491 286v72q0 42 -22.5 70t-72.5 28q-40 0 -63 -21.5t-28 -58.5q-1 -2 -1.5 -14.5t-1 -27.5t-0.5 -28.5v-19.5h189zM275 566l67 151l45 -17l-88 -144z" />
    <glyph glyph-name="Oslashacute" unicode="&#x1fe;" horiz-adv-x="403" 
d="M358 156q0 -81 -42.5 -122t-114.5 -41q-38 0 -68 10.5t-50 32.5l-21 -49l-26 13l27 64q-17 36 -17 83v391q0 75 39.5 119.5t116.5 44.5q75 0 117 -42l21 49l28 -13l-29 -66q19 -38 19 -88v-386zM315 546q0 6 -0.5 12t-1.5 11l-210 -487q14 -23 38.5 -36.5t59.5 -13.5
q58 0 86 33t28 88v393zM88 146v-11t1 -10l209 487q-14 24 -38 37.5t-58 13.5q-29 0 -50 -10.5t-35.5 -28t-21.5 -40.5t-7 -48v-390zM166 748l127 105l33 -36l-143 -89z" />
    <glyph glyph-name="oslashacute" unicode="&#x1ff;" horiz-adv-x="349" 
d="M176 496q32 0 54.5 -7.5t38.5 -20.5l17 34q6 -3 12 -6.5t13 -6.5l-22 -44q7 -12 11 -23q5 -13 7.5 -34.5t4 -47t1.5 -52v-49.5v-15q0 -26 -0.5 -53t-3.5 -59q-3 -35 -16.5 -58t-33 -36.5t-42.5 -19t-45 -5.5q-34 0 -57.5 7.5t-39.5 21.5l-16 -32l-22 12l21 41
q-5 8 -9.5 17t-6.5 20q-3 12 -5 30.5t-3 40.5t-1 45v43q0 27 0.5 53.5t2 50.5t4.5 43.5t7 31.5q13 35 44 56.5t85 21.5zM263 393l-83 -164l-83 -164q22 -33 78 -33q33 0 57 18t32 50q4 17 5.5 54t1.5 79q0 21 -0.5 45t-1 45.5t-2 40t-4.5 29.5zM175 457q-26 0 -50 -10.5
t-36 -40.5q-8 -20 -10 -62.5t-2 -98.5v-25q0 -44 1 -75t6 -50l81.5 165l82.5 165q-13 17 -31.5 24.5t-41.5 7.5zM143 565l67 151l22.5 -8t22.5 -9l-43.5 -71.5t-44.5 -71.5z" />
    <glyph glyph-name="oslash" unicode="&#xf8;" horiz-adv-x="349" 
d="M176 496q32 0 54.5 -7.5t38.5 -20.5l17 34l25 -13l-22 -44q7 -12 11 -23q5 -13 7.5 -34.5t4 -47t1.5 -52v-49.5v-15q0 -26 -0.5 -53t-3.5 -59q-3 -35 -16.5 -58t-33 -36.5t-42.5 -19t-45 -5.5q-34 0 -57.5 7.5t-39.5 21.5l-16 -32l-22 12l21 41q-5 8 -9.5 17t-6.5 20
q-3 12 -5 30.5t-3 40.5t-1 45v43q0 27 0.5 53.5t2 50.5t4.5 43.5t7 31.5q13 35 44 56.5t85 21.5zM263 393l-83 -164l-83 -164q22 -33 78 -33q33 0 57 18t32 50q4 17 5.5 54t1.5 79q0 21 -0.5 45t-1 45.5t-2 40t-4.5 29.5zM175 457q-26 0 -50 -10.5t-36 -40.5
q-8 -20 -10 -62.5t-2 -98.5v-25q0 -44 1 -75t6 -50l81.5 165l82.5 165q-13 17 -31.5 24.5t-41.5 7.5z" />
    <glyph glyph-name="afii10023" unicode="&#x401;" horiz-adv-x="355" 
d="M52 0v696h284v-40h-241v-279h212v-39h-212v-298h241v-40h-284zM240 745v47h41v-47h-41zM94 745v47h42v-47h-42z" />
    <glyph glyph-name="afii10052" unicode="&#x403;" horiz-adv-x="350" 
d="M96 656v-656h-43v696h278v-40h-235zM132 748l128 105l32 -36l-143 -89z" />
    <glyph glyph-name="afii10054" unicode="&#x405;" horiz-adv-x="378" 
d="M347 182q0 -43 -8 -78t-26 -59.5t-48 -38t-75 -13.5q-42 0 -71.5 11.5t-48.5 31.5t-27.5 47t-9.5 59l44 9q0 -23 6 -44.5t19.5 -37.5t35 -25.5t52.5 -9.5q37 0 59.5 12t34.5 32t15.5 47t3.5 56q0 35 -3.5 58.5t-15 41t-34 32t-61.5 31.5q-50 22 -80 43t-45.5 42.5
t-20 45.5t-4.5 53q0 38 9 70t28 55t48 36t70 13q45 0 74.5 -13t47 -34t24.5 -46.5t7 -50.5l-44 -11q0 24 -5.5 44.5t-18.5 36t-34.5 24.5t-52.5 9q-34 0 -55.5 -12.5t-33.5 -32t-16 -42.5t-4 -45q0 -26 5 -45.5t19 -36.5t40 -33t70 -35q45 -19 71 -38.5t39 -42t16.5 -51
t3.5 -65.5z" />
    <glyph glyph-name="afii10055" unicode="&#x406;" horiz-adv-x="174" 
d="M65 0v696h44v-696h-44z" />
    <glyph glyph-name="afii10056" unicode="&#x407;" horiz-adv-x="174" 
d="M65 0v696h44v-696h-44zM139 764v48h42v-48h-42zM-7 764v48h42v-48h-42z" />
    <glyph glyph-name="afii10057" unicode="&#x408;" horiz-adv-x="321" 
d="M252 696v-546q0 -75 -40 -116t-118 -41q-26 0 -54.5 7t-45.5 26l25 33q15 -12 36 -19t41 -7q19 0 39 5.5t36.5 18.5t27 35.5t10.5 56.5v547h43z" />
    <glyph glyph-name="afii10017" unicode="&#x410;" horiz-adv-x="376" 
d="M325 0l-40 182h-194l-40 -182h-41l153 696h49l156 -696h-43zM187 634l-37 -174l-52 -238h179l-52 240l-36 172h-2z" />
    <glyph glyph-name="afii10019" unicode="&#x412;" horiz-adv-x="410" 
d="M286 366q48 -16 65.5 -60t17.5 -104q0 -55 -12 -93.5t-34.5 -62.5t-54 -35t-71.5 -11h-145v696h146q45 0 76.5 -11.5t50.5 -34t27.5 -54.5t8.5 -73q0 -54 -15 -94t-60 -61v-2zM327 205q0 69 -27.5 106.5t-87.5 37.5h-117v-309h103q39 0 64.5 13.5t39.5 36t19.5 52.5
t5.5 63zM319 523q0 65 -29 99.5t-100 34.5h-95v-271h112q63 0 87.5 35.5t24.5 101.5z" />
    <glyph glyph-name="afii10020" unicode="&#x413;" horiz-adv-x="350" 
d="M96 656v-656h-43v696h278v-40h-235z" />
    <glyph glyph-name="afii10022" unicode="&#x415;" horiz-adv-x="355" 
d="M52 0v696h284v-40h-241v-279h212v-39h-212v-298h241v-40h-284z" />
    <glyph glyph-name="afii10030" unicode="&#x41c;" horiz-adv-x="532" 
d="M435 575l-37 -100.5l-38 -100.5l-81 -212h-30l-39.5 105l-39.5 104l-73 199h-4v-570h-43v696h44l44.5 -118.5l43.5 -118.5l81 -223h3l83 224q3 7 10 25.5l15.5 42l18.5 50.5l19 50.5t15.5 42t9.5 25.5h43v-696h-42v575h-3z" />
    <glyph glyph-name="afii10031" unicode="&#x41d;" horiz-adv-x="412" 
d="M317 0v337h-222v-337h-43v696h43v-320h222v320h43v-696h-43z" />
    <glyph glyph-name="afii10032" unicode="&#x41e;" horiz-adv-x="403" 
d="M358 156q0 -81 -42.5 -122t-114.5 -41t-113.5 39t-41.5 115v391q0 75 39.5 119.5t116.5 44.5t116.5 -41t39.5 -119v-386zM315 546q0 52 -29.5 84.5t-83.5 32.5q-29 0 -50 -10.5t-35.5 -28t-21.5 -40.5t-7 -48v-390q0 -51 29.5 -82.5t83.5 -31.5q58 0 86 33t28 88v393z
" />
    <glyph glyph-name="afii10033" unicode="&#x41f;" horiz-adv-x="407" 
d="M313 0v655h-218v-655h-43v696h304v-696h-43z" />
    <glyph glyph-name="afii10034" unicode="&#x420;" horiz-adv-x="386" 
d="M188 696q52 0 86.5 -14.5t54 -40t27.5 -62t8 -79.5q0 -45 -8.5 -82.5t-29 -64t-55 -41.5t-86.5 -15h-90v-296h-43v695h136zM95 336h87q79 0 109.5 41.5t30.5 121.5q0 34 -6 63t-21.5 50t-42.5 33t-68 12h-89v-321z" />
    <glyph glyph-name="afii10035" unicode="&#x421;" horiz-adv-x="383" 
d="M199 702q32 0 60 -9t48.5 -27.5t32 -46.5t11.5 -66l-43 -9q0 62 -30.5 90t-78.5 28q-55 0 -82.5 -34.5t-27.5 -87.5v-392q0 -51 27.5 -83t82.5 -32q22 0 41.5 6.5t34.5 20.5t24 36.5t9 54.5l43 -8q0 -39 -12.5 -67.5t-33 -47t-48 -27t-58.5 -8.5q-72 0 -112.5 38.5
t-40.5 115.5v390q0 75 37.5 120t115.5 45z" />
    <glyph glyph-name="afii10036" unicode="&#x422;" horiz-adv-x="319" 
d="M181 657v-657h-44v657h-132v39h308v-39h-132z" />
    <glyph glyph-name="afii10038" unicode="&#x424;" horiz-adv-x="481" 
d="M218 612q-27 -2 -51 -10.5t-42 -24t-28.5 -38t-10.5 -51.5v-262q0 -58 37 -92.5t95 -35.5v514zM261 98q59 1 96 35.5t37 92.5v262q0 29 -10.5 51.5t-28.5 38t-42.5 24t-51.5 10.5v-514zM261 0h-43v56q-36 2 -67.5 14t-55 34t-37.5 52.5t-14 69.5v262q0 39 15 69.5
t39.5 52t56 33t63.5 11.5v42h43v-42q33 -1 64.5 -12.5t56.5 -32.5t40 -51.5t15 -69.5v-262q0 -39 -15 -69.5t-39.5 -52.5t-56.5 -34t-65 -14v-56z" />
    <glyph glyph-name="afii10039" unicode="&#x425;" horiz-adv-x="347" 
d="M293 0l-120 304l-121 -304h-46l144 354l-140 341h47l116 -294l116 294h47l-142 -341l146 -354h-47z" />
    <glyph glyph-name="afii10065" unicode="&#x430;" horiz-adv-x="343" 
d="M171 248q-22 0 -41 -6t-33 -20t-22 -36.5t-8 -54.5q0 -40 20.5 -68.5t71.5 -28.5q43 0 71 23.5t28 69.5v121h-87zM38 414q14 38 47 60t85 22q63 0 97 -28.5t34 -101.5v-366h-43v44h-1q-24 -33 -54.5 -41.5t-59.5 -8.5q-33 0 -55.5 11.5t-36.5 30.5t-20.5 43.5t-6.5 51.5
q0 28 6.5 55.5t22.5 50t42.5 36.5t66.5 14h96v78q0 20 -4 36.5t-14 28.5t-27.5 19t-44.5 7q-29 0 -55 -14t-34 -42z" />
    <glyph glyph-name="afii10070" unicode="&#x435;" horiz-adv-x="342" 
d="M174 496q60 0 93.5 -30.5t36.5 -87.5q1 -11 1 -21.5v-21.5v-97h-228v-32q0 -32 1.5 -66.5t7.5 -51.5q9 -26 29 -41t54 -15q45 0 66.5 26t24.5 64l43 -8q-5 -59 -41 -90t-93 -31q-30 0 -52.5 7.5t-37.5 19.5t-24 27.5t-13 32.5q-3 12 -5 31t-2.5 40.5l-1 44.5t-0.5 43
q0 27 0.5 54t2 51t4.5 44t7 32q13 35 43 55.5t84 20.5zM88 404q-7 -17 -8.5 -50.5t-2.5 -79.5h185v61q0 23 -2.5 45t-12 39t-27.5 27t-48 10q-25 0 -48 -11t-36 -41z" />
    <glyph glyph-name="afii10080" unicode="&#x43e;" horiz-adv-x="349" 
d="M176 496q55 0 84 -21t40 -53q5 -13 7.5 -34.5t4 -47t1.5 -52v-49.5v-15q0 -26 -0.5 -53t-3.5 -59q-3 -35 -16.5 -58t-33 -36.5t-42.5 -19t-45 -5.5q-60 0 -89.5 24.5t-40.5 62.5q-3 12 -5 30.5t-3 40.5t-1 45v43q0 27 0.5 53.5t2 50.5t4.5 43.5t7 31.5q13 35 44 56.5
t85 21.5zM175 457q-26 0 -50 -10.5t-36 -40.5q-8 -20 -10 -62.5t-2 -98.5v-25q0 -48 1.5 -81t7.5 -51q9 -27 30.5 -41.5t58.5 -14.5q33 0 57 18t32 50q4 17 5.5 54t1.5 79q0 22 -0.5 47l-1 48t-2.5 41.5t-5 28.5q-9 30 -32.5 44.5t-54.5 14.5z" />
    <glyph glyph-name="afii10081" unicode="&#x43f;" horiz-adv-x="364" 
d="M276 0v452h-186v-452h-44v489h273v-489h-43z" />
    <glyph glyph-name="afii10082" unicode="&#x440;" horiz-adv-x="349" 
d="M178 454q-45 0 -72 -29t-27 -76v-202q0 -22 6 -42.5t18 -36t30 -25t42 -9.5q30 0 53 16t31 47q3 10 4.5 27.5t2.5 39t1 45v46.5q0 47 -1.5 83.5t-6.5 53.5q-10 35 -30 48.5t-51 13.5zM188 495q18 0 38 -5t37 -18t29.5 -35.5t15.5 -57.5q3 -32 3.5 -61.5t0.5 -57.5v-14
q0 -57 -2 -102t-13 -77q-11 -31 -37.5 -52.5t-78.5 -21.5q-40 0 -66 18.5t-34 36.5h-2v-242h-42v682h42v-46h2q17 25 41.5 39t65.5 14z" />
    <glyph glyph-name="afii10083" unicode="&#x441;" horiz-adv-x="329" 
d="M175 496q63 0 96 -33t33 -96q-11 -2 -22 -3.5t-22 -3.5q1 46 -22 71.5t-66 25.5q-27 0 -48.5 -12t-34.5 -41q-8 -19 -10 -65t-2 -106v-13q0 -18 0.5 -37t1.5 -37t2.5 -33t4.5 -24q9 -27 30 -42t54 -15q41 0 65.5 22.5t24.5 72.5l44 -8q-2 -63 -37 -94.5t-97 -31.5
q-30 0 -52.5 7.5t-37.5 19.5t-24 27.5t-13 32.5q-3 12 -5 31t-2.5 41l-1 44.5t-0.5 42.5q0 27 0.5 54t2 51t4.5 43.5t7 31.5q13 35 43 56t84 21z" />
    <glyph glyph-name="afii10085" unicode="&#x443;" horiz-adv-x="315" 
d="M158 68q14 51 27 105.5l26 106.5l55 209h44l-147 -549q-8 -32 -18 -59q-11 -34 -35.5 -56.5t-65.5 -22.5h-15v38h12q32 0 49 23t27 64l9.5 37.5l9.5 37.5l-65.5 243l-64.5 244h46l52 -210l52 -211h2z" />
    <glyph glyph-name="afii10087" unicode="&#x445;" horiz-adv-x="295" 
d="M242 0l-94 212l-95 -212h-47l116 251l-109 238h48l87 -201l88 201h49l-111 -238l116 -251h-48z" />
    <glyph glyph-name="afii10071" unicode="&#x451;" horiz-adv-x="342" 
d="M174 496q60 0 93.5 -30.5t36.5 -87.5q1 -11 1 -21.5v-21.5v-97h-228v-32q0 -32 1.5 -66.5t7.5 -51.5q9 -26 29 -41t54 -15q45 0 66.5 26t24.5 64l43 -8q-5 -59 -41 -90t-93 -31q-30 0 -52.5 7.5t-37.5 19.5t-24 27.5t-13 32.5q-3 12 -5 31t-2.5 40.5l-1 44.5t-0.5 43
q0 27 0.5 54t2 51t4.5 44t7 32q13 35 43 55.5t84 20.5zM88 404q-7 -17 -8.5 -50.5t-2.5 -79.5h185v61q0 23 -2.5 45t-12 39t-27.5 27t-48 10q-25 0 -48 -11t-36 -41zM225 592v48h42v-48h-42zM79 592v48h42v-48h-42z" />
    <glyph glyph-name="afii10102" unicode="&#x455;" horiz-adv-x="322" 
d="M69 125q0 -42 23.5 -67t65.5 -25q53 0 73 25t20 70q0 22 -3.5 37.5t-13.5 28t-28 23t-48 21.5q-39 15 -64 30t-38.5 31.5t-18.5 34.5t-5 38q0 55 32 90t101 35q63 0 97.5 -32.5t34.5 -93.5l-45 -7q0 45 -23.5 69t-65.5 24q-26 0 -43 -7.5t-26.5 -19.5t-13.5 -27t-4 -31
t4 -29t15.5 -24.5t32.5 -22.5t54 -23q38 -14 60 -29t33.5 -32.5t15 -38t3.5 -44.5q0 -30 -7 -55t-23 -43t-41.5 -28t-62.5 -10q-64 0 -98.5 31t-36.5 94z" />
    <glyph glyph-name="afii10103" unicode="&#x456;" horiz-adv-x="155" 
d="M54 608v48h45v-48h-45zM55 0v489h43v-489h-43z" />
    <glyph glyph-name="afii10104" unicode="&#x457;" horiz-adv-x="155" 
d="M129 585v48h42v-48h-42zM-17 585v48h42v-48h-42zM55 0v489h43v-489h-43z" />
    <glyph glyph-name="afii10105" unicode="&#x458;" horiz-adv-x="149" 
d="M55 489h42v-562q0 -29 -4 -52.5t-15 -40.5t-30 -26.5t-50 -9.5h-13v38h7q40 0 51.5 21.5t11.5 62.5v569zM54 656h45v-48h-45v48z" />
    <glyph glyph-name="afii10110" unicode="&#x45e;" horiz-adv-x="315" 
d="M158 68q14 51 27 105.5l26 106.5l55 209h44l-147 -549q-8 -32 -18 -59q-11 -34 -35.5 -56.5t-65.5 -22.5h-15v38h12q32 0 49 23t27 64l9.5 37.5l9.5 37.5l-65.5 243l-64.5 244h46l52 -210l52 -211h2zM78 669q5 -32 28.5 -54t54.5 -22q32 0 55.5 20.5t28.5 55.5h36
q-2 -19 -10 -38.5t-23 -36t-36.5 -27t-50.5 -10.5q-30 0 -51.5 10.5t-36 27t-22 36.5t-9.5 38h36z" />
    <glyph glyph-name="afii10053" unicode="&#x404;" horiz-adv-x="380" 
d="M351 118q-5 -33 -18.5 -56.5t-34 -39t-46 -22.5t-53.5 -7q-72 0 -112.5 38.5t-40.5 115.5v390q0 75 37.5 120t115.5 45q60 0 101.5 -28.5t49.5 -93.5l-43 -12q-5 51 -35 72.5t-73 21.5q-55 0 -82.5 -34.5t-27.5 -87.5v-165h175v-42h-175v-185q0 -51 27.5 -83t82.5 -32
q40 0 71.5 22t37.5 74z" />
    <glyph glyph-name="afii10047" unicode="&#x42d;" horiz-adv-x="379" 
d="M62 129q6 -52 36.5 -74.5t70.5 -22.5q61 0 86.5 36.5t25.5 99.5v166h-175v42h175v171q0 61 -29.5 88t-77.5 27q-42 0 -74.5 -24t-38.5 -73l-42 11q4 31 18 54.5t35 39.5t47.5 24t56.5 8q68 0 108 -37t40 -124v-374q0 -95 -41.5 -134.5t-114.5 -39.5q-28 0 -53.5 7.5
t-45 22.5t-33 38.5t-17.5 56.5z" />
    <glyph glyph-name="afii10046" unicode="&#x42c;" horiz-adv-x="386" 
d="M44 0v696h43v-309h90q52 0 86.5 -14t55.5 -39t29.5 -60t8.5 -77t-8 -78t-28 -62.5t-54.5 -41.5t-86.5 -15h-136zM176 41q41 0 68 12t42.5 33t21.5 49.5t6 61.5q0 72 -32.5 110.5t-107.5 38.5h-87v-305h89z" />
    <glyph glyph-name="afii10045" unicode="&#x42b;" horiz-adv-x="519" 
d="M51 0v696h43v-309h90q52 0 86.5 -14t55.5 -39t29.5 -60t8.5 -77t-8 -78t-28 -62.5t-54.5 -41.5t-87.5 -15h-135zM183 41q41 0 68 12t42.5 33t21.5 49.5t6 61.5q0 72 -32.5 110.5t-107.5 38.5h-87v-305h89zM420 696h43v-696h-43v696z" />
    <glyph glyph-name="afii10044" unicode="&#x42a;" horiz-adv-x="528" 
d="M186 0v656h-177v40h220v-308h90q52 0 86.5 -14t55.5 -39t29.5 -60t8.5 -77t-8 -78.5t-28 -63t-54.5 -41.5t-86.5 -15h-136zM229 42h89q41 0 68 12t42.5 33t21.5 49.5t6 61.5q0 71 -32.5 110t-107.5 39h-87v-305z" />
    <glyph glyph-name="afii10059" unicode="&#x40a;" horiz-adv-x="643" 
d="M301 0v342h-206v-342h-43v696h43v-314h206v314h43v-314h90q52 0 86.5 -13.5t55.5 -37.5t29.5 -58.5t8.5 -76.5t-8 -78t-28 -62.5t-54.5 -41t-86.5 -14.5h-136zM433 41q41 0 68 11.5t42.5 32.5t21.5 49t6 61q0 72 -32.5 109t-107.5 37h-87v-300h89z" />
    <glyph glyph-name="afii10048" unicode="&#x42e;" horiz-adv-x="528" 
d="M483 149q0 -41 -12 -70t-32 -48.5t-48 -28.5t-59 -9q-32 0 -59.5 9t-47.5 27.5t-32 46t-12 65.5v196h-86v-337h-43v696h43v-320h86v169q0 75 41.5 116t109.5 41q69 0 110 -39t41 -117v-397zM440 547q0 52 -30 84t-78 32q-26 0 -46 -10t-34 -26.5t-21 -39t-7 -47.5v-396
q0 -51 30.5 -81.5t76.5 -30.5q48 0 78.5 31.5t30.5 86.5v397z" />
    <glyph glyph-name="afii10040" unicode="&#x426;" horiz-adv-x="411" 
d="M359 696v-655h35v-171h-39v130h-303v696h43v-655h220v655h44z" />
    <glyph glyph-name="afii10042" unicode="&#x428;" horiz-adv-x="599" 
d="M547 696v-696h-495v696h43v-654h182v654h43v-654h183v654h44z" />
    <glyph glyph-name="afii10043" unicode="&#x429;" horiz-adv-x="601" 
d="M547 42h36v-172h-38v130h-493v696h43v-654h182v654h43v-654h183v654h44v-654z" />
    <glyph glyph-name="afii10037" unicode="&#x423;" horiz-adv-x="382" 
d="M199 239l122 457h42l-152 -556q-13 -47 -26.5 -76t-28.5 -45t-32.5 -22t-36.5 -6h-23v38h20q29 0 48 20.5t35 73.5l12 41l-162 532h44l135 -457h3z" />
    <glyph glyph-name="afii10145" unicode="&#x40f;" horiz-adv-x="407" 
d="M356 696v-696h-130v-136h-43v136h-131v696h43v-654h218v654h43z" />
    <glyph glyph-name="afii10041" unicode="&#x427;" horiz-adv-x="383" 
d="M71 696v-233q0 -35 7 -59t22.5 -39t40.5 -21.5t60 -6.5q18 0 44 4.5t49 14.5v340h43v-695h-43v319q-19 -8 -49.5 -13.5t-52.5 -5.5q-82 0 -122 36t-40 126v233h41z" />
    <glyph glyph-name="afii10025" unicode="&#x417;" horiz-adv-x="374" 
d="M275 227q0 60 -22 90.5t-62 30.5h-54v41h36q45 0 74 24t29 89v40q0 63 -30 91t-76 28q-48 0 -80.5 -28.5t-32.5 -88.5q-11 2 -21 4.5l-21 5.5q1 39 14.5 67t35 46t49.5 26.5t58 8.5q63 0 102.5 -35t42.5 -106q1 -9 1 -18.5v-19.5q0 -18 -1.5 -41.5t-8.5 -45.5t-20 -40
t-35 -26v-1q23 -9 36 -25.5t19.5 -36t8 -40t1.5 -38.5v-81q-2 -41 -15 -70t-34 -48t-48 -28t-57 -9q-29 0 -56 8t-48 26t-33.5 46.5t-13.5 68.5l42 9q0 -33 9 -55.5t24 -37t34.5 -20.5t41.5 -6q49 0 80 30.5t31 101.5v63v0z" />
    <glyph glyph-name="afii10018" unicode="&#x411;" horiz-adv-x="386" 
d="M88 42h89q41 0 68 12t42.5 33t21.5 49.5t6 61.5q0 71 -32.5 110t-107.5 39h-87v-305zM88 388h90q52 0 86.5 -14t55.5 -39t29.5 -60t8.5 -77t-8 -78.5t-28 -63t-54.5 -41.5t-87.5 -15h-135v696h272v-40h-229v-268z" />
    <glyph glyph-name="afii10029" unicode="&#x41b;" horiz-adv-x="430" 
d="M134 342q0 -92 -5 -152t-18 -100t-34.5 -64.5t-54.5 -43.5l-20 32q24 17 41.5 36t28.5 52t16.5 86t5.5 140v368h285v-696h-43v656h-202v-314z" />
    <glyph glyph-name="afii10021" unicode="&#x414;" horiz-adv-x="458" 
d="M45 -131h-40v168l33 2q16 19 27.5 41t19 53t12 75t6.5 108l11 380h287v-657h39v-170h-39v131h-356v-131zM358 39v617h-204l-10 -334q-3 -99 -13 -167t-41 -116h268z" />
    <glyph glyph-name="afii10058" unicode="&#x409;" horiz-adv-x="651" 
d="M352 387h90q52 0 86.5 -14t55.5 -39t29.5 -60t8.5 -77t-8 -78t-28 -62.5t-54.5 -41.5t-86.5 -15h-136v656h-175v-314q0 -92 -5.5 -152.5t-18 -100t-34 -63.5t-54.5 -43q-5 8 -10 15t-10 15q24 17 41.5 35t28.5 50t16.5 86t5.5 144v368h258v-309zM441 41q41 0 68 12
t42.5 33t21.5 49.5t6 61.5q0 72 -32.5 110.5t-107.5 38.5h-87v-305h89z" />
    <glyph glyph-name="afii10026" unicode="&#x418;" horiz-adv-x="414" 
d="M319 588l-228 -588h-41v696h42v-588h4l226 588h42v-696h-43v588h-2z" />
    <glyph glyph-name="afii10051" unicode="&#x402;" horiz-adv-x="481" 
d="M300 470q60 0 94.5 -31t36.5 -100q1 -13 1 -26v-27v-118q0 -14 -0.5 -27.5t-1.5 -27.5q-4 -72 -39.5 -104t-98.5 -33v37q56 0 76.5 33.5t20.5 87.5v184q0 110 -95 110q-28 0 -57.5 -12.5t-55.5 -35.5v-380h-44v657h-119v39h348v-39h-185v-228h2q29 22 58.5 31.5t58.5 9.5
z" />
    <glyph glyph-name="afii10060" unicode="&#x40b;" horiz-adv-x="481" 
d="M389 0v324q0 48 -21 76t-74 28q-32 0 -61 -13.5t-52 -34.5v-380h-44v657h-119v39h348v-39h-185v-228h2q29 22 58.5 31.5t58.5 9.5q37 0 62 -11.5t41 -30.5t23 -44t7 -52v-332h-44z" />
    <glyph glyph-name="afii10067" unicode="&#x432;" horiz-adv-x="361" 
d="M88 450v-174h95q52 0 72.5 23.5t20.5 65.5t-24.5 63.5t-83.5 21.5h-80zM88 239v-199h88q33 0 53.5 8.5t32.5 23t16.5 33.5t4.5 41q0 45 -22.5 69t-72.5 24h-100zM45 0v489h127q80 0 113.5 -32.5t33.5 -92.5q0 -35 -11 -62.5t-42 -43.5q35 -14 47.5 -46.5t12.5 -67.5
q0 -79 -41 -111.5t-111 -32.5h-129z" />
    <glyph glyph-name="afii10068" unicode="&#x433;" horiz-adv-x="307" 
d="M89 451v-451h-44v489h246v-38h-202z" />
    <glyph glyph-name="afii10069" unicode="&#x434;" horiz-adv-x="401" 
d="M48 -127h-41v165l31 1q13 13 22 29t15 39t9 56t5 80l7 246h255v-450h33v-166h-40v127h-296v-127zM307 451h-170l-8 -215q-2 -72 -10.5 -121.5t-28.5 -75.5h217v412z" />
    <glyph glyph-name="afii10073" unicode="&#x437;" horiz-adv-x="320" 
d="M113 277h58q28 0 46.5 20t18.5 70q0 24 -7.5 40.5t-19.5 27t-28 15.5t-34 5q-38 0 -63.5 -19t-29.5 -61l-41 9q5 57 43.5 84t90.5 27q27 0 51 -6t42 -20.5t28.5 -39t10.5 -60.5q0 -16 -2 -32.5t-7.5 -31.5t-15.5 -27t-26 -19v-1q33 -14 42 -45t9 -74q0 -41 -12 -68.5
t-31.5 -44t-44.5 -24t-50 -7.5t-48.5 6t-42 19.5t-30 35t-13.5 53.5l42 6q3 -44 29.5 -62.5t63.5 -18.5q17 0 34 5.5t30.5 17.5t21.5 32.5t8 50.5q0 56 -19 77.5t-50 21.5h-54v38z" />
    <glyph glyph-name="afii10074" unicode="&#x438;" horiz-adv-x="370" 
d="M284 0v410h-1l-99 -205l-100 -205h-42v489h43v-409l199 409h43v-489h-43z" />
    <glyph glyph-name="afii10077" unicode="&#x43b;" horiz-adv-x="365" 
d="M5 15q22 14 37 31t24 41.5t13 59.5t4 86v256h242v-489h-44v451h-158v-225q0 -49 -4.5 -87.5t-16 -68.5t-30.5 -51.5t-47 -36.5z" />
    <glyph glyph-name="afii10078" unicode="&#x43c;" horiz-adv-x="466" 
d="M374 387l-35.5 -76l-34.5 -76l-58 -123h-30l-28 61l-28 60l-71 156l-1 -1v-388h-43v489h42l145 -314h1l146 314h42v-489h-43v387h-4z" />
    <glyph glyph-name="afii10079" unicode="&#x43d;" horiz-adv-x="360" 
d="M272 0v232h-183v-232h-44v489h44v-218h183v218h45v-489h-45z" />
    <glyph glyph-name="afii10084" unicode="&#x442;" horiz-adv-x="279" 
d="M160 451v-451h-42v451h-114v38h271v-38h-115z" />
    <glyph glyph-name="afii10086" unicode="&#x444;" horiz-adv-x="436" 
d="M238 497q72 -2 112.5 -36.5t45.5 -91.5q3 -35 3 -73.5v-78.5v-74q-2 -75 -43 -113t-118 -42v-185h-42v185q-75 5 -117.5 44t-42.5 113q0 18 -0.5 36t-0.5 36q0 42 1 81t5 75q5 54 45 88t110 36v195h42v-195zM238 27q38 0 64.5 15.5t40.5 38.5q8 14 11 30.5t3 34.5v204
q0 14 -4 27t-10 24q-13 25 -38.5 39t-66.5 16v-429zM196 456q-39 -2 -65 -17t-40 -39q-12 -21 -12 -48q-1 -33 -1 -69v-72v-73q1 -17 4 -31.5t9 -25.5q13 -24 39 -38t66 -16v429z" />
    <glyph glyph-name="afii10088" unicode="&#x446;" horiz-adv-x="364" 
d="M317 489v-448h32v-168h-39v127h-265v489h44v-448h183v448h45z" />
    <glyph glyph-name="afii10089" unicode="&#x447;" horiz-adv-x="340" 
d="M298 489v-489h-43v223q-25 -18 -56 -27t-57 -9q-34 0 -56.5 9t-36 24.5t-19 37.5t-5.5 49v182h44v-169q0 -22 2.5 -39t11.5 -29t25 -18.5t43 -6.5q26 0 55 10.5t49 27.5v224h43z" />
    <glyph glyph-name="afii10090" unicode="&#x448;" horiz-adv-x="543" 
d="M497 489v-489h-451v489h43v-448h159v448h44v-448h161v448h44z" />
    <glyph glyph-name="afii10091" unicode="&#x449;" horiz-adv-x="550" 
d="M496 489v-448h33v-168h-38v127h-445v489h43v-448h159v448h44v-448h160v448h44z" />
    <glyph glyph-name="afii10092" unicode="&#x44a;" horiz-adv-x="462" 
d="M204 41h73q34 0 56.5 8.5t36 22.5t18.5 32.5t5 39.5q0 46 -27.5 70.5t-90.5 24.5h-71v-198zM161 0v451h-152v38h195v-209h74q46 0 76.5 -10.5t48.5 -28.5t25.5 -42.5t7.5 -52.5q0 -30 -7 -56.5t-24.5 -46.5t-48 -31.5t-76.5 -11.5h-119z" />
    <glyph glyph-name="afii10093" unicode="&#x44b;" horiz-adv-x="455" 
d="M87 41h73q34 0 56.5 8.5t36 22.5t18.5 32.5t5 39.5q0 46 -27.5 70.5t-89.5 24.5h-72v-198zM364 0v489h44v-489h-44zM45 0v489h42v-209h75q46 0 76 -10.5t48 -28.5t25.5 -42.5t7.5 -52.5q0 -30 -7 -56.5t-24 -46.5t-47.5 -31.5t-76.5 -11.5h-119z" />
    <glyph glyph-name="afii10094" unicode="&#x44c;" horiz-adv-x="338" 
d="M82 41h73q34 0 56.5 8.5t36 22.5t18.5 32.5t5 39.5q0 46 -27.5 70.5t-89.5 24.5h-72v-198zM39 0v489h43v-209h74q46 0 76.5 -10.5t48.5 -28.5t25.5 -42.5t7.5 -52.5q0 -30 -7 -56.5t-24.5 -46.5t-47.5 -31.5t-76 -11.5h-120z" />
    <glyph glyph-name="afii10095" unicode="&#x44d;" horiz-adv-x="330" 
d="M95 269h150q-1 48 -1.5 83.5t-7.5 51.5q-12 30 -33.5 41.5t-49.5 11.5q-35 0 -59.5 -20.5t-27.5 -58.5l-45 9q6 48 43 78.5t91 30.5t82 -20t41 -55q4 -12 6.5 -31.5t3.5 -44t1 -52v-54.5v-42.5t-1 -44.5t-2.5 -41t-4.5 -31q-5 -17 -13.5 -32.5t-23.5 -27.5t-37 -19.5
t-54 -7.5q-58 0 -92.5 27t-40.5 81l22 4l22 4q5 -38 27.5 -57.5t60.5 -19.5t58.5 15t28.5 42q5 16 6 47.5t1 92.5h-151v40z" />
    <glyph glyph-name="afii10096" unicode="&#x44e;" horiz-adv-x="461" 
d="M41 489h43v-219h71q0 23 0.5 45.5t2 42.5t3.5 36t6 26q12 35 42 55t82 20q53 0 79 -19t38 -48q7 -18 10 -40t4 -45.5t1 -46.5t1 -43v-27q0 -27 -1 -55t-4 -59q-3 -35 -16 -58t-31 -36.5t-40 -19t-44 -5.5q-60 0 -88 24.5t-38 62.5q-3 10 -4 27.5t-2 38.5t-1 43v42h-71
v-231h-43v489zM290 456q-25 0 -47.5 -10.5t-34.5 -40.5q-8 -19 -9 -61.5t-2 -98.5v-25q1 -48 2 -81t6 -51q9 -27 29 -41.5t56 -14.5q31 0 53 17t32 50q4 17 5 54.5t1 79.5q0 22 -0.5 47t-1 47.5t-2.5 41t-5 28.5q-8 30 -29.5 44.5t-52.5 14.5z" />
    <glyph glyph-name="afii10101" unicode="&#x454;" horiz-adv-x="338" 
d="M314 106q-5 -57 -39.5 -85t-93.5 -28q-30 0 -52.5 7.5t-37.5 19.5t-24 27.5t-13 32.5q-3 12 -5 31t-2.5 41l-1 44.5t-0.5 42.5q0 27 0.5 54t2 51t4.5 43.5t7 31.5q13 35 43 56t84 21q58 0 90.5 -29t37.5 -83l-43 -11q-3 41 -25.5 62.5t-62.5 21.5q-27 0 -48.5 -12
t-34.5 -41q-7 -16 -9 -52t-3 -84h147v-39h-147q0 -45 2 -83.5t7 -56.5q9 -27 30 -42t54 -15q38 0 62.5 19.5t27.5 62.5z" />
    <glyph glyph-name="afii10106" unicode="&#x459;" horiz-adv-x="561" 
d="M120 451v-225q0 -49 -4.5 -87.5t-15.5 -68.5t-30 -51.5t-48 -36.5l-20 33q22 14 37 31t24 41.5t13 59.5t4 86v256h223v-209h74q45 0 75.5 -10.5t49 -29t26 -43.5t7.5 -55t-7 -56t-25 -45t-48 -30t-76 -11h-120v451h-139zM303 41h73q34 0 56.5 8t35.5 22t18 32t5 39
q0 46 -27 71t-90 25h-71v-197z" />
    <glyph glyph-name="afii10107" unicode="&#x45a;" horiz-adv-x="563" 
d="M305 41h72q34 0 56.5 8t35.5 22t18 32t5 39q0 45 -27 69t-90 24h-70v-194zM260 0v236h-170v-236h-43v489h43v-212h170v212h45v-212h72q46 0 76.5 -10t49 -28t26 -43t7.5 -54q0 -30 -7 -56t-24.5 -45t-48 -30t-77.5 -11h-119z" />
    <glyph glyph-name="afii10108" unicode="&#x45b;" horiz-adv-x="364" 
d="M89 614h186v-34h-186v-153h1q17 29 46 45.5t64 16.5q34 0 57 -10.5t36.5 -28.5t19.5 -42t6 -51v-357h-44v343q0 44 -18.5 73t-69.5 29q-24 0 -42.5 -9t-31 -24t-19 -35t-6.5 -41v-336h-42v580h-46v34h46v113h43v-113z" />
    <glyph glyph-name="afii10193" unicode="&#x45f;" horiz-adv-x="361" 
d="M317 489v-489h-114v-134h-43v134h-115v489h44v-448h184v448h44z" />
    <glyph glyph-name="afii10066" unicode="&#x431;" horiz-adv-x="355" 
d="M192 477q51 0 77.5 -23t37.5 -53q4 -11 6 -30.5t3 -42.5t1 -48.5v-48.5v-10q0 -27 -0.5 -52t-3.5 -57q-3 -35 -16.5 -58t-32.5 -36.5t-42 -19t-45 -5.5q-61 0 -90.5 24.5t-40.5 62.5q-3 12 -5 30t-2.5 39l-1 43.5t-0.5 42.5v120q2 91 10 150t31 97q14 22 32 37.5t40 26.5
q34 17 65.5 27.5t63.5 25.5l17 -34q-17 -9 -32.5 -14.5l-30.5 -11l-31.5 -12t-34.5 -16.5q-19 -11 -34 -25.5t-27 -36.5q-15 -26 -19 -69.5t-6 -89.5h3q11 21 25.5 34.5t29.5 20.5t28.5 9.5t24.5 2.5zM186 437q-30 0 -51.5 -15t-34.5 -41q-8 -16 -12 -36t-5 -43l-3 -77v-18
q0 -45 2 -73.5t7 -45.5q19 -56 90 -56q34 0 58.5 17t32.5 52q4 16 5 51t1 77v41.5t-0.5 41.5t-2.5 37t-5 28q-8 27 -26.5 43.5t-55.5 16.5z" />
    <glyph glyph-name="afii10099" unicode="&#x452;" horiz-adv-x="364" 
d="M198 494q51 0 76.5 -20.5t37.5 -52.5q4 -14 6.5 -34.5t3.5 -44.5t1.5 -49.5t0.5 -49.5v-34q0 -31 -1 -65t-6 -63q-8 -57 -44.5 -83t-90.5 -25v37q32 0 56 15.5t35 49.5q5 16 6 53t1 79q0 24 -0.5 52.5l-1 55t-2.5 48t-5 32.5q-17 56 -83 56q-24 0 -43 -9.5t-31.5 -25.5
t-19 -36.5t-6.5 -41.5v-338h-43v580h-45v33h45v113h43v-113h187v-33h-187v-149h2q16 29 44.5 46t63.5 17z" />
    <glyph glyph-name="afii10050" unicode="&#x490;" horiz-adv-x="350" 
d="M96 656v-656h-43v696h238v116h40v-156h-235z" />
    <glyph glyph-name="afii10098" unicode="&#x491;" horiz-adv-x="307" 
d="M89 451v-451h-44v489h205v112h41v-150h-202z" />
    <glyph glyph-name="OE" unicode="&#x152;" horiz-adv-x="575" 
d="M246 697h10t9 -1h281v-40h-241v-279h212v-40h-212v-298h241v-39h-279q-14 -3 -31.5 -5t-35.5 -2q-72 0 -114 38.5t-42 114.5v392q0 75 40 119.5t116 44.5q13 0 24 -0.5t22 -4.5zM200 662q-29 0 -50 -10.5t-35 -28t-21 -40.5t-7 -48v-390q0 -51 29 -82t83 -31q41 0 64 11
v608q-14 7 -29 9t-34 2z" />
    <glyph glyph-name="zero.text" unicode="&#xe000;" horiz-adv-x="353" 
d="M306 114q0 -31 -10.5 -53.5t-28 -37.5t-41 -22.5t-49.5 -7.5t-49.5 7.5t-41 22.5t-28 37.5t-10.5 53.5v467q0 30 10.5 52.5t28 38t41 23t49.5 7.5q27 0 50.5 -7.5t41 -23t27.5 -38t10 -52.5v-467zM263 582q0 37 -24 58.5t-62 21.5t-62.5 -21.5t-24.5 -58.5v-469
q0 -37 24.5 -58.5t62.5 -21.5t62 21.5t24 58.5v469z" />
    <glyph glyph-name="one.text" unicode="&#xe001;" horiz-adv-x="272" 
d="M146 1v648l-107 -76v48l105 75h45v-695h-43z" />
    <glyph glyph-name="two.text" unicode="&#xe002;" horiz-adv-x="353" 
d="M178 662q-35 0 -61.5 -26t-26.5 -88l-42 7q2 74 36.5 110.5t95.5 36.5q70 0 100.5 -40.5t30.5 -106.5q0 -48 -9 -83t-28 -72l-179 -360h210v-40h-257v40l192 386q16 32 21 63t5 66q0 20 -3.5 39.5t-13 34.5t-26.5 24t-45 9z" />
    <glyph glyph-name="three.text" unicode="&#xe003;" horiz-adv-x="353" 
d="M180 702q36 0 60 -9.5t38.5 -27t20.5 -42t6 -53.5v-92q-1 -18 -3.5 -35t-9.5 -32.5t-19 -27.5t-32 -19v-1q22 -8 35 -21t19.5 -30.5t8 -38.5t1.5 -43v-103q0 -63 -33 -98.5t-98 -35.5q-56 0 -91.5 32.5t-35.5 104.5l43 12q0 -50 18.5 -79.5t66.5 -29.5q38 0 63 21t25 72
v116q0 56 -23.5 78t-59.5 22h-27v41h29q35 0 58 20.5t23 73.5v99q0 37 -20 61t-66 24t-66.5 -30t-20.5 -76q-11 2 -21.5 3.5t-21.5 3.5q1 63 34 101.5t99 38.5z" />
    <glyph glyph-name="four.text" unicode="&#xe004;" horiz-adv-x="353" 
d="M274 121v-120h-43v120h-205v39l145 536h43l-147 -536h164v195h43v-195h57v-39h-57z" />
    <glyph glyph-name="five.text" unicode="&#xe005;" horiz-adv-x="353" 
d="M178 -7q-58 0 -93 34t-36 108l43 7q0 -49 18.5 -79t68.5 -30q38 0 62 21.5t24 72.5l1 192q0 46 -24 66t-62 20q-26 0 -48.5 -11t-31.5 -31h-40v333h246v-38h-207v-248h3q32 32 91 32q55 0 85.5 -30.5t30.5 -81.5l-1 -202q-1 -64 -33 -99.5t-97 -35.5z" />
    <glyph glyph-name="six.text" unicode="&#xe006;" horiz-adv-x="353" 
d="M263 274q0 37 -24 58t-62 21q-21 0 -37.5 -8.5t-27.5 -22t-16.5 -31t-5.5 -35.5v-144q0 -37 24.5 -58t62.5 -21t62 21t24 58v162zM122 367q11 11 29.5 18.5t36.5 7.5q54 0 86 -31.5t32 -88.5v-158q0 -31 -10.5 -53.5t-28 -37.5t-41 -22.5t-49.5 -7.5t-49.5 7.5t-41 22.5
t-28 37.5t-10.5 53.5v129q0 33 4.5 56.5t12.5 43.5l135 352h43q-7 -17 -18.5 -47.5l-25 -66.5l-27.5 -73l-25.5 -67.5l-19 -51t-8.5 -22.5z" />
    <glyph glyph-name="seven.text" unicode="&#xe007;" horiz-adv-x="310" 
d="M102 0h-42l187 658h-187v-86h-38v124h268v-36z" />
    <glyph glyph-name="eight.text" unicode="&#xe008;" horiz-adv-x="353" 
d="M306 467q0 -40 -17 -66t-43 -40q26 -14 43 -40t17 -65v-142q0 -31 -10.5 -53.5t-28 -37.5t-41 -22.5t-49.5 -7.5t-49.5 7.5t-41 22.5t-28 37.5t-10.5 53.5v142q0 39 16.5 65t43.5 40q-27 14 -43.5 40t-16.5 66v114q0 30 10.5 52.5t28 38t41 23t49.5 7.5t49.5 -7.5t41 -23
t28 -38t10.5 -52.5v-114zM263 262q0 36 -24 58t-62 23q-38 0 -62.5 -22t-24.5 -59v-150q0 -37 24.5 -58t62.5 -21t62 21t24 58v150zM263 583q0 37 -24 58t-62 21t-62.5 -21t-24.5 -58v-122q0 -37 24.5 -58.5t62.5 -21.5t62 21.5t24 58.5v122z" />
    <glyph glyph-name="nine.text" unicode="&#xe009;" horiz-adv-x="353" 
d="M90 422q0 -37 24 -58t62 -21q21 0 37.5 8.5t27.5 22t16.5 31t5.5 35.5v144q0 37 -24 58t-62 21t-62.5 -21t-24.5 -58v-162zM231 329q-11 -11 -29.5 -18.5t-36.5 -7.5q-54 0 -85.5 31.5t-31.5 88.5v158q0 31 10.5 53.5t28 37.5t41 22.5t49.5 7.5q55 0 92 -29.5t37 -91.5
v-129q0 -33 -5 -56.5t-12 -43.5l-135 -352h-44q7 17 18.5 47.5l25 66.5l27.5 73l25.5 67.5l19 51t8.5 22.5z" />
    <glyph glyph-name="numbersign.text" unicode="&#xe00a;" horiz-adv-x="353" 
d="M210 223h-117l-41 -223h-33l42 223h-58v30h64l36 194h-54v31h60l43 224h33l-43 -224h116l42 224h33l-43 -224h59v-31h-65l-36 -194h53v-30h-59l-42 -223h-32zM99 253h116l37 194h-116z" />
    <glyph glyph-name="dollar.text" unicode="&#xe00b;" horiz-adv-x="353" 
d="M331 182q0 -41 -7 -74.5t-23.5 -58.5t-43.5 -39.5t-67 -16.5v-97h-28v97q-77 4 -110 45.5t-34 103.5l44 9q0 -22 5 -42.5t17 -36t31 -26t47 -12.5v315q-46 21 -73.5 41.5t-42 41.5t-19 44.5t-4.5 51.5q0 36 8 66.5t25 53.5t43.5 36.5t62.5 16.5v90h28v-89q41 -2 68 -15.5
t43.5 -34t23 -45.5t6.5 -49l-43 -11q0 45 -22 77.5t-76 36.5v-277l12 -5q45 -19 71 -38.5t39 -42t16 -51t3 -65.5zM287 181q0 33 -3 55.5t-12.5 39.5t-29 31t-52.5 30v-303q32 3 51 15.5t29.5 32.5t13.5 45.5t3 53.5zM67 529q0 -23 4 -40.5t14 -32.5t28.5 -29.5t48.5 -29.5
v263q-30 -3 -48.5 -16t-29 -31.5t-14 -40.5t-3.5 -43z" />
    <glyph glyph-name="euro.text" unicode="&#xe00c;" horiz-adv-x="361" 
d="M23 320h36v73h-36v29h36v123q0 75 38.5 116t105.5 41q59 0 99 -30.5t45 -93.5l-42 -8q-5 48 -33 70t-69 22q-48 0 -75 -31t-27 -84v-125h172v-29h-172v-73h172v-30h-172v-149q0 -51 28 -79.5t74 -28.5q40 0 68.5 21.5t33.5 70.5l44 -7q-3 -33 -16 -56.5t-32.5 -38.5
t-44.5 -22.5t-53 -7.5q-30 0 -56.5 8.5t-46 26.5t-30.5 46t-11 66v150h-36v30z" />
    <glyph glyph-name="florin.text" unicode="&#xe00d;" horiz-adv-x="353" 
d="M88 406h81l15 128q9 76 38.5 121t95.5 45q24 0 48 -8l-10 -38q-9 3 -19.5 5t-19.5 2q-34 0 -59.5 -27.5t-33.5 -100.5l-15 -127h92v-38h-97l-32 -276q-11 -95 -42.5 -140t-92.5 -45q-11 0 -24 1.5t-25 5.5l12 36q18 -5 34 -5q41 0 64 32t33 113l34 278h-77v38z" />
    <glyph glyph-name="sterling.text" unicode="&#xe00e;" horiz-adv-x="353" 
d="M169 703q30 0 57 -8.5t47 -26.5t31 -46t11 -67l-43 -10q1 61 -27 89.5t-76 28.5q-47 0 -72.5 -28t-25.5 -73q0 -24 5 -47t12 -47l14 -50.5t12 -57.5h107v-37h-103q1 -8 1.5 -18t0.5 -18q0 -77 -15.5 -134t-42.5 -113h242v-40h-290v40q30 56 46.5 117t16.5 131q0 17 -3 35
h-62v37h59q-5 29 -13 56.5l-15 52t-12 47t-5 42.5q0 66 37.5 105.5t105.5 39.5z" />
    <glyph glyph-name="cent.text" unicode="&#xe00f;" horiz-adv-x="340" 
d="M191 495q58 -2 89 -35t31 -93q-11 -2 -22 -3.5t-22 -3.5v3q0 42 -20 66t-56 27v-424q10 2 15 4q59 12 61 91l44 -8q-2 -60 -33.5 -91t-86.5 -34v-108h-26v108q-55 3 -81.5 28.5t-33.5 57.5q-3 12 -5 31t-2.5 41l-1 44.5t-0.5 42.5q0 27 0.5 54t2 51t4.5 43.5t7 31.5
q11 32 37.5 52.5t72.5 23.5v111h26v-111zM93 89q17 -51 72 -57v424l-11 -3q-40 -6 -58 -49q-8 -19 -9.5 -65t-2.5 -106v-13q0 -18 0.5 -37t1.5 -37t2.5 -33t4.5 -24z" />
    <glyph glyph-name="yen.text" unicode="&#xe010;" horiz-adv-x="353" 
d="M203 315h114v-30h-121v-73h121v-31h-121v-181h-40v181h-115v31h115v73h-115v30h107l-126 381h42l110 -346h3l110 346h43z" />
    <glyph glyph-name="afii61352" unicode="&#x2116;" horiz-adv-x="661" 
d="M433 278v35h188v-35h-188zM91 577v-577h-42v696h40l76 -178.5l76 -178.5l93 -222h4v579h42v-696h-41l-75.5 177.5l-75.5 177.5l-47.5 111l-46.5 111h-3zM527 699q39 0 60 -14.5t29 -36.5q7 -17 8.5 -49.5t1.5 -61.5v-19q0 -17 -0.5 -34t-2.5 -37q-2 -24 -11.5 -39.5
t-23.5 -25t-30.5 -13.5t-32.5 -4q-43 0 -64 17t-29 43q-2 7 -3.5 19.5t-2 26.5t-0.5 29v28q0 34 1.5 67t7.5 50q8 23 32 38.5t60 15.5zM526 663q-17 0 -31 -6t-22 -23q-5 -13 -6.5 -39t-2.5 -61v-14q0 -31 1 -53.5t5 -33.5q5 -16 18.5 -24.5t37.5 -8.5q15 0 27.5 4.5
t19.5 15.5q5 6 8 16q4 12 5 37t1 51v30.5t-1 30t-2 26.5t-3 19q-5 17 -20 25t-35 8z" />
    <glyph glyph-name="lozenge" unicode="&#x25ca;" horiz-adv-x="337" 
d="M144 6l-60 138l-59 138l59 138l60 138h39l61 -138l61 -138l-60.5 -138l-61.5 -138h-39zM163 51h1l103 230l-52 115.5l-52 115.5h-1l-99 -231z" />
    <glyph glyph-name="slashedzero" unicode="&#xe23f;" horiz-adv-x="353" 
d="M306 114q0 -31 -10.5 -53.5t-28 -37.5t-41 -22.5t-49.5 -7.5t-49.5 7.5t-41 22.5t-28 37.5t-10.5 53.5v467q0 30 10.5 52.5t28 38t41 23t49.5 7.5q27 0 50.5 -7.5t41 -23t27.5 -38t10 -52.5v-467zM263 553l-169 -469q9 -24 31 -37.5t52 -13.5q38 0 62 21.5t24 58.5v440z
M90 144l167 469q-9 23 -30 36t-50 13q-38 0 -62.5 -21.5t-24.5 -58.5v-438z" />
    <glyph glyph-name="afii61289" unicode="&#x2113;" horiz-adv-x="336" 
d="M309 123q-9 -27 -20 -51t-25.5 -42t-32 -29t-39.5 -11q-48 0 -78.5 41t-30.5 124v63q-24 -24 -45 -42l-10 31q3 2 10 8.5t15 15l16 17l14 14.5v253q0 53 8.5 89.5t23 58.5t33.5 31.5t39 9.5q32 0 54.5 -31.5t22.5 -95.5q0 -81 -39.5 -162t-107.5 -169v-67
q0 -83 21 -117.5t53 -34.5q29 0 49.5 28.5t37.5 79.5zM117 298q63 82 88.5 152t25.5 127q0 17 -2.5 33.5t-8 29t-14 20t-21.5 7.5q-26 0 -47 -35t-21 -115v-219z" />
    <glyph glyph-name="estimated" unicode="&#x212e;" horiz-adv-x="790" 
d="M184 297v-33.5t0.5 -57t0.5 -57.5v-34q15 -26 38.5 -46t51.5 -33.5t59 -20.5t62 -7q63 0 118.5 26.5t96.5 72.5h44q-46 -56 -115 -87t-144 -31q-68 0 -127.5 25t-104 67.5t-70.5 100t-26 122.5q0 64 26 121t70.5 99.5t104 67.5t127.5 25q70 0 129 -23.5t102.5 -66
t69 -101.5t27.5 -129h-540zM609 492q-15 25 -38.5 45t-52 34.5t-59.5 22.5t-62 8q-56 0 -112 -30t-100 -82v-31t-0.5 -55.5t-0.5 -55.5v-31h425v175z" />
    <glyph glyph-name="partialdiff" unicode="&#x2202;" horiz-adv-x="320" 
d="M55 214q0 -93 27 -139.5t65 -46.5q26 0 46 24t34 61.5t22 84.5t10 93q-27 57 -52.5 81t-53.5 24q-23 0 -41.5 -16.5t-31 -42.5t-19 -58.5t-6.5 -64.5zM22 212q0 53 11 94.5t29 70t41.5 43.5t49.5 15q30 0 56.5 -19t50.5 -65q0 159 -38.5 243.5t-113.5 84.5q-6 0 -14.5 -1
t-16.5 -3l-1 34q9 2 18 3t17 1q53 0 88 -29.5t56 -79.5t30 -115.5t9 -137.5q0 -86 -11 -153.5t-30.5 -113.5t-46.5 -70t-59 -24q-54 0 -89.5 56t-35.5 166z" />
    <glyph glyph-name="product" unicode="&#x220f;" horiz-adv-x="407" 
d="M313 -78v734h-218v-734h-43v774h304v-774h-43z" />
    <glyph glyph-name="summation" unicode="&#x2211;" horiz-adv-x="294" 
d="M18 -78v38l116 349l-118 350v37h263v-40h-220l118 -347l-116 -346h225v-41h-268z" />
    <glyph glyph-name="minus" unicode="&#x2212;" horiz-adv-x="353" 
d="M16 275v36h320v-36h-320z" />
    <glyph glyph-name="radical" unicode="&#x221a;" horiz-adv-x="360" 
d="M220 -86h-36l-105 434q-2 -1 -11 -5l-20 -8.5l-20.5 -8.5t-10.5 -5l-10 34l97 42l97 -408l7.5 54.5l13.5 94.5l18 121.5l19.5 135l19.5 135l18 121.5l13.5 94.5l7.5 54.5h36z" />
    <glyph glyph-name="infinity" unicode="&#x221e;" horiz-adv-x="590" 
d="M147 376q40 0 78.5 -26.5t67.5 -67.5q30 40 68.5 67t80.5 27q48 0 81.5 -31.5t33.5 -85.5q0 -55 -34 -87t-85 -32q-41 0 -76 26t-70 68q-35 -43 -68 -68.5t-79 -25.5q-50 0 -83 31t-33 88q0 26 9.5 47.5t26 37t37.5 24t45 8.5zM147 344q-35 0 -59.5 -25t-24.5 -60
q0 -39 24.5 -62.5t60.5 -23.5q17 0 34 7t33 19t30.5 27.5t26.5 31.5q-11 15 -25.5 30.5t-30.5 27.5t-33.5 20t-35.5 8zM440 344q-17 0 -34 -7t-33 -19t-30.5 -27.5t-27.5 -31.5q26 -33 57 -59.5t66 -26.5q36 0 61 24t25 62q0 36 -24.5 60.5t-59.5 24.5z" />
    <glyph glyph-name="logicaland" unicode="&#x2227;" horiz-adv-x="366" 
d="M339 1h-38l-123 453l-116 -453h-38l135 511h37z" />
    <glyph glyph-name="logicalor" unicode="&#x2228;" horiz-adv-x="366" 
d="M196 0h-37l-135 511h38l116 -453l123 453h38z" />
    <glyph glyph-name="intersection" unicode="&#x2229;" horiz-adv-x="366" 
d="M339 0h-38v285q0 30 -2.5 63.5t-14.5 61t-36 45.5t-66 18t-66 -17.5t-36 -45t-15 -61t-3 -64.5v-285h-37v285q0 40 5 80t21.5 72t47 52t82.5 20t83 -19.5t47.5 -51t22 -71.5t5.5 -82v-285z" />
    <glyph glyph-name="union" unicode="&#x222a;" horiz-adv-x="366" 
d="M339 225q0 -42 -5.5 -82.5t-22 -72t-47.5 -50.5t-83 -19t-82.5 20t-47 52t-21.5 72t-5 80v285h37v-285q0 -31 3 -64.5t15 -61t36 -45t66 -17.5t66 18t36 45.5t14.5 61t2.5 63.5v285h38v-285z" />
    <glyph glyph-name="integral" unicode="&#x222b;" horiz-adv-x="261" 
d="M218 763q10 0 19.5 -1t20.5 -4q-2 -8 -3.5 -15.5t-2.5 -15.5q-8 1 -14 2t-12 1q-23 0 -38 -9.5t-24 -32t-13.5 -60.5t-5.5 -95q-4 -136 -4.5 -239.5t-3 -180.5t-8.5 -128.5t-19.5 -82.5t-37 -44.5t-60.5 -13.5q-12 0 -25 4l6 31q7 -2 13.5 -2h11.5q43 0 60 38t22 121
q0 5 1 33t1.5 71.5t1.5 98.5t2.5 115l3 121t4.5 117q4 90 28.5 130.5t75.5 40.5z" />
    <glyph glyph-name="approxequal" unicode="&#x2248;" horiz-adv-x="353" 
d="M95 398q23 0 43.5 -7t40 -16t37 -16t34.5 -7q18 0 31.5 6.5t31.5 29.5l25 -17q-15 -26 -37 -41.5t-51 -15.5q-19 0 -38 7t-38.5 16t-39.5 16t-40 7q-17 0 -31 -7t-30 -26l-23 19q14 23 35.5 37.5t49.5 14.5zM97 267q23 0 43.5 -7t40 -16t37 -16t34.5 -7q18 0 31.5 6.5
t31.5 29.5l25 -17q-15 -26 -37 -41.5t-51 -15.5q-19 0 -38 7t-38.5 16t-39.5 16t-40 7q-17 0 -31 -7t-30 -26l-23 19q14 23 35.5 37.5t49.5 14.5z" />
    <glyph glyph-name="notequal" unicode="&#x2260;" horiz-adv-x="353" 
d="M15 90l77 109h-76v37h102l77 108h-179v36h204l76 106h40l-76 -106h76v-36h-101l-77 -108h178v-37h-205l-77 -109h-39z" />
    <glyph glyph-name="lessequal" unicode="&#x2264;" horiz-adv-x="353" 
d="M17 273v36l318 143v-39l-267 -121l267 -124v-39zM18 41v37h316v-37h-316z" />
    <glyph glyph-name="greaterequal" unicode="&#x2265;" horiz-adv-x="353" 
d="M18 129v39l266 124l-266 121v39l318 -143v-36zM18 41v37h317v-37h-317z" />
    <glyph glyph-name="gradient" unicode="&#x2207;" horiz-adv-x="376" 
d="M367 696l-155 -696h-49l-154 696h358zM185 66h3q11 49 20.5 97t20.5 98l43.5 197l42.5 198h-257l42.5 -195l43.5 -201z" />
    <glyph glyph-name="fraction" unicode="&#x2044;" horiz-adv-x="165" 
d="M-70 -17h-33l314 731h33z" />
    <glyph glyph-name="fraction" unicode="&#x2215;" horiz-adv-x="165" 
d="M-70 -17h-33l314 731h33z" />
    <glyph glyph-name="Asmall" unicode="&#xe0fe;" horiz-adv-x="333" 
d="M284 0q-9 32 -17.5 65.5l-17.5 66.5h-167l-16.5 -66.5t-17.5 -65.5h-41l68.5 255.5l67.5 256.5h45l69 -256.5l69 -255.5h-42zM134 336l-20.5 -83.5l-21.5 -83.5h147l-31 124l-21.5 82l-20.5 82h-1z" />
    <glyph glyph-name="Bsmall" unicode="&#xe0ff;" horiz-adv-x="363" 
d="M47 0v513h128q80 0 112 -34.5t32 -95.5q0 -38 -12.5 -68.5t-47.5 -44.5q36 -12 51.5 -44.5t15.5 -74.5q0 -82 -40.5 -116.5t-111.5 -34.5h-127zM175 38q34 0 55.5 9t33.5 25t16.5 37t4.5 44q0 48 -23.5 74t-74.5 26h-100v-215h88zM278 383q0 45 -24.5 69t-84.5 24h-82
v-187h95q55 0 75.5 24t20.5 70z" />
    <glyph glyph-name="Csmall" unicode="&#xe100;" horiz-adv-x="339" 
d="M176 517q60 0 98 -32.5t39 -99.5l-42 -6q-1 53 -27 77t-68 24q-26 0 -43.5 -9.5t-28.5 -24t-16 -33t-5 -36.5v-244q0 -17 4 -35.5t14 -33.5t28 -24.5t46 -9.5q48 0 71 29.5t24 74.5l42 -7q-3 -61 -38.5 -97.5t-98.5 -36.5q-39 0 -64.5 11.5t-41 31t-21.5 45t-6 54.5v240
q0 28 7.5 53.5t23.5 45t41.5 31.5t61.5 12z" />
    <glyph glyph-name="Dsmall" unicode="&#xe101;" horiz-adv-x="358" 
d="M178 512q56 0 87 -16.5t45 -55.5q6 -17 7.5 -44t1.5 -62v-144q0 -44 -1.5 -72.5t-8.5 -46.5q-9 -23 -22.5 -36.5t-31.5 -21.5t-39.5 -10.5t-44.5 -2.5h-125v512h132zM275 379q0 21 -4 38.5t-15 30t-30.5 20t-50.5 7.5h-88v-437h89q53 0 76 21.5t23 71.5v248z" />
    <glyph glyph-name="Esmall" unicode="&#xe102;" horiz-adv-x="315" 
d="M47 0v513h249v-38h-209v-193h184v-37h-184v-207h209v-38h-249z" />
    <glyph glyph-name="Fsmall" unicode="&#xe103;" horiz-adv-x="313" 
d="M48 0v513h249v-38h-209v-193h184v-37h-184v-245h-40z" />
    <glyph glyph-name="Gsmall" unicode="&#xe104;" horiz-adv-x="350" 
d="M178 -7q-73 0 -104.5 38.5t-31.5 102.5v234q0 30 7.5 57t23.5 48t42 33t63 12q59 0 96.5 -32t39.5 -100l-42 -8q0 54 -26 78t-67 24q-27 0 -45 -9.5t-29.5 -25.5t-16.5 -35.5t-5 -40.5v-236q0 -19 5 -37.5t16.5 -32.5t29.5 -23t45 -9q49 0 73 31.5t24 74.5v96h-74v38h117
v-130q0 -38 -11 -65.5t-30 -46t-45 -27.5t-55 -9z" />
    <glyph glyph-name="Hsmall" unicode="&#xe105;" horiz-adv-x="365" 
d="M276 0v244h-189v-244h-40v513h40v-232h189v232h43v-513h-43z" />
    <glyph glyph-name="Ismall" unicode="&#xe106;" horiz-adv-x="155" 
d="M57 0v513h41v-513h-41z" />
    <glyph glyph-name="Jsmall" unicode="&#xe107;" horiz-adv-x="284" 
d="M222 513v-384q0 -62 -31.5 -98.5t-100.5 -36.5q-27 0 -50 7t-41 24l22 31q12 -9 32.5 -16.5t37.5 -7.5q40 0 65.5 23t25.5 71v387h40z" />
    <glyph glyph-name="Ksmall" unicode="&#xe108;" horiz-adv-x="351" 
d="M88 211l95 150l95 151h45l-127 -204l152 -308h-46l-66 135l-67 135l-41 -64l-41 -64v-142h-41v512h41v-301h1v0z" />
    <glyph glyph-name="Lsmall" unicode="&#xe109;" horiz-adv-x="294" 
d="M48 0v513h40v-475h199v-38h-239z" />
    <glyph glyph-name="Msmall" unicode="&#xe10a;" horiz-adv-x="472" 
d="M307 230l-59 -142h-27l-29 70.5l-29 70.5l-76 189v-418h-41v512h40l88 -215l60 -150l62 150l88 215h41v-512h-41v419h-1z" />
    <glyph glyph-name="Nsmall" unicode="&#xe10b;" horiz-adv-x="382" 
d="M86 0h-41v512h37l61 -118l60 -118l93 -186v422h41v-512h-38l-59.5 118.5l-60.5 118.5l-46 92l-47 92v-421z" />
    <glyph glyph-name="Osmall" unicode="&#xe10c;" horiz-adv-x="357" 
d="M316 145q0 -73 -37 -112.5t-101 -39.5q-63 0 -100 38t-37 106v228q0 68 34.5 110.5t102.5 42.5q69 0 103.5 -39.5t34.5 -110.5v-223zM274 372q0 48 -24 78t-72 30q-26 0 -44.5 -9.5t-30 -26t-16.5 -38t-5 -44.5v-225q0 -47 24.5 -77t71.5 -30q51 0 73.5 32t22.5 83v227z
" />
    <glyph glyph-name="Psmall" unicode="&#xe10d;" horiz-adv-x="342" 
d="M165 513q46 0 75.5 -10.5t47 -30t24 -46.5t6.5 -59q0 -34 -7 -62t-24.5 -48t-47.5 -31t-76 -11h-76v-214h-40v512h118zM87 253h73q68 0 92.5 28.5t24.5 84.5q0 24 -5 44t-17.5 34.5t-35 22.5t-57.5 8h-75v-222z" />
    <glyph glyph-name="Qsmall" unicode="&#xe10e;" horiz-adv-x="356" 
d="M316 144q0 -29 -5.5 -51.5t-16.5 -40.5l51 -37l-20 -29l-53 39q-35 -32 -94 -32q-63 0 -100 36.5t-37 106.5v230q0 69 34.5 110.5t102.5 41.5q69 0 103.5 -38.5t34.5 -110.5v-225zM274 373q0 48 -24 77.5t-72 29.5q-25 0 -43 -9.5t-30 -25.5t-17.5 -37.5t-5.5 -44.5v-227
q0 -47 24.5 -76.5t71.5 -29.5q38 0 61 20l-56 43l19 28l59 -45q13 26 13 67v230z" />
    <glyph glyph-name="Rsmall" unicode="&#xe10f;" horiz-adv-x="351" 
d="M154 512q43 0 72.5 -10t47.5 -28t25.5 -43.5t7.5 -56.5q0 -42 -17 -79t-68 -57l49.5 -119l47.5 -119h-45l-45.5 116l-46.5 116q-12 -1 -21.5 -1h-20.5h-53v-231h-40v512h107zM87 474v-206h72q47 0 76.5 25.5t29.5 80.5q0 47 -25 73.5t-93 26.5h-60z" />
    <glyph glyph-name="Ssmall" unicode="&#xe110;" horiz-adv-x="335" 
d="M306 136q0 -30 -7 -55.5t-22.5 -44.5t-42 -30t-65.5 -11q-37 0 -63 9t-43 24.5t-25 37t-8 45.5l43 8q0 -17 5 -32.5t16 -27.5t29.5 -19t45.5 -7q31 0 50 9t29.5 23.5t13.5 32.5t3 37q0 18 -3 33.5t-13 29t-29.5 26.5t-52.5 25q-44 16 -70 31.5t-40 31.5t-18.5 34t-4.5 40
q0 58 33 94.5t105 36.5q39 0 65 -10.5t41 -26.5t21.5 -36.5t6.5 -39.5l-40 -9q0 17 -5 32t-16.5 26.5t-29.5 18t-45 6.5q-29 0 -47.5 -8.5t-28.5 -21.5t-13.5 -29.5t-3.5 -31.5q0 -17 4 -30.5t16 -25.5t34.5 -23.5t60.5 -24.5q37 -14 59.5 -29.5t34.5 -34t16 -39.5t4 -44z
" />
    <glyph glyph-name="Tsmall" unicode="&#xe111;" horiz-adv-x="283" 
d="M162 475v-475h-42v475h-115v38h271v-38h-114z" />
    <glyph glyph-name="Usmall" unicode="&#xe112;" horiz-adv-x="349" 
d="M311 512v-372q0 -66 -35 -106t-103 -40q-69 0 -103 38.5t-34 100.5v379h41v-377q0 -42 23.5 -72.5t72.5 -30.5q26 0 44.5 9t30 23.5t17 33.5t5.5 39v375h41z" />
    <glyph glyph-name="Vsmall" unicode="&#xe113;" horiz-adv-x="335" 
d="M189 0h-48l-130 513h42l78 -313l36 -140l32 139l80 314h43z" />
    <glyph glyph-name="Wsmall" unicode="&#xe114;" horiz-adv-x="515" 
d="M256 429q-11 -44 -20 -87.5l-18 -88.5l-11 -49l-17 -77.5l-17 -77.5l-11 -49h-46l-51.5 255.5l-51.5 256.5h41l47 -246l19.5 -99.5t20.5 -99.5l27 125q7 34 16 74l18 82l18 84t18 80h38l23 -102t22 -102q12 -61 26 -121l27 -121h1q3 17 5.5 29t5.5 28l7.5 39.5l12.5 62.5
l54 287h42l-52 -256.5l-51 -255.5h-47q-20 78 -35 156.5t-35 156.5l-12 58t-13 58h-1v0z" />
    <glyph glyph-name="Xsmall" unicode="&#xe115;" horiz-adv-x="293" 
d="M245 0l-99 222l-100 -222h-43l120 260l-116 252h43l96 -215l95 215h44l-119 -252l124 -260h-45z" />
    <glyph glyph-name="Ysmall" unicode="&#xe116;" horiz-adv-x="311" 
d="M154 244l21 56l20 56l28 78l29 78h42l-59.5 -156l-60.5 -157v-199h-41v199l-120 313h43l21.5 -59l21.5 -59l27 -75l27 -75h1v0z" />
    <glyph glyph-name="Zsmall" unicode="&#xe117;" horiz-adv-x="270" 
d="M256 478l-200 -440h190v-38h-234v35l200 440h-184v38h228v-35z" />
    <glyph glyph-name="Scaronsmall" unicode="&#xe118;" horiz-adv-x="335" 
d="M306 136q0 -30 -7 -55.5t-22.5 -44.5t-42 -30t-65.5 -11q-37 0 -63 9t-43 24.5t-25 37t-8 45.5l43 8q0 -17 5 -32.5t16 -27.5t29.5 -19t45.5 -7q31 0 50 9t29.5 23.5t13.5 32.5t3 37q0 18 -3 33.5t-13 29t-29.5 26.5t-52.5 25q-44 16 -70 31.5t-40 31.5t-18.5 34t-4.5 40
q0 58 33 94.5t105 36.5q39 0 65 -10.5t41 -26.5t21.5 -36.5t6.5 -39.5l-40 -9q0 17 -5 32t-16.5 26.5t-29.5 18t-45 6.5q-29 0 -47.5 -8.5t-28.5 -21.5t-13.5 -29.5t-3.5 -31.5q0 -17 4 -30.5t16 -25.5t34.5 -23.5t60.5 -24.5q37 -14 59.5 -29.5t34.5 -34t16 -39.5t4 -44z
M277 689l19 -17l-110 -120h-32l-115 122l19 16l110 -97z" />
    <glyph glyph-name="OEsmall" unicode="&#xe119;" horiz-adv-x="509" 
d="M237 0q-12 -3 -28 -4.5t-32 -1.5q-66 0 -101 35t-35 91v263q0 28 8 52.5t25 42.5t42.5 28.5t61.5 10.5q33 0 56 -4h247v-38h-209v-193h186v-37h-186v-207h209v-38h-244zM177 31q36 0 54 9v432q-10 5 -23 6.5t-30 1.5q-25 0 -43 -9t-30 -23t-17.5 -31.5t-5.5 -34.5v-262
q0 -35 23.5 -62t71.5 -27z" />
    <glyph glyph-name="Zcaronsmall" unicode="&#xe11a;" horiz-adv-x="270" 
d="M256 478l-200 -440h190v-38h-234v35l200 440h-184v38h228v-35zM249 689l19 -17l-110 -120h-32l-115 122l19 16l110 -97z" />
    <glyph glyph-name="Ydieresissmall" unicode="&#xe11b;" horiz-adv-x="311" 
d="M154 244l21 56l20 56l28 78l29 78h42l-59.5 -156l-60.5 -157v-199h-41v199l-120 313h43l21.5 -59l21.5 -59l27 -75l27 -75h1zM60 585v48h42v-48h-42zM206 585v48h42v-48h-42z" />
    <glyph glyph-name="Agravesmall" unicode="&#xe11c;" horiz-adv-x="333" 
d="M284 0q-9 32 -17.5 65.5l-17.5 66.5h-167l-16.5 -66.5t-17.5 -65.5h-41l68.5 255.5l67.5 256.5h45l69 -256.5l69 -255.5h-42zM134 336l-20.5 -83.5l-21.5 -83.5h147l-31 124l-21.5 82l-20.5 82h-1zM167 556l-88 144l45 17l67 -151z" />
    <glyph glyph-name="Aacutesmall" unicode="&#xe11d;" horiz-adv-x="333" 
d="M284 0q-9 32 -17.5 65.5l-17.5 66.5h-167l-16.5 -66.5t-17.5 -65.5h-41l68.5 255.5l67.5 256.5h45l69 -256.5l69 -255.5h-42zM134 336l-20.5 -83.5l-21.5 -83.5h147l-31 124l-21.5 82l-20.5 82h-1zM154 566l67 151l45 -17l-88 -144z" />
    <glyph glyph-name="Acircumflexsmall" unicode="&#xe11e;" horiz-adv-x="333" 
d="M284 0q-9 32 -17.5 65.5l-17.5 66.5h-167l-16.5 -66.5t-17.5 -65.5h-41l68.5 255.5l67.5 256.5h45l69 -256.5l69 -255.5h-42zM134 336l-20.5 -83.5l-21.5 -83.5h147l-31 124l-21.5 82l-20.5 82h-1zM166 648l-110 -97l-19 16l115 123h31l111 -121l-20 -17z" />
    <glyph glyph-name="Atildesmall" unicode="&#xe11f;" horiz-adv-x="333" 
d="M284 0q-9 32 -17.5 65.5l-17.5 66.5h-167l-16.5 -66.5t-17.5 -65.5h-41l68.5 255.5l67.5 256.5h45l69 -256.5l69 -255.5h-42zM134 336l-20.5 -83.5l-21.5 -83.5h147l-31 124l-21.5 82l-20.5 82h-1zM301 635q-12 -32 -33.5 -47t-41.5 -15q-15 0 -29.5 6t-28.5 13t-27.5 13
t-26.5 6q-12 0 -24.5 -9.5t-23.5 -25.5l-24 15q12 25 31 41t40 16q15 0 29 -6t27.5 -13t27.5 -13t30 -6q28 0 51 39z" />
    <glyph glyph-name="Adieresissmall" unicode="&#xe120;" horiz-adv-x="333" 
d="M284 0q-9 32 -17.5 65.5l-17.5 66.5h-167l-16.5 -66.5t-17.5 -65.5h-41l68.5 255.5l67.5 256.5h45l69 -256.5l69 -255.5h-42zM134 336l-20.5 -83.5l-21.5 -83.5h147l-31 124l-21.5 82l-20.5 82h-1zM217 585v48h42v-48h-42zM71 585v48h42v-48h-42z" />
    <glyph glyph-name="Aringsmall" unicode="&#xe121;" horiz-adv-x="333" 
d="M284 0q-9 32 -17.5 65.5l-17.5 66.5h-167l-16.5 -66.5t-17.5 -65.5h-41l68.5 255.5l67.5 256.5h45l69 -256.5l69 -255.5h-42zM134 336l-20.5 -83.5l-21.5 -83.5h147l-31 124l-21.5 82l-20.5 82h-1zM164 550q-33 0 -56.5 24t-23.5 57q0 35 23.5 58.5t56.5 23.5t56.5 -23.5
t23.5 -58.5q0 -33 -23.5 -57t-56.5 -24zM164 686q-22 0 -37.5 -16t-15.5 -39t15.5 -39t37.5 -16t37.5 16t15.5 39t-15.5 39t-37.5 16z" />
    <glyph glyph-name="AEsmall" unicode="&#xe122;" horiz-adv-x="551" 
d="M281 138h-164l-71 -138h-44l257 513h272v-38h-208v-193h186v-37h-186v-206h208v-39h-250v138zM134 176h147v297z" />
    <glyph glyph-name="Ccedillasmall" unicode="&#xe123;" horiz-adv-x="339" 
d="M176 517q60 0 98 -32.5t39 -99.5l-42 -6q-1 53 -27 77t-68 24q-26 0 -43.5 -9.5t-28.5 -24t-16 -33t-5 -36.5v-244q0 -17 4 -35.5t14 -33.5t28 -24.5t46 -9.5q48 0 71 29.5t24 74.5l42 -7q-3 -60 -36 -95.5t-93 -38.5l-14 -56q23 -2 38.5 -9.5t24.5 -18t12.5 -22.5
t3.5 -22q0 -26 -18 -48.5t-58 -22.5q-15 0 -35 2.5t-40 13.5l10 24q17 -8 31.5 -10t26.5 -2q21 0 35 10.5t14 31.5q0 20 -15 33.5t-47 13.5l-16 12l19 71q-33 3 -55 15.5t-34.5 31.5t-18 43t-5.5 51v240q0 28 7.5 53.5t23.5 45t41.5 31.5t61.5 12z" />
    <glyph glyph-name="Egravesmall" unicode="&#xe124;" horiz-adv-x="315" 
d="M47 0v513h249v-38h-209v-193h184v-37h-184v-207h209v-38h-249zM175 556l-88 144l45 17l67 -151z" />
    <glyph glyph-name="Eacutesmall" unicode="&#xe125;" horiz-adv-x="315" 
d="M47 0v513h249v-38h-209v-193h184v-37h-184v-207h209v-38h-249zM135 566l67 151l45 -17l-88 -144z" />
    <glyph glyph-name="Ecircumflexsmall" unicode="&#xe126;" horiz-adv-x="315" 
d="M47 0v513h249v-38h-209v-193h184v-37h-184v-207h209v-38h-249zM165 648l-110 -97l-19 16l115 123h31l111 -121l-20 -17z" />
    <glyph glyph-name="Edieresissmall" unicode="&#xe127;" horiz-adv-x="315" 
d="M47 0v513h249v-38h-209v-193h184v-37h-184v-207h209v-38h-249zM223 585v48h42v-48h-42zM77 585v48h42v-48h-42z" />
    <glyph glyph-name="Igravesmall" unicode="&#xe128;" horiz-adv-x="155" 
d="M57 0v513h41v-513h-41zM74 556l-88 144l45 17l67 -151z" />
    <glyph glyph-name="Iacutesmall" unicode="&#xe129;" horiz-adv-x="155" 
d="M57 0v513h41v-513h-41zM61 566l67 151l45 -17l-88 -144z" />
    <glyph glyph-name="Icircumflexsmall" unicode="&#xe12a;" horiz-adv-x="155" 
d="M57 0v513h41v-513h-41zM80 648l-110 -97l-19 16l115 123h31l111 -121l-20 -17z" />
    <glyph glyph-name="Idieresissmall" unicode="&#xe12b;" horiz-adv-x="155" 
d="M57 0v513h41v-513h-41zM130 585v48h42v-48h-42zM-16 585v48h42v-48h-42z" />
    <glyph glyph-name="Ethsmall" unicode="&#xe12c;" horiz-adv-x="358" 
d="M5 289h41v223h132q56 0 87 -16.5t45 -55.5q6 -17 7.5 -44t1.5 -62v-144q0 -44 -1.5 -72.5t-8.5 -46.5q-9 -23 -22.5 -36.5t-31.5 -21.5t-39.5 -10.5t-44.5 -2.5h-125v256h-41v33zM275 379q0 21 -4 38.5t-15 30t-30.5 20t-50.5 7.5h-88v-186h101v-33h-101v-218h89
q53 0 76 21.5t23 71.5v248z" />
    <glyph glyph-name="Ntildesmall" unicode="&#xe12d;" horiz-adv-x="382" 
d="M86 0h-41v512h37l61 -118l60 -118l93 -186v422h41v-512h-38l-59.5 118.5l-60.5 118.5l-46 92l-47 92v-421zM327 635q-12 -32 -33.5 -47t-41.5 -15q-15 0 -29.5 6t-28.5 13t-27.5 13t-26.5 6q-12 0 -24.5 -9.5t-23.5 -25.5l-24 15q12 25 31 41t40 16q15 0 29 -6t27.5 -13
t27.5 -13t30 -6q28 0 51 39z" />
    <glyph glyph-name="Ogravesmall" unicode="&#xe12e;" horiz-adv-x="357" 
d="M316 145q0 -73 -37 -112.5t-101 -39.5q-63 0 -100 38t-37 106v228q0 68 34.5 110.5t102.5 42.5q69 0 103.5 -39.5t34.5 -110.5v-223zM274 372q0 48 -24 78t-72 30q-26 0 -44.5 -9.5t-30 -26t-16.5 -38t-5 -44.5v-225q0 -47 24.5 -77t71.5 -30q51 0 73.5 32t22.5 83v227z
M183 556l-88 144l45 17l67 -151z" />
    <glyph glyph-name="Oacutesmall" unicode="&#xe12f;" horiz-adv-x="357" 
d="M316 145q0 -73 -37 -112.5t-101 -39.5q-63 0 -100 38t-37 106v228q0 68 34.5 110.5t102.5 42.5q69 0 103.5 -39.5t34.5 -110.5v-223zM274 372q0 48 -24 78t-72 30q-26 0 -44.5 -9.5t-30 -26t-16.5 -38t-5 -44.5v-225q0 -47 24.5 -77t71.5 -30q51 0 73.5 32t22.5 83v227z
M154 566l67 151l45 -17l-88 -144z" />
    <glyph glyph-name="Ocircumflexsmall" unicode="&#xe130;" horiz-adv-x="357" 
d="M316 145q0 -73 -37 -112.5t-101 -39.5q-63 0 -100 38t-37 106v228q0 68 34.5 110.5t102.5 42.5q69 0 103.5 -39.5t34.5 -110.5v-223zM274 372q0 48 -24 78t-72 30q-26 0 -44.5 -9.5t-30 -26t-16.5 -38t-5 -44.5v-225q0 -47 24.5 -77t71.5 -30q51 0 73.5 32t22.5 83v227z
M178 648l-110 -97l-19 16l115 123h31l111 -121l-20 -17z" />
    <glyph glyph-name="Otildesmall" unicode="&#xe131;" horiz-adv-x="357" 
d="M316 145q0 -73 -37 -112.5t-101 -39.5q-63 0 -100 38t-37 106v228q0 68 34.5 110.5t102.5 42.5q69 0 103.5 -39.5t34.5 -110.5v-223zM274 372q0 48 -24 78t-72 30q-26 0 -44.5 -9.5t-30 -26t-16.5 -38t-5 -44.5v-225q0 -47 24.5 -77t71.5 -30q51 0 73.5 32t22.5 83v227z
M316 635q-12 -32 -33.5 -47t-41.5 -15q-15 0 -29.5 6t-28.5 13t-27.5 13t-26.5 6q-12 0 -24.5 -9.5t-23.5 -25.5l-24 15q12 25 31 41t40 16q15 0 29 -6t27.5 -13t27.5 -13t30 -6q28 0 51 39z" />
    <glyph glyph-name="Odieresissmall" unicode="&#xe132;" horiz-adv-x="357" 
d="M316 145q0 -73 -37 -112.5t-101 -39.5q-63 0 -100 38t-37 106v228q0 68 34.5 110.5t102.5 42.5q69 0 103.5 -39.5t34.5 -110.5v-223zM274 372q0 48 -24 78t-72 30q-26 0 -44.5 -9.5t-30 -26t-16.5 -38t-5 -44.5v-225q0 -47 24.5 -77t71.5 -30q51 0 73.5 32t22.5 83v227z
M230 585v48h42v-48h-42zM84 585v48h42v-48h-42z" />
    <glyph glyph-name="Oslashsmall" unicode="&#xe133;" horiz-adv-x="357" 
d="M316 145q0 -73 -37 -112.5t-101 -39.5q-61 0 -99 36l-19 -38l-22 12l24 48q-21 34 -21 86v228q0 68 34.5 110.5t102.5 42.5q64 0 100 -36l19 38l24 -13l-25 -50q20 -35 20 -89v-223zM82 137q0 -22 4 -38l171 341q-12 19 -31.5 29.5t-47.5 10.5q-26 0 -44.5 -9.5t-30 -26
t-16.5 -38t-5 -44.5v-225zM274 372q0 9 -1 17.5t-3 16.5l-170 -337q12 -18 31.5 -28.5t46.5 -10.5q51 0 73.5 32t22.5 83v227z" />
    <glyph glyph-name="Ugravesmall" unicode="&#xe134;" horiz-adv-x="349" 
d="M311 512v-372q0 -66 -35 -106t-103 -40q-69 0 -103 38.5t-34 100.5v379h41v-377q0 -42 23.5 -72.5t72.5 -30.5q26 0 44.5 9t30 23.5t17 33.5t5.5 39v375h41zM178 556l-88 144l45 17l67 -151z" />
    <glyph glyph-name="Uacutesmall" unicode="&#xe135;" horiz-adv-x="349" 
d="M311 512v-372q0 -66 -35 -106t-103 -40q-69 0 -103 38.5t-34 100.5v379h41v-377q0 -42 23.5 -72.5t72.5 -30.5q26 0 44.5 9t30 23.5t17 33.5t5.5 39v375h41zM147 566l67 151l45 -17l-88 -144z" />
    <glyph glyph-name="Ucircumflexsmall" unicode="&#xe136;" horiz-adv-x="349" 
d="M311 512v-372q0 -66 -35 -106t-103 -40q-69 0 -103 38.5t-34 100.5v379h41v-377q0 -42 23.5 -72.5t72.5 -30.5q26 0 44.5 9t30 23.5t17 33.5t5.5 39v375h41zM176 648l-110 -97l-19 16l115 123h31l111 -121l-20 -17z" />
    <glyph glyph-name="Udieresissmall" unicode="&#xe137;" horiz-adv-x="349" 
d="M311 512v-372q0 -66 -35 -106t-103 -40q-69 0 -103 38.5t-34 100.5v379h41v-377q0 -42 23.5 -72.5t72.5 -30.5q26 0 44.5 9t30 23.5t17 33.5t5.5 39v375h41zM230 585v48h42v-48h-42zM84 585v48h42v-48h-42z" />
    <glyph glyph-name="Yacutesmall" unicode="&#xe138;" horiz-adv-x="311" 
d="M154 244l21 56l20 56l28 78l29 78h42l-59.5 -156l-60.5 -157v-199h-41v199l-120 313h43l21.5 -59l21.5 -59l27 -75l27 -75h1zM131 566l67 151l45 -17l-88 -144z" />
    <glyph glyph-name="Thornsmall" unicode="&#xe139;" horiz-adv-x="342" 
d="M47 513h40v-101h80q46 0 75.5 -11t46 -30.5t23 -46.5t6.5 -59q0 -33 -7 -60.5t-24 -47.5t-46.5 -31t-75.5 -11h-78v-114h-40v512zM87 152h75q68 0 93 30t25 83q0 23 -5 43t-18 35t-35.5 23.5t-57.5 8.5h-77v-223z" />
    <glyph glyph-name="Amacronsmall" unicode="&#xe13a;" horiz-adv-x="333" 
d="M284 0q-9 32 -17.5 65.5l-17.5 66.5h-167l-16.5 -66.5t-17.5 -65.5h-41l68.5 255.5l67.5 256.5h45l69 -256.5l69 -255.5h-42zM134 336l-20.5 -83.5l-21.5 -83.5h147l-31 124l-21.5 82l-20.5 82h-1zM61 589v39h207v-39h-207z" />
    <glyph glyph-name="Abrevesmall" unicode="&#xe13b;" horiz-adv-x="333" 
d="M284 0q-9 32 -17.5 65.5l-17.5 66.5h-167l-16.5 -66.5t-17.5 -65.5h-41l68.5 255.5l67.5 256.5h45l69 -256.5l69 -255.5h-42zM134 336l-20.5 -83.5l-21.5 -83.5h147l-31 124l-21.5 82l-20.5 82h-1zM82 669q5 -32 28.5 -54t54.5 -22q32 0 55.5 20.5t28.5 55.5h36
q-2 -19 -10 -38.5t-23 -36t-36.5 -27t-50.5 -10.5q-30 0 -51.5 10.5t-36 27t-22 36.5t-9.5 38h36z" />
    <glyph glyph-name="Aogoneksmall" unicode="&#xe13c;" horiz-adv-x="333" 
d="M284 0q-9 32 -17.5 65.5l-17.5 66.5h-167l-16.5 -66.5t-17.5 -65.5h-41l68.5 255.5l67.5 256.5h45l69 -256.5l69 -255.5h-7q-17 -21 -27 -45t-10 -41q0 -29 12.5 -40.5t31.5 -11.5q11 0 23.5 3t25.5 12l11 -30q-12 -9 -30 -15t-35 -6q-33 0 -53 23t-20 58q0 18 8.5 42.5
t27.5 50.5zM134 336l-20.5 -83.5l-21.5 -83.5h147l-31 124l-21.5 82l-20.5 82h-1z" />
    <glyph glyph-name="Cacutesmall" unicode="&#xe13d;" horiz-adv-x="339" 
d="M176 517q60 0 98 -32.5t39 -99.5l-42 -6q-1 53 -27 77t-68 24q-26 0 -43.5 -9.5t-28.5 -24t-16 -33t-5 -36.5v-244q0 -17 4 -35.5t14 -33.5t28 -24.5t46 -9.5q48 0 71 29.5t24 74.5l42 -7q-3 -61 -38.5 -97.5t-98.5 -36.5q-39 0 -64.5 11.5t-41 31t-21.5 45t-6 54.5v240
q0 28 7.5 53.5t23.5 45t41.5 31.5t61.5 12zM149 566l67 151l45 -17l-88 -144z" />
    <glyph glyph-name="Ccircumflexsmall" unicode="&#xe13e;" horiz-adv-x="339" 
d="M176 517q60 0 98 -32.5t39 -99.5l-42 -6q-1 53 -27 77t-68 24q-26 0 -43.5 -9.5t-28.5 -24t-16 -33t-5 -36.5v-244q0 -17 4 -35.5t14 -33.5t28 -24.5t46 -9.5q48 0 71 29.5t24 74.5l42 -7q-3 -61 -38.5 -97.5t-98.5 -36.5q-39 0 -64.5 11.5t-41 31t-21.5 45t-6 54.5v240
q0 28 7.5 53.5t23.5 45t41.5 31.5t61.5 12zM176 648l-110 -97l-19 16l115 123h31l111 -121l-20 -17z" />
    <glyph glyph-name="Cdotaccentsmall" unicode="&#xe13f;" horiz-adv-x="339" 
d="M176 517q60 0 98 -32.5t39 -99.5l-42 -6q-1 53 -27 77t-68 24q-26 0 -43.5 -9.5t-28.5 -24t-16 -33t-5 -36.5v-244q0 -17 4 -35.5t14 -33.5t28 -24.5t46 -9.5q48 0 71 29.5t24 74.5l42 -7q-3 -61 -38.5 -97.5t-98.5 -36.5q-39 0 -64.5 11.5t-41 31t-21.5 45t-6 54.5v240
q0 28 7.5 53.5t23.5 45t41.5 31.5t61.5 12zM155 589v48h41v-48h-41z" />
    <glyph glyph-name="Ccaronsmall" unicode="&#xe140;" horiz-adv-x="339" 
d="M176 517q60 0 98 -32.5t39 -99.5l-42 -6q-1 53 -27 77t-68 24q-26 0 -43.5 -9.5t-28.5 -24t-16 -33t-5 -36.5v-244q0 -17 4 -35.5t14 -33.5t28 -24.5t46 -9.5q48 0 71 29.5t24 74.5l42 -7q-3 -61 -38.5 -97.5t-98.5 -36.5q-39 0 -64.5 11.5t-41 31t-21.5 45t-6 54.5v240
q0 28 7.5 53.5t23.5 45t41.5 31.5t61.5 12zM285 689l19 -17l-110 -120h-32l-115 122l19 16l110 -97z" />
    <glyph glyph-name="Dcaronsmall" unicode="&#xe141;" horiz-adv-x="358" 
d="M178 512q56 0 87 -16.5t45 -55.5q6 -17 7.5 -44t1.5 -62v-144q0 -44 -1.5 -72.5t-8.5 -46.5q-9 -23 -22.5 -36.5t-31.5 -21.5t-39.5 -10.5t-44.5 -2.5h-125v512h132zM275 379q0 21 -4 38.5t-15 30t-30.5 20t-50.5 7.5h-88v-437h89q53 0 76 21.5t23 71.5v248zM277 689
l19 -17l-110 -120h-32l-115 122l19 16l110 -97z" />
    <glyph glyph-name="Dcroatsmall" unicode="&#xe142;" horiz-adv-x="358" 
d="M5 289h41v223h132q56 0 87 -16.5t45 -55.5q6 -17 7.5 -44t1.5 -62v-144q0 -44 -1.5 -72.5t-8.5 -46.5q-9 -23 -22.5 -36.5t-31.5 -21.5t-39.5 -10.5t-44.5 -2.5h-125v256h-41v33zM275 379q0 21 -4 38.5t-15 30t-30.5 20t-50.5 7.5h-88v-186h101v-33h-101v-218h89
q53 0 76 21.5t23 71.5v248z" />
    <glyph glyph-name="Emacronsmall" unicode="&#xe143;" horiz-adv-x="315" 
d="M47 0v513h249v-38h-209v-193h184v-37h-184v-207h209v-38h-249zM62 589v39h207v-39h-207z" />
    <glyph glyph-name="Ebrevesmall" unicode="&#xe144;" horiz-adv-x="315" 
d="M47 0v513h249v-38h-209v-193h184v-37h-184v-207h209v-38h-249zM86 669q5 -32 28.5 -54t54.5 -22q32 0 55.5 20.5t28.5 55.5h36q-2 -19 -10 -38.5t-23 -36t-36.5 -27t-50.5 -10.5q-30 0 -51.5 10.5t-36 27t-22 36.5t-9.5 38h36z" />
    <glyph glyph-name="Edotaccentsmall" unicode="&#xe145;" horiz-adv-x="315" 
d="M47 0v513h249v-38h-209v-193h184v-37h-184v-207h209v-38h-249zM150 589v48h41v-48h-41z" />
    <glyph glyph-name="Eogoneksmall" unicode="&#xe146;" horiz-adv-x="315" 
d="M224 -93q0 18 8.5 42.5t27.5 50.5h-213v513h249v-38h-209v-193h184v-37h-184v-207h209v-38h-1q-17 -21 -27 -45t-10 -41q0 -29 12.5 -40.5t31.5 -11.5q11 0 23.5 3t25.5 12l11 -30q-12 -9 -30 -15t-35 -6q-33 0 -53 23t-20 58z" />
    <glyph glyph-name="Ecaronsmall" unicode="&#xe147;" horiz-adv-x="315" 
d="M47 0v513h249v-38h-209v-193h184v-37h-184v-207h209v-38h-249zM271 689l19 -17l-110 -120h-32l-115 122l19 16l110 -97z" />
    <glyph glyph-name="Gcircumflexsmall" unicode="&#xe148;" horiz-adv-x="350" 
d="M178 -7q-73 0 -104.5 38.5t-31.5 102.5v234q0 30 7.5 57t23.5 48t42 33t63 12q59 0 96.5 -32t39.5 -100l-42 -8q0 54 -26 78t-67 24q-27 0 -45 -9.5t-29.5 -25.5t-16.5 -35.5t-5 -40.5v-236q0 -19 5 -37.5t16.5 -32.5t29.5 -23t45 -9q49 0 73 31.5t24 74.5v96h-74v38h117
v-130q0 -38 -11 -65.5t-30 -46t-45 -27.5t-55 -9zM178 648l-110 -97l-19 16l115 123h31l111 -121l-20 -17z" />
    <glyph glyph-name="Gbrevesmall" unicode="&#xe149;" horiz-adv-x="350" 
d="M178 -7q-73 0 -104.5 38.5t-31.5 102.5v234q0 30 7.5 57t23.5 48t42 33t63 12q59 0 96.5 -32t39.5 -100l-42 -8q0 54 -26 78t-67 24q-27 0 -45 -9.5t-29.5 -25.5t-16.5 -35.5t-5 -40.5v-236q0 -19 5 -37.5t16.5 -32.5t29.5 -23t45 -9q49 0 73 31.5t24 74.5v96h-74v38h117
v-130q0 -38 -11 -65.5t-30 -46t-45 -27.5t-55 -9zM94 669q5 -32 28.5 -54t54.5 -22q32 0 55.5 20.5t28.5 55.5h36q-2 -19 -10 -38.5t-23 -36t-36.5 -27t-50.5 -10.5q-30 0 -51.5 10.5t-36 27t-22 36.5t-9.5 38h36z" />
    <glyph glyph-name="Gdotaccentsmall" unicode="&#xe14a;" horiz-adv-x="350" 
d="M178 -7q-73 0 -104.5 38.5t-31.5 102.5v234q0 30 7.5 57t23.5 48t42 33t63 12q59 0 96.5 -32t39.5 -100l-42 -8q0 54 -26 78t-67 24q-27 0 -45 -9.5t-29.5 -25.5t-16.5 -35.5t-5 -40.5v-236q0 -19 5 -37.5t16.5 -32.5t29.5 -23t45 -9q49 0 73 31.5t24 74.5v96h-74v38h117
v-130q0 -38 -11 -65.5t-30 -46t-45 -27.5t-55 -9zM159 589v48h41v-48h-41z" />
    <glyph glyph-name="Gcommaaccentsmall" unicode="&#xe14b;" horiz-adv-x="350" 
d="M178 -7q-73 0 -104.5 38.5t-31.5 102.5v234q0 30 7.5 57t23.5 48t42 33t63 12q59 0 96.5 -32t39.5 -100l-42 -8q0 54 -26 78t-67 24q-27 0 -45 -9.5t-29.5 -25.5t-16.5 -35.5t-5 -40.5v-236q0 -19 5 -37.5t16.5 -32.5t29.5 -23t45 -9q49 0 73 31.5t24 74.5v96h-74v38h117
v-130q0 -38 -11 -65.5t-30 -46t-45 -27.5t-55 -9zM167 -196h-26q5 21 9.5 42.5t9.5 42.5h-13v56h53v-56z" />
    <glyph glyph-name="Hcircumflexsmall" unicode="&#xe14c;" horiz-adv-x="365" 
d="M276 0v244h-189v-244h-40v513h40v-232h189v232h43v-513h-43zM182 648l-110 -97l-19 16l115 123h31l111 -121l-20 -17z" />
    <glyph glyph-name="Hbarsmall" unicode="&#xe14d;" horiz-adv-x="365" 
d="M276 0v244h-189v-244h-40v408h-42v32h42v73h40v-73h189v73h43v-73h45v-32h-45v-408h-43zM276 281v127h-189v-127h189z" />
    <glyph glyph-name="Itildesmall" unicode="&#xe14e;" horiz-adv-x="155" 
d="M57 0v513h41v-513h-41zM216 635q-12 -32 -33.5 -47t-41.5 -15q-15 0 -29.5 6t-28.5 13t-27.5 13t-26.5 6q-12 0 -24.5 -9.5t-23.5 -25.5l-24 15q12 25 31 41t40 16q15 0 29 -6t27.5 -13t27.5 -13t30 -6q28 0 51 39z" />
    <glyph glyph-name="Imacronsmall" unicode="&#xe14f;" horiz-adv-x="155" 
d="M57 0v513h41v-513h-41zM-24 589v39h207v-39h-207z" />
    <glyph glyph-name="Ibrevesmall" unicode="&#xe150;" horiz-adv-x="155" 
d="M57 0v513h41v-513h-41zM-5 669q5 -32 28.5 -54t54.5 -22q32 0 55.5 20.5t28.5 55.5h36q-2 -19 -10 -38.5t-23 -36t-36.5 -27t-50.5 -10.5q-30 0 -51.5 10.5t-36 27t-22 36.5t-9.5 38h36z" />
    <glyph glyph-name="Iogoneksmall" unicode="&#xe151;" horiz-adv-x="155" 
d="M26 -93q0 18 8.5 42.5t27.5 50.5h-5v513h41v-513h-1q-17 -21 -27 -45t-10 -41q0 -29 12.5 -40.5t31.5 -11.5q11 0 23.5 3t25.5 12l11 -30q-12 -9 -30 -15t-35 -6q-33 0 -53 23t-20 58z" />
    <glyph glyph-name="Idotaccentsmall" unicode="&#xe152;" horiz-adv-x="155" 
d="M57 0v513h41v-513h-41zM58 588v48h41v-48h-41z" />
    <glyph glyph-name="IJsmall" unicode="&#xe153;" horiz-adv-x="430" 
d="M57 0v513h41v-513h-41zM377 513v-384q0 -62 -31.5 -98.5t-100.5 -36.5q-27 0 -50 7t-41 24l22 31q12 -9 32.5 -16.5t37.5 -7.5q40 0 65.5 23t25.5 71v387h40z" />
    <glyph glyph-name="Jcircumflexsmall" unicode="&#xe154;" horiz-adv-x="284" 
d="M222 513v-384q0 -62 -31.5 -98.5t-100.5 -36.5q-27 0 -50 7t-41 24l22 31q12 -9 32.5 -16.5t37.5 -7.5q40 0 65.5 23t25.5 71v387h40zM201 648l-110 -97l-19 16l115 123h31l111 -121l-20 -17z" />
    <glyph glyph-name="Kcommaaccentsmall" unicode="&#xe155;" horiz-adv-x="351" 
d="M88 211l95 150l95 151h45l-127 -204l152 -308h-46l-66 135l-67 135l-41 -64l-41 -64v-142h-41v512h41v-301h1zM172 -182h-26q5 21 9.5 42.5t9.5 42.5h-13v56h53v-56z" />
    <glyph glyph-name="Lacutesmall" unicode="&#xe156;" horiz-adv-x="294" 
d="M48 0v513h40v-475h199v-38h-239zM56 566l67 151l45 -17l-88 -144z" />
    <glyph glyph-name="Lcommaaccentsmall" unicode="&#xe157;" horiz-adv-x="294" 
d="M48 0v513h40v-475h199v-38h-239zM168 -202h-26q5 21 9.5 42.5t9.5 42.5h-13v56h53v-56z" />
    <glyph glyph-name="Lcaronsmall" unicode="&#xe158;" horiz-adv-x="294" 
d="M48 0v513h40v-475h199v-38h-239zM212 372h-26q5 21 9.5 42.5t9.5 42.5h-13v56h53v-56z" />
    <glyph glyph-name="Ldotsmall" unicode="&#xe159;" horiz-adv-x="294" 
d="M48 0v513h40v-475h199v-38h-239zM186 240v48h41v-48h-41z" />
    <glyph glyph-name="Lslashsmall" unicode="&#xe15a;" horiz-adv-x="294" 
d="M48 0v179l-47 -27q-3 7 -7 13t-8 13l62 37v298h40v-275l52 31l52 31q4 -8 8 -14t8 -13l-120 -71v-164h199v-38h-239z" />
    <glyph glyph-name="Nacutesmall" unicode="&#xe15b;" horiz-adv-x="382" 
d="M86 0h-41v512h37l61 -118l60 -118l93 -186v422h41v-512h-38l-59.5 118.5l-60.5 118.5l-46 92l-47 92v-421zM173 566l67 151l45 -17l-88 -144z" />
    <glyph glyph-name="Ncommaaccentsmall" unicode="&#xe15c;" horiz-adv-x="382" 
d="M86 0h-41v512h37l61 -118l60 -118l93 -186v422h41v-512h-38l-59.5 118.5l-60.5 118.5l-46 92l-47 92v-421zM179 -189h-26q5 21 9.5 42.5t9.5 42.5h-13v56h53v-56z" />
    <glyph glyph-name="Ncaronsmall" unicode="&#xe15d;" horiz-adv-x="382" 
d="M86 0h-41v512h37l61 -118l60 -118l93 -186v422h41v-512h-38l-59.5 118.5l-60.5 118.5l-46 92l-47 92v-421zM299 689l19 -17l-110 -120h-32l-115 122l19 16l110 -97z" />
    <glyph glyph-name="Engsmall" unicode="&#xe15e;" horiz-adv-x="382" 
d="M86 0h-41v512h37l61 -118l60 -118l93 -186v422h41v-567q0 -54 -21.5 -77t-56.5 -23q-16 0 -27.5 3t-25.5 10l13 32q17 -8 33 -8q23 0 31.5 18t8.5 44v69l-113 224l-46 92l-47 92v-421z" />
    <glyph glyph-name="Omacronsmall" unicode="&#xe15f;" horiz-adv-x="357" 
d="M316 145q0 -73 -37 -112.5t-101 -39.5q-63 0 -100 38t-37 106v228q0 68 34.5 110.5t102.5 42.5q69 0 103.5 -39.5t34.5 -110.5v-223zM274 372q0 48 -24 78t-72 30q-26 0 -44.5 -9.5t-30 -26t-16.5 -38t-5 -44.5v-225q0 -47 24.5 -77t71.5 -30q51 0 73.5 32t22.5 83v227z
M74 589v39h207v-39h-207z" />
    <glyph glyph-name="Obrevesmall" unicode="&#xe160;" horiz-adv-x="357" 
d="M316 145q0 -73 -37 -112.5t-101 -39.5q-63 0 -100 38t-37 106v228q0 68 34.5 110.5t102.5 42.5q69 0 103.5 -39.5t34.5 -110.5v-223zM274 372q0 48 -24 78t-72 30q-26 0 -44.5 -9.5t-30 -26t-16.5 -38t-5 -44.5v-225q0 -47 24.5 -77t71.5 -30q51 0 73.5 32t22.5 83v227z
M96 669q5 -32 28.5 -54t54.5 -22q32 0 55.5 20.5t28.5 55.5h36q-2 -19 -10 -38.5t-23 -36t-36.5 -27t-50.5 -10.5q-30 0 -51.5 10.5t-36 27t-22 36.5t-9.5 38h36z" />
    <glyph glyph-name="Ohungarumlautsmall" unicode="&#xe161;" horiz-adv-x="357" 
d="M316 145q0 -73 -37 -112.5t-101 -39.5q-63 0 -100 38t-37 106v228q0 68 34.5 110.5t102.5 42.5q69 0 103.5 -39.5t34.5 -110.5v-223zM274 372q0 48 -24 78t-72 30q-26 0 -44.5 -9.5t-30 -26t-16.5 -38t-5 -44.5v-225q0 -47 24.5 -77t71.5 -30q51 0 73.5 32t22.5 83v227z
M115 563l66 151l46 -17l-88 -144zM201 563l66 151l46 -17l-88 -144z" />
    <glyph glyph-name="Racutesmall" unicode="&#xe162;" horiz-adv-x="351" 
d="M154 512q43 0 72.5 -10t47.5 -28t25.5 -43.5t7.5 -56.5q0 -42 -17 -79t-68 -57l49.5 -119l47.5 -119h-45l-45.5 116l-46.5 116q-12 -1 -21.5 -1h-20.5h-53v-231h-40v512h107zM87 474v-206h72q47 0 76.5 25.5t29.5 80.5q0 47 -25 73.5t-93 26.5h-60zM140 566l67 151
l45 -17l-88 -144z" />
    <glyph glyph-name="Rcommaaccentsmall" unicode="&#xe163;" horiz-adv-x="351" 
d="M154 512q43 0 72.5 -10t47.5 -28t25.5 -43.5t7.5 -56.5q0 -42 -17 -79t-68 -57l49.5 -119l47.5 -119h-45l-45.5 116l-46.5 116q-12 -1 -21.5 -1h-20.5h-53v-231h-40v512h107zM87 474v-206h72q47 0 76.5 25.5t29.5 80.5q0 47 -25 73.5t-93 26.5h-60zM162 -189h-26
q5 21 9.5 42.5t9.5 42.5h-13v56h53v-56z" />
    <glyph glyph-name="Rcaronsmall" unicode="&#xe164;" horiz-adv-x="351" 
d="M154 512q43 0 72.5 -10t47.5 -28t25.5 -43.5t7.5 -56.5q0 -42 -17 -79t-68 -57l49.5 -119l47.5 -119h-45l-45.5 116l-46.5 116q-12 -1 -21.5 -1h-20.5h-53v-231h-40v512h107zM87 474v-206h72q47 0 76.5 25.5t29.5 80.5q0 47 -25 73.5t-93 26.5h-60zM271 689l19 -17
l-110 -120h-32l-115 122l19 16l110 -97z" />
    <glyph glyph-name="Sacutesmall" unicode="&#xe165;" horiz-adv-x="335" 
d="M306 136q0 -30 -7 -55.5t-22.5 -44.5t-42 -30t-65.5 -11q-37 0 -63 9t-43 24.5t-25 37t-8 45.5l43 8q0 -17 5 -32.5t16 -27.5t29.5 -19t45.5 -7q31 0 50 9t29.5 23.5t13.5 32.5t3 37q0 18 -3 33.5t-13 29t-29.5 26.5t-52.5 25q-44 16 -70 31.5t-40 31.5t-18.5 34t-4.5 40
q0 58 33 94.5t105 36.5q39 0 65 -10.5t41 -26.5t21.5 -36.5t6.5 -39.5l-40 -9q0 17 -5 32t-16.5 26.5t-29.5 18t-45 6.5q-29 0 -47.5 -8.5t-28.5 -21.5t-13.5 -29.5t-3.5 -31.5q0 -17 4 -30.5t16 -25.5t34.5 -23.5t60.5 -24.5q37 -14 59.5 -29.5t34.5 -34t16 -39.5t4 -44z
M147 566l67 151l45 -17l-88 -144z" />
    <glyph glyph-name="Scircumflexsmall" unicode="&#xe166;" horiz-adv-x="335" 
d="M306 136q0 -30 -7 -55.5t-22.5 -44.5t-42 -30t-65.5 -11q-37 0 -63 9t-43 24.5t-25 37t-8 45.5l43 8q0 -17 5 -32.5t16 -27.5t29.5 -19t45.5 -7q31 0 50 9t29.5 23.5t13.5 32.5t3 37q0 18 -3 33.5t-13 29t-29.5 26.5t-52.5 25q-44 16 -70 31.5t-40 31.5t-18.5 34t-4.5 40
q0 58 33 94.5t105 36.5q39 0 65 -10.5t41 -26.5t21.5 -36.5t6.5 -39.5l-40 -9q0 17 -5 32t-16.5 26.5t-29.5 18t-45 6.5q-29 0 -47.5 -8.5t-28.5 -21.5t-13.5 -29.5t-3.5 -31.5q0 -17 4 -30.5t16 -25.5t34.5 -23.5t60.5 -24.5q37 -14 59.5 -29.5t34.5 -34t16 -39.5t4 -44z
M175 648l-110 -97l-19 16l115 123h31l111 -121l-20 -17z" />
    <glyph glyph-name="Scedillasmall" unicode="&#xe167;" horiz-adv-x="335" 
d="M306 136q0 -29 -6 -53.5t-20.5 -43t-38 -30t-58.5 -13.5l-15 -59q23 -2 38.5 -9.5t24.5 -18t12.5 -22.5t3.5 -22q0 -26 -18 -48.5t-58 -22.5q-15 0 -35 2.5t-40 13.5l10 24q17 -8 31.5 -10t26.5 -2q21 0 35 10.5t14 31.5q0 20 -15 33.5t-47 13.5l-16 12l20 73
q-66 3 -95 35.5t-30 79.5l43 8q0 -17 5 -32.5t16 -27.5t29.5 -19t45.5 -7q31 0 50 9t29.5 23.5t13.5 32.5t3 37q0 18 -3 33.5t-13 29t-29.5 26.5t-52.5 25q-44 16 -70 31.5t-40 31.5t-18.5 34t-4.5 40q0 58 33 94.5t105 36.5q39 0 65 -10.5t41 -26.5t21.5 -36.5t6.5 -39.5
l-40 -9q0 17 -5 32t-16.5 26.5t-29.5 18t-45 6.5q-29 0 -47.5 -8.5t-28.5 -21.5t-13.5 -29.5t-3.5 -31.5q0 -17 4 -30.5t16 -25.5t34.5 -23.5t60.5 -24.5q37 -14 59.5 -29.5t34.5 -34t16 -39.5t4 -44z" />
    <glyph glyph-name="Tcommaaccentsmall" unicode="&#xe168;" horiz-adv-x="283" 
d="M162 475v-475h-42v475h-115v38h271v-38h-114zM135 -202h-26q5 21 9.5 42.5t9.5 42.5h-13v56h53v-56z" />
    <glyph glyph-name="Tcaronsmall" unicode="&#xe169;" horiz-adv-x="283" 
d="M162 475v-475h-42v475h-115v38h271v-38h-114zM250 689l19 -17l-110 -120h-32l-115 122l19 16l110 -97z" />
    <glyph glyph-name="Tbarsmall" unicode="&#xe16a;" horiz-adv-x="283" 
d="M162 475v-172h100v-31h-100v-272h-42v272h-90v31h90v172h-115v38h271v-38h-114z" />
    <glyph glyph-name="Utildesmall" unicode="&#xe16b;" horiz-adv-x="349" 
d="M311 512v-372q0 -66 -35 -106t-103 -40q-69 0 -103 38.5t-34 100.5v379h41v-377q0 -42 23.5 -72.5t72.5 -30.5q26 0 44.5 9t30 23.5t17 33.5t5.5 39v375h41zM309 635q-12 -32 -33.5 -47t-41.5 -15q-15 0 -29.5 6t-28.5 13t-27.5 13t-26.5 6q-12 0 -24.5 -9.5t-23.5 -25.5
l-24 15q12 25 31 41t40 16q15 0 29 -6t27.5 -13t27.5 -13t30 -6q28 0 51 39z" />
    <glyph glyph-name="Umacronsmall" unicode="&#xe16c;" horiz-adv-x="349" 
d="M311 512v-372q0 -66 -35 -106t-103 -40q-69 0 -103 38.5t-34 100.5v379h41v-377q0 -42 23.5 -72.5t72.5 -30.5q26 0 44.5 9t30 23.5t17 33.5t5.5 39v375h41zM66 589v39h207v-39h-207z" />
    <glyph glyph-name="Ubrevesmall" unicode="&#xe16d;" horiz-adv-x="349" 
d="M311 512v-372q0 -66 -35 -106t-103 -40q-69 0 -103 38.5t-34 100.5v379h41v-377q0 -42 23.5 -72.5t72.5 -30.5q26 0 44.5 9t30 23.5t17 33.5t5.5 39v375h41zM87 669q5 -32 28.5 -54t54.5 -22q32 0 55.5 20.5t28.5 55.5h36q-2 -19 -10 -38.5t-23 -36t-36.5 -27
t-50.5 -10.5q-30 0 -51.5 10.5t-36 27t-22 36.5t-9.5 38h36z" />
    <glyph glyph-name="Uringsmall" unicode="&#xe16e;" horiz-adv-x="349" 
d="M311 512v-372q0 -66 -35 -106t-103 -40q-69 0 -103 38.5t-34 100.5v379h41v-377q0 -42 23.5 -72.5t72.5 -30.5q26 0 44.5 9t30 23.5t17 33.5t5.5 39v375h41zM172 550q-33 0 -56.5 24t-23.5 57q0 35 23.5 58.5t56.5 23.5t56.5 -23.5t23.5 -58.5q0 -33 -23.5 -57t-56.5 -24
zM172 686q-22 0 -37.5 -16t-15.5 -39t15.5 -39t37.5 -16t37.5 16t15.5 39t-15.5 39t-37.5 16z" />
    </font>
</defs>
</svg>
